<svg width="56" height="56" viewBox="0 0 56 56" fill="none" xmlns="http://www.w3.org/2000/svg">
<path d="M16.8376 17.9785L5.97976 36.6039C5.45769 37.4995 6.47538 38.5 7.36193 37.9628L15.2983 33.1536C15.6502 32.9403 16.0969 32.9644 16.4239 33.2144L22.8304 38.112C23.6024 38.7022 24.6775 37.9558 24.3944 37.0263L18.6581 18.1908C18.4039 17.3559 17.2771 17.2245 16.8376 17.9785Z" fill="#FFFFFF"/>
<path d="M38.7624 17.9785L49.6202 36.6039C50.1423 37.4995 49.1246 38.5 48.238 37.9628L40.3017 33.1536C39.9497 32.9403 39.503 32.9644 39.1761 33.2144L32.7696 38.112C31.9976 38.7022 30.9225 37.9558 31.2056 37.0263L36.9419 18.1908C37.1961 17.3559 38.3229 17.2245 38.7624 17.9785Z" fill="#FFFFFF"/>
<path d="M26.8471 38.0051L21.2015 20.2617C20.9429 19.4492 21.7545 18.7067 22.5409 19.0362L27.4135 21.078C27.6608 21.1817 27.9393 21.1817 28.1865 21.078L33.0592 19.0362C33.8455 18.7067 34.6571 19.4492 34.3986 20.2617L28.7529 38.0051C28.4573 38.9342 27.1427 38.9342 26.8471 38.0051Z" fill="#FFFFFF"/>
</svg>
