<svg version="1.1" xmlns="http://www.w3.org/2000/svg" width="1536" height="1024">

<path d="M0 0 C9.18297356 6.30733651 15.24141171 19.0716367 17.66455078 29.76318359 C18.36402321 34.42735128 18.28540498 39.10658796 18.25 43.8125 C18.25773437 44.82892578 18.26546875 45.84535156 18.2734375 46.89257812 C18.2579789 52.95621514 17.7036918 58.60325786 16.42871094 64.53393555 C15.97404582 67.14929565 15.7169697 69.35496304 16 72 C17.27852777 73.81497876 17.27852777 73.81497876 19.109375 75.30859375 C22.98922744 78.91841626 26.09466192 82.81766154 29.25 87.0625 C30.39114865 88.57610803 31.5330871 90.0891209 32.67578125 91.6015625 C33.2373291 92.34696289 33.79887695 93.09236328 34.37744141 93.86035156 C36.69411074 96.91531546 39.06022018 99.92960336 41.4375 102.9375 C50.59841369 114.55111455 59.69102661 126.2211932 68.6796875 137.96875 C70.28025891 140.05973218 71.88891577 142.14214816 73.5078125 144.21875 C80.99568064 153.94575555 84.32008624 160.46649831 83 173 C82.21514681 178.34688255 81.1635224 183.6446572 80.13671875 188.94921875 C78.95294633 195.11064896 77.990423 201.29557801 77.0625 207.5 C75.63372023 216.99584643 74.10119049 226.46922029 72.5 235.9375 C70.66838266 246.77905336 68.96685263 257.63162446 67.43164062 268.51928711 C66.51661701 274.90462694 65.41176165 281.231527 64.19827271 287.56687927 C62.70465317 295.43321777 61.44775838 303.33623464 60.1817627 311.24182129 C57.78214223 326.22367561 55.29614471 341.18748455 52.70303345 356.13702393 C50.11621025 371.05713009 47.71953952 385.9499351 46 401 C46.95773315 400.98042236 46.95773315 400.98042236 47.93481445 400.96044922 C70.06527898 400.7002123 89.44200275 409.74719082 106 424 C106.60457031 424.51949219 107.20914062 425.03898437 107.83203125 425.57421875 C122.32873864 439.05242211 132.28210695 459.12096707 133.12304688 478.89306641 C133.2060938 482.20025834 133.23481621 485.50433081 133.25 488.8125 C133.2809375 490.48022461 133.2809375 490.48022461 133.3125 492.18164062 C133.34725662 499.60652395 132.3670426 505.96824379 130 513 C129.77554199 513.68280029 129.55108398 514.36560059 129.31982422 515.0690918 C121.98282491 536.30967699 107.344847 553.18138487 87.640625 563.8125 C66.8817136 573.74499349 43.60887123 576.71864829 21.33984375 569.97265625 C17.86474399 568.96060965 14.61017691 568.27838574 11 568 C10.34 568.66 9.68 569.32 9 570 C-5.89877178 571.73241532 -20.86105069 568.55883202 -35.52270508 566.18492126 C-46.0578838 564.49008663 -56.62358972 563.00302687 -67.1875 561.5 C-68.75452667 561.27623184 -68.75452667 561.27623184 -70.35321045 561.04794312 C-85.93346191 558.824533 -101.52391591 556.69253391 -117.13354492 554.68554688 C-125.72547748 553.57881269 -134.30219998 552.39203608 -142.87559509 551.14955139 C-148.31753524 550.36659203 -153.76337157 549.63588538 -159.21847534 548.95071411 C-162.84378639 548.49367695 -166.46648614 548.01760077 -170.08911133 547.53979492 C-171.92693058 547.3020564 -173.76585851 547.072757 -175.60571289 546.85131836 C-178.33044419 546.5211998 -181.04956803 546.16007582 -183.76953125 545.79296875 C-184.98682671 545.65667305 -184.98682671 545.65667305 -186.22871399 545.5176239 C-192.34187651 544.6472182 -196.55726801 542.29916265 -201 538 C-206.42009218 530.58328963 -205.47382254 522.72179786 -204.23046875 513.99609375 C-203.88903443 511.80891548 -203.54109843 509.62274469 -203.1875 507.4375 C-201.75673192 498.22320123 -200.45528874 489.01214772 -199.375 479.75 C-199.19167114 478.18439331 -199.19167114 478.18439331 -199.00463867 476.5871582 C-198.77319663 474.6066552 -198.54213663 472.6261075 -198.31152344 470.64550781 C-197.35962136 462.56180023 -196.25521101 454.50759077 -194.9453125 446.47412109 C-193.41955229 437.11132468 -192.22116798 427.7384856 -191.13183594 418.31518555 C-190.01920324 408.83065232 -188.58247943 399.41631377 -187 390 C-181.2009146 390.72081536 -175.59726191 391.9453032 -169.9140625 393.29296875 C-168.46534004 393.63274498 -168.46534004 393.63274498 -166.98735046 393.97938538 C-163.8658389 394.71236702 -160.74539409 395.44977696 -157.625 396.1875 C-155.47164113 396.69451786 -153.3182393 397.20135326 -151.16479492 397.70800781 C-145.10877381 399.13408056 -139.05420445 400.56623767 -133 402 C-131.60075378 402.33091344 -130.20150315 402.66180821 -128.80224609 402.99267578 C-114.77667779 406.31446909 -100.78762367 409.77685857 -86.80859375 413.2890625 C-85.70451172 413.56613037 -84.60042969 413.84319824 -83.46289062 414.12866211 C-81.08063605 414.72808869 -78.69916694 415.33064278 -76.31835938 415.93579102 C-64.56693618 418.91325189 -52.75525435 421.61206559 -40.93457031 424.29907227 C-38.34389901 424.88861303 -35.75394783 425.48123629 -33.1640625 426.07421875 C-31.97521957 426.34295052 -31.97521957 426.34295052 -30.76235962 426.61711121 C-25.22643739 427.88678131 -25.22643739 427.88678131 -23 429 C-19.80095012 429.83953267 -19.80095012 429.83953267 -16 429 C-13.69682836 427.0212831 -11.73035243 424.83635793 -9.6796875 422.59765625 C-4.3697179 417.45023674 2.39147046 413.30426477 9 410 C2.76062917 408.77086419 -3.47925844 407.54437707 -9.71948242 406.31958008 C-11.83450618 405.90414904 -13.94941855 405.48815039 -16.06420898 405.0715332 C-30.8560388 402.15349307 -30.8560388 402.15349307 -45.69140625 399.46875 C-54.54970164 397.93853595 -63.35623801 396.16736118 -72.16680908 394.38522339 C-77.11795982 393.38435902 -82.07076228 392.39172582 -87.0234375 391.3984375 C-88.53410294 391.09530891 -88.53410294 391.09530891 -90.07528687 390.78605652 C-120.99972153 384.58581034 -151.98253614 378.71513368 -183 373 C-183.91861129 368.15139639 -183.78240148 364.72323834 -182.75 359.875 C-182.45769823 358.43815517 -182.16878209 357.00061848 -181.8828125 355.5625 C-181.73360352 354.81226563 -181.58439453 354.06203125 -181.43066406 353.2890625 C-180.71789861 349.50057671 -180.17375516 345.69011774 -179.625 341.875 C-178.19809042 332.06729109 -176.56162901 322.29875662 -174.91333008 312.52612305 C-173.29205089 302.86872574 -171.77295357 293.19896482 -170.34399414 283.51123047 C-169.55970504 278.27724033 -168.63596607 273.13263008 -167.43969727 267.97729492 C-166.83839318 265.27326285 -166.44296178 262.55544827 -166.0625 259.8125 C-165.37843396 255.14890689 -164.49019655 250.59404949 -163.4375 246 C-162.40642668 241.3832538 -161.77155629 236.97175429 -161.5 232.25 C-161.2712831 228.35714503 -160.84222522 225.05500586 -159.5625 221.375 C-157.60178892 215.61660096 -157.22373427 209.71531155 -156.73461914 203.68701172 C-156.66621826 202.89697754 -156.59781738 202.10694336 -156.52734375 201.29296875 C-156.47312256 200.5868042 -156.41890137 199.88063965 -156.36303711 199.15307617 C-156 197 -156 197 -155.01806641 194.5859375 C-153.91302602 191.77908191 -153.52069324 189.32550468 -153.18359375 186.33203125 C-152.99700195 184.74551758 -152.99700195 184.74551758 -152.80664062 183.12695312 C-152.68482422 182.03318359 -152.56300781 180.93941406 -152.4375 179.8125 C-152.18947314 177.63113552 -151.93832948 175.45012246 -151.68359375 173.26953125 C-151.57587646 172.30635986 -151.46815918 171.34318848 -151.35717773 170.35083008 C-151 168 -151 168 -150 166 C-150.55945313 166.00902344 -151.11890625 166.01804687 -151.6953125 166.02734375 C-167.01766888 165.46076144 -180.80921147 153.84481776 -193.18847656 145.81640625 C-197.62609802 142.94944692 -202.09348679 140.13017806 -206.5625 137.3125 C-207.34133545 136.81983643 -208.1201709 136.32717285 -208.92260742 135.81958008 C-210.34179469 134.92302811 -211.76378554 134.0308907 -213.18920898 133.14428711 C-214.67490513 132.20543612 -216.12785657 131.21495698 -217.5703125 130.2109375 C-220.84262003 128.58004468 -223.67677543 128.48239367 -227.3125 128.3125 C-229.19388672 128.21388672 -229.19388672 128.21388672 -231.11328125 128.11328125 C-232.06589844 128.07589844 -233.01851562 128.03851563 -234 128 C-234.33 128.99 -234.66 129.98 -235 131 C-236.98567708 131.22786458 -238.97135417 131.45572917 -240.95703125 131.68359375 C-243.19396393 131.97170735 -243.19396393 131.97170735 -246 133 C-246.68025637 134.99541868 -247.34490497 136.99617991 -248 139 C-250.54757708 142.77744188 -252.92939792 144.9761012 -257 147 C-263.32689435 147.90708163 -269.96841059 148.17734033 -275.625 144.875 C-279.4983332 141.89934918 -282.60904679 138.83190464 -283.3046875 133.79296875 C-283.43446838 129.44530915 -283.02729047 125.92787529 -281 122 C-278.625 122.3125 -278.625 122.3125 -276 123 C-275.34 123.99 -274.68 124.98 -274 126 C-274.66 126.99 -275.32 127.98 -276 129 C-275.92211578 132.66055823 -275.40248901 134.49018059 -273.125 137.375 C-268.56753033 139.74488423 -264.04383362 139.83437486 -259 139 C-256.47701862 137.60166964 -255.25222301 136.86277662 -254.43359375 134.0625 C-254.43763814 131.92706125 -254.47482565 130.07465571 -255 128 C-257.39056942 126.0645852 -257.39056942 126.0645852 -260 125 C-260 124.34 -260 123.68 -260 123 C-258.515 122.505 -258.515 122.505 -257 122 C-256.67 121.34 -256.34 120.68 -256 120 C-255.01 120.165 -254.02 120.33 -253 120.5 C-244.58377695 121.64460633 -238.07451989 120.49360173 -230 118 C-233.6546038 111.18914747 -239.5775794 106.53797306 -246.88671875 103.99609375 C-248.76004915 103.50795445 -250.6404112 103.04586916 -252.52734375 102.61328125 C-255.61612156 101.84718628 -258.20242308 100.49637835 -261 99 C-262.546875 98.5359375 -262.546875 98.5359375 -264.125 98.0625 C-267.31381861 96.88402356 -268.86975885 95.62183526 -271 93 C-271 92.34 -271 91.68 -271 91 C-264.60527675 90.65877959 -260.75823534 91.05962451 -255 94 C-251.96465371 94.40333392 -249.01025289 94.61409159 -246 94 C-243.66015558 91.12351775 -243.66015558 91.12351775 -244.125 87.5625 C-245.0853023 83.65269776 -245.82358357 82.38231232 -249 80 C-252.73649801 78.0334221 -255.80031486 77.63480999 -260 78 C-261.485 78.99 -261.485 78.99 -263 80 C-265.04296875 80.1953125 -265.04296875 80.1953125 -267.1875 80.125 C-268.445625 80.08375 -269.70375 80.0425 -271 80 C-270.66032174 76.82966958 -270.00130809 76.00117393 -267.5625 73.8125 C-261.86476594 69.78239542 -255.79392189 70.23211862 -249 71 C-244.24126229 72.92885722 -241.06887865 75.95719156 -237.4375 79.5 C-235.81419308 83.45239946 -236.05143662 85.65297503 -236.3125 89.875 C-236.53109149 95.08698938 -236.53109149 95.08698938 -234.15234375 99.546875 C-231.85381942 101.53519198 -229.48941356 103.26070774 -227 105 C-226.34515625 105.66773438 -225.6903125 106.33546875 -225.015625 107.0234375 C-222.09957194 109.8829779 -219.95380918 111.867737 -215.72070312 112.15429688 C-212.88635268 112.10611501 -210.0779111 111.94673426 -207.25 111.75 C-206.21214355 111.69207275 -205.17428711 111.63414551 -204.10498047 111.57446289 C-199.68937866 111.32301037 -195.27792856 111.02416195 -190.8671875 110.69921875 C-181.62453404 110.05281188 -172.3922395 109.83661775 -163.12982178 109.76882935 C-161.63941436 109.7563834 -160.14903932 109.73895395 -158.65875244 109.71627808 C-156.54052643 109.68609587 -154.42310581 109.67646326 -152.3046875 109.671875 C-151.06702637 109.6625293 -149.82936523 109.65318359 -148.55419922 109.64355469 C-144.41569612 110.05859896 -141.71839156 111.19240712 -138 113 C-138.33 113.99 -138.66 114.98 -139 116 C-149.93542345 118.2105297 -160.91403528 119.90924911 -171.95361328 121.50976562 C-181.00417477 122.82982499 -190.00866586 124.32601395 -199 126 C-196.60437726 127.83360902 -194.20851911 129.66690902 -191.8125 131.5 C-191.060896 132.07516357 -190.30929199 132.65032715 -189.53491211 133.24291992 C-185.21074572 136.55030976 -180.88203702 139.85156436 -176.546875 143.14453125 C-175.17825317 144.18480469 -175.17825317 144.18480469 -173.78198242 145.24609375 C-172.01731356 146.58698227 -170.25189532 147.92688535 -168.4855957 149.265625 C-163.30035615 153.20707203 -158.18831878 157.22576372 -153.12670898 161.32495117 C-150.90333461 163.12154553 -150.90333461 163.12154553 -148 165 C-147.88724731 164.01773438 -147.88724731 164.01773438 -147.7722168 163.015625 C-147.42108315 160.00909289 -147.05440999 157.00464596 -146.6875 154 C-146.56955078 152.97003906 -146.45160156 151.94007813 -146.33007812 150.87890625 C-144.87460459 139.16047832 -141.66741794 131.05192988 -132.17382812 123.55859375 C-127.67778503 120.18116272 -123.07055463 116.96364792 -118.46289062 113.74121094 C-114.40552936 110.8727434 -110.42555339 107.90115181 -106.4375 104.9375 C-99.80350492 100.02888408 -93.11192632 95.21431011 -86.35449219 90.47729492 C-81.09397539 86.78644846 -75.88609438 83.02742339 -70.6875 79.25 C-51.02089508 65 -51.02089508 65 -48 65 C-48.06928711 64.41009277 -48.13857422 63.82018555 -48.20996094 63.21240234 C-50.40438854 43.20874998 -51.09335384 21.97637235 -37.92578125 5.38671875 C-26.65525181 -6.63124545 -14.32499035 -8.03548627 0 0 Z " fill="#D6C8B1" transform="translate(1026,310)" data-index="1" style="opacity: 1;"></path>
<path d="M0 0 C0.66 0 1.32 0 2 0 C1.92394531 1.24007813 1.84789062 2.48015625 1.76953125 3.7578125 C1.77550376 9.87605114 3.70056155 15.14674577 5.6875 20.875 C6.43179748 23.11605717 7.17266233 25.35825719 7.91015625 27.6015625 C8.27125488 28.69629883 8.63235352 29.79103516 9.00439453 30.91894531 C16.67772763 54.66525813 21.18474717 79.53900048 23.70751953 104.31933594 C23.96225523 106.65405881 24.27032918 108.96725595 24.62109375 111.2890625 C28.78313085 139.82379482 25.78024574 169.47783361 23 198 C28.76592635 197.88168362 34.53168274 197.75743024 40.29736328 197.62768555 C42.25859096 197.5843874 44.2198551 197.54270869 46.18115234 197.50268555 C49.00108828 197.44485901 51.82084161 197.38120016 54.640625 197.31640625 C55.95489471 197.29133751 55.95489471 197.29133751 57.29571533 197.26576233 C58.11626404 197.24581711 58.93681274 197.22587189 59.78222656 197.20532227 C60.50170471 197.18977798 61.22118286 197.1742337 61.96246338 197.15821838 C65.05803979 196.92656497 65.05803979 196.92656497 68 196 C71.12859865 192.14289373 71.35918271 189.07092603 71.25854492 184.20117188 C71.2468159 183.54701042 71.23508688 182.89284897 71.22300243 182.21886444 C71.04737083 174.72319723 70.47393915 167.25163929 69.86328125 159.78125 C69.74210172 158.2487174 69.62130799 156.71615426 69.50086975 155.18356323 C69.17982146 151.12460565 68.85027637 147.06638637 68.5177536 143.00835419 C68.31124179 140.48462373 68.10661731 137.96074608 67.90240479 135.43682861 C65.13161513 68.84498792 65.13161513 68.84498792 49 5 C51.80674641 5.96231305 53.85383655 6.87533117 56.125 8.8125 C61.9864017 13.27226216 69.24706577 15.72443645 76.04296875 18.46484375 C77.05423828 18.87283203 78.06550781 19.28082031 79.10742188 19.70117188 C81.16956289 20.52890508 83.23471851 21.34916521 85.30273438 22.16210938 C101.325095 28.67151372 106.93854193 38.62414246 114.8125 53.5 C115.45680301 54.70963227 116.10125668 55.91918431 116.74584961 57.12866211 C123.02141804 68.93371223 129.13229617 80.82470405 135.21626282 92.72937012 C136.19764289 94.6426409 137.18795662 96.55106306 138.1796875 98.45898438 C139.34736718 100.7304471 140.4856699 103.01739471 141.5859375 105.32226562 C144.32394272 111.04069792 144.32394272 111.04069792 149.2421875 114.7734375 C150.44101562 114.97195313 151.63984375 115.17046875 152.875 115.375 C153.5462793 115.50181152 154.21755859 115.62862305 154.90917969 115.75927734 C156.41697555 116.04303848 157.9284337 116.30778958 159.44238281 116.55664062 C162.30072033 117.05212945 165.12606303 117.65009352 167.9609375 118.265625 C177.93967034 120.42724537 187.91683041 122.38624769 198 124 C198 125.32 198 126.64 198 128 C197 129 196 130 195 131 C192.83451798 136.04247957 192.75657604 140.50037426 192.875 145.875 C192.88853516 147.050625 192.88853516 147.050625 192.90234375 148.25 C192.92571937 150.16680055 192.96158347 152.08344191 193 154 C194.32 154.66 195.64 155.32 197 156 C195.83959961 158.46508789 195.83959961 158.46508789 194 161 C191.53344727 161.59936523 191.53344727 161.59936523 188.56640625 161.55859375 C187.45587891 161.55303467 186.34535156 161.54747559 185.20117188 161.54174805 C184.00041016 161.50734619 182.79964844 161.47294434 181.5625 161.4375 C180.32435547 161.41792236 179.08621094 161.39834473 177.81054688 161.37817383 C168.86434337 161.19019517 159.9291974 160.76312911 151 160.1875 C149.87537354 160.11781006 148.75074707 160.04812012 147.59204102 159.97631836 C134.60057982 159.00241816 124.37785151 157.07558257 115.46484375 147.1875 C111.01534573 142.01307456 106.84504971 136.63940624 103 131 C102.75104199 138.45490934 103.0709413 145.73625217 103.8125 153.1484375 C103.89990448 154.04438126 103.98730896 154.94032501 104.07736206 155.86341858 C104.84699314 163.66188878 105.67699864 171.45394814 106.5078125 179.24609375 C106.63920624 180.48233994 106.77059998 181.71858612 106.90597534 182.99229431 C107.72037601 190.65533919 107.72037601 190.65533919 108.54638672 198.31713867 C108.95698872 202.10526553 109.3581673 205.89429727 109.7578125 209.68359375 C109.88278107 210.81413681 110.00774963 211.94467987 110.13650513 213.10948181 C110.96748502 221.09523029 111.13509984 228.97411596 111 237 C109.02 237.99 109.02 237.99 107 239 C106.97240852 240.5551683 106.97240852 240.5551683 106.94425964 242.14175415 C105.86870901 302.45324701 104.34482754 362.72437318 102 423 C101.93403986 424.69978835 101.8680812 426.39957677 101.80212402 428.09936523 C101.08843858 446.46757959 100.35345701 464.83488648 99.60124016 483.20156097 C99.18861861 493.2797332 98.78857165 503.3582753 98.40234375 513.4375 C98.35655685 514.62809525 98.31076996 515.81869049 98.26359558 517.04536438 C98.00895998 523.67145663 98.00895998 523.67145663 97.75827026 530.29769897 C97.36270792 540.83478589 96.90741655 551.3557768 96.18798828 561.8762207 C95.73172004 567.38884155 95.73172004 567.38884155 98.25 572.1875 C106.78485829 581.41383986 116.06966856 586.28070125 127.703125 590.39453125 C140.65765837 595.03974715 140.65765837 595.03974715 143 600 C143.51554117 602.6808141 143.77251179 605.27014153 144 608 C136.39623451 613.06917699 126.79821482 612.34960159 118 612.3125 C116.70271973 612.31048584 115.40543945 612.30847168 114.06884766 612.30639648 C105.89387179 612.22103816 98.51694047 611.46420423 90.53515625 609.7265625 C83.22794152 608.34499668 75.67395555 608.50094616 68.26123047 608.37915039 C67.15021973 608.3558667 66.03920898 608.33258301 64.89453125 608.30859375 C63.90300049 608.29626709 62.91146973 608.28394043 61.88989258 608.27124023 C58.63415375 607.96566231 56.00080221 607.30120875 53 606 C48.90607178 593.71821534 53.02568245 579.09644324 56 567 C54.35 566.67 52.7 566.34 51 566 C49.00771477 541.79677938 49.00771477 541.79677938 48.5625 529.75 C48.22169866 520.90959681 47.5533525 512.109194 46.82070923 503.29467773 C45.42290752 486.45915557 44.32568414 469.61664389 43.375 452.75 C43.31274231 451.65871796 43.25048462 450.56743591 43.18634033 449.44308472 C42.43684257 436.23732215 41.79933613 423.03373185 41.37338257 409.81317139 C41.18246296 404.27611541 40.82704347 398.80634191 40.23269653 393.29818726 C39.88567139 389.87085314 39.72722796 386.45344035 39.5703125 383.01171875 C39.49828906 381.50250731 39.42592729 379.99331199 39.35327148 378.48413086 C39.31628143 377.70230438 39.27929138 376.92047791 39.24118042 376.11495972 C38.54339329 361.53547941 37.62284371 346.98551173 36.4375 332.4375 C36.37346985 331.64032562 36.3094397 330.84315125 36.24346924 330.02182007 C36.06083786 327.76289199 35.87338672 325.50443034 35.68359375 323.24609375 C35.57587646 321.96404053 35.46815918 320.6819873 35.35717773 319.36108398 C35.05464683 316.51423304 34.62348606 313.79120694 34 311 C33.81002441 311.95511475 33.62004883 312.91022949 33.42431641 313.89428711 C29.27322266 334.75290175 25.07304042 355.60095374 20.8125 376.4375 C15.42544953 402.7926703 10.15780028 429.16751773 5.04931641 455.578125 C4.30823865 459.40913368 3.56546539 463.2398097 2.82177734 467.0703125 C-1.99370281 491.88008984 -6.74863253 516.69542459 -11.1468811 541.58296204 C-11.7610538 545.0559419 -12.37914192 548.52820935 -13 552 C-13.13400208 552.75095947 -13.26800415 553.50191895 -13.40606689 554.27563477 C-13.80918695 556.52314032 -14.21815434 558.76950312 -14.62890625 561.015625 C-14.75184555 561.70412537 -14.87478485 562.39262573 -15.00144958 563.10198975 C-15.88522508 567.88522508 -15.88522508 567.88522508 -17 569 C-18.66617115 569.04063832 -20.33388095 569.042721 -22 569 C-19.76678566 579.76663497 -17.00020443 590.53637668 -12.35546875 600.54296875 C-10.94217122 604.1474884 -10.68308174 606.59809174 -10.8125 610.4375 C-10.83957031 611.48808594 -10.86664062 612.53867187 -10.89453125 613.62109375 C-10.92933594 614.40613281 -10.96414063 615.19117188 -11 616 C-17.97900916 620.1874055 -26.91823935 619.18304 -34.75 619.1875 C-35.86632812 619.19974609 -36.98265625 619.21199219 -38.1328125 619.22460938 C-55.61723518 619.25517655 -55.61723518 619.25517655 -62 615 C-62.36328125 612.05859375 -62.36328125 612.05859375 -62.3125 608.4375 C-62.30863281 607.26058594 -62.30476563 606.08367188 -62.30078125 604.87109375 C-62.016038 601.20641115 -61.37686684 597.9139756 -60.52807617 594.35375977 C-59.44810927 589.54009315 -58.83970252 584.6353836 -58.14453125 579.75390625 C-57.51857757 575.57415102 -56.82094431 571.86165775 -55 568 C-56.2065625 568.0309375 -56.2065625 568.0309375 -57.4375 568.0625 C-60 568 -60 568 -61 567 C-61.84949465 554.7817667 -60.39025859 542.25441987 -59.625 530.0625 C-59.48544205 527.79688947 -59.34612101 525.53126433 -59.20703125 523.265625 C-58.81112621 516.84333869 -58.40730306 510.42157258 -58 504 C-57.94952515 503.202453 -57.89905029 502.40490601 -57.8470459 501.58319092 C-57.30843928 493.08946533 -56.73870783 484.59817776 -56.14648438 476.10803223 C-55.98182506 473.73844752 -55.81897743 471.36874159 -55.65625 468.99902344 C-55.33866206 464.37940014 -55.01714767 459.76006184 -54.69335938 455.14086914 C-54.56743876 453.33966373 -54.44239401 451.53839681 -54.31835938 449.73706055 C-53.69574917 440.71690973 -52.99463474 431.72136128 -52.03515625 422.73046875 C-50.61320096 409.20943363 -49.88993697 395.6312356 -49.06671143 382.06347656 C-48.72408993 376.42616338 -48.37552448 370.78921751 -48.02572823 365.15234566 C-47.90618019 363.21453058 -47.788981 361.27657105 -47.67185974 359.33860779 C-47.28180574 352.99651187 -46.80796445 346.67478785 -46.20875549 340.34913635 C-45.95042205 337.44209677 -45.8106332 334.54180291 -45.71875 331.625 C-45.68136719 330.53703125 -45.64398438 329.4490625 -45.60546875 328.328125 C-45.57066406 327.22984375 -45.53585937 326.1315625 -45.5 325 C-45.4300146 322.79157183 -45.35712533 320.58323366 -45.28125 318.375 C-45.25095703 317.41335938 -45.22066406 316.45171875 -45.18945312 315.4609375 C-45.03346912 312.6114153 -44.79436176 309.80049426 -44.51586914 306.96166992 C-43.90208238 300.39425584 -43.67469485 293.82921611 -43.46484375 287.23828125 C-43.42186661 285.96647507 -43.37888947 284.69466888 -43.33460999 283.38432312 C-43.22223169 280.04231223 -43.11254067 276.70023621 -43.00421143 273.35809326 C-42.89247914 269.93201123 -42.77713091 266.50605102 -42.66210938 263.08007812 C-42.43811569 256.38682477 -42.21767082 249.6934618 -42 243 C-43.051875 243.020625 -44.10375 243.04125 -45.1875 243.0625 C-51.33715521 242.96168598 -51.33715521 242.96168598 -54 242 C-55.78588867 239.78540039 -55.78588867 239.78540039 -57.41796875 236.84765625 C-58.02713135 235.7707251 -58.63629395 234.69379395 -59.26391602 233.58422852 C-59.90555294 232.41056069 -60.54673725 231.23664531 -61.1875 230.0625 C-61.85916059 228.85979313 -62.5322682 227.65789327 -63.20678711 226.45678711 C-64.5459055 224.06605321 -65.87545418 221.67041357 -67.19628906 219.26953125 C-68.68290703 216.57478466 -70.18722323 213.89259247 -71.7109375 211.21875 C-76.43812787 202.89373872 -80.93424068 194.4428384 -85.37960815 185.96456909 C-86.27980807 184.24977497 -87.18581706 182.53803423 -88.09204102 180.82641602 C-96.27536699 165.10166232 -100.00065973 153.80841261 -95.9375 136.375 C-95.71344482 135.38628906 -95.48938965 134.39757812 -95.25854492 133.37890625 C-74.89298247 45.47596958 -74.89298247 45.47596958 -54 30 C-50.1688935 27.77836217 -46.21002227 25.91012736 -42.1875 24.0625 C-41.09107178 23.54381348 -39.99464355 23.02512695 -38.86499023 22.49072266 C-32.96873697 19.72847529 -27.03250105 17.18164049 -20.96777344 14.81616211 C-12.85624809 11.64219436 -7.47886414 8.63262881 -1.71484375 1.90625 C-1.14894531 1.2771875 -0.58304688 0.648125 0 0 Z " fill="#C0A788" transform="translate(530,269)" data-index="2" style="opacity: 1;"></path>
<path d="M0 0 C5.7990854 0.72081536 11.40273809 1.9453032 17.0859375 3.29296875 C18.05175247 3.51948624 19.01756744 3.74600372 20.01264954 3.97938538 C23.1341611 4.71236702 26.25460591 5.44977696 29.375 6.1875 C31.52835887 6.69451786 33.6817607 7.20135326 35.83520508 7.70800781 C41.89122619 9.13408056 47.94579555 10.56623767 54 12 C55.39924622 12.33091344 56.79849685 12.66180821 58.19775391 12.99267578 C72.22332221 16.31446909 86.21237633 19.77685857 100.19140625 23.2890625 C101.29500488 23.5660498 102.39860352 23.84303711 103.53564453 24.12841797 C105.92270359 24.72896771 108.3090576 25.33232452 110.69482422 25.93798828 C121.42833577 28.6547512 132.20715425 31.15595453 143 33.625 C145.59217999 34.21891005 148.18425094 34.81328652 150.77612305 35.40853882 C152.36984316 35.77447083 153.9637425 36.13962355 155.55786133 36.5038147 C160.38736511 37.61165523 165.19634248 38.78482136 170 40 C169.63648438 40.53367187 169.27296875 41.06734375 168.8984375 41.6171875 C154.16808427 63.44832639 145.26492034 85.71225541 149.375 112.43847656 C154.02236091 134.81358294 167.52399069 154.9646063 186.03515625 168.1015625 C190.81503317 171.16219515 195.85048451 173.62744836 201 176 C197.6411622 179.27421592 195.21346436 180.51211134 190.48974609 180.60717773 C189.38107178 180.58506226 189.38107178 180.58506226 188.25 180.5625 C187.01950928 180.5471521 187.01950928 180.5471521 185.76416016 180.53149414 C174.22852011 180.16457389 162.84849738 178.02621442 151.4773407 176.18489075 C140.94212068 174.49021638 130.37642655 173.00302918 119.8125 171.5 C118.76781555 171.35082123 117.7231311 171.20164246 116.64678955 171.04794312 C101.06653809 168.824533 85.47608409 166.69253391 69.86645508 164.68554688 C61.27452252 163.57881269 52.69780002 162.39203608 44.12440491 161.14955139 C38.68246476 160.36659203 33.23662843 159.63588538 27.78152466 158.95071411 C24.15621361 158.49367695 20.53351386 158.01760077 16.91088867 157.53979492 C15.07306942 157.3020564 13.23414149 157.072757 11.39428711 156.85131836 C8.66955581 156.5211998 5.95043197 156.16007582 3.23046875 155.79296875 C2.41893845 155.70210495 1.60740814 155.61124115 0.77128601 155.5176239 C-5.34187651 154.6472182 -9.55726801 152.29916265 -14 148 C-19.42009218 140.58328963 -18.47382254 132.72179786 -17.23046875 123.99609375 C-16.88903443 121.80891548 -16.54109843 119.62274469 -16.1875 117.4375 C-14.75673192 108.22320123 -13.45528874 99.01214772 -12.375 89.75 C-12.25278076 88.70626221 -12.13056152 87.66252441 -12.00463867 86.5871582 C-11.77319663 84.6066552 -11.54213663 82.6261075 -11.31152344 80.64550781 C-10.35962136 72.56180023 -9.25521101 64.50759077 -7.9453125 56.47412109 C-6.41955229 47.11132468 -5.22116798 37.7384856 -4.13183594 28.31518555 C-3.01920324 18.83065232 -1.58247943 9.41631377 0 0 Z " fill="#D7C8B2" transform="translate(839,700)" data-index="3" style="opacity: 1;"></path>
<path d="M0 0 C1.12019531 -0.01160156 2.24039062 -0.02320313 3.39453125 -0.03515625 C24.86966887 0.03915218 43.43983466 8.55071507 59.5 22.375 C60.10457031 22.89449219 60.70914062 23.41398438 61.33203125 23.94921875 C75.82873864 37.42742211 85.78210695 57.49596707 86.62304688 77.26806641 C86.7060938 80.57525834 86.73481621 83.87933081 86.75 87.1875 C86.7809375 88.85522461 86.7809375 88.85522461 86.8125 90.55664062 C86.84725662 97.98152395 85.8670426 104.34324379 83.5 111.375 C83.16331299 112.39920044 83.16331299 112.39920044 82.81982422 113.4440918 C75.48282491 134.68467699 60.844847 151.55638487 41.140625 162.1875 C20.79024016 171.92452624 -2.81698829 175.26395477 -24.76953125 168.7578125 C-48.41811299 159.99174136 -67.36616695 143.9586347 -78.3125 121 C-87.19564944 101.22351654 -88.86161169 78.99635256 -81.5 58.375 C-71.91701816 33.20204652 -54.12252821 16.04893155 -30.12109375 4.6640625 C-20.13073378 1.10762368 -10.56309614 -0.10939915 0 0 Z " fill="#768D75" transform="translate(1072.5,711.625)" data-index="4" style="opacity: 1;"></path>
<path d="M0 0 C0.66 0 1.32 0 2 0 C1.92394531 1.24007813 1.84789062 2.48015625 1.76953125 3.7578125 C1.77550376 9.87605114 3.70056155 15.14674577 5.6875 20.875 C6.43179748 23.11605717 7.17266233 25.35825719 7.91015625 27.6015625 C8.27125488 28.69629883 8.63235352 29.79103516 9.00439453 30.91894531 C16.67772763 54.66525813 21.18474717 79.53900048 23.70751953 104.31933594 C23.96225523 106.65405881 24.27032918 108.96725595 24.62109375 111.2890625 C28.25169471 136.12031918 26.20119619 161.86745589 24.25 186.75 C24.17158875 187.78125 24.09317749 188.8125 24.01239014 189.875 C23.12337032 201.33926578 21.89486247 212.71666377 20.109375 224.078125 C19.96099182 225.07052185 19.81260864 226.0629187 19.659729 227.08538818 C18.63552433 233.21833054 17.39105912 239.48810436 12.1015625 243.40625 C6.60341407 244.95963023 0.74491931 245.03906036 -4.62109375 243.0078125 C-12.43787384 238.58038825 -22.22791381 231.83602474 -25 223 C-31.72505349 227.24872538 -38.40375316 231.55364102 -45 236 C-44.34 238.31 -43.68 240.62 -43 243 C-46.92795841 243.36873614 -50.2343647 243.23759476 -54 242 C-57.38564636 238.49302633 -59.38436945 234.393242 -61.5625 230.0625 C-62.20443275 228.85855155 -62.85022808 227.6566551 -63.49975586 226.45678711 C-64.78457039 224.07115157 -66.04805652 221.67622291 -67.29296875 219.26953125 C-69.08626461 215.83477465 -70.9722614 212.46767552 -72.89746094 209.10595703 C-77.23804576 201.4926513 -81.31045207 193.72532259 -85.37960815 185.96456909 C-86.27980807 184.24977497 -87.18581706 182.53803423 -88.09204102 180.82641602 C-96.27536699 165.10166232 -100.00065973 153.80841261 -95.9375 136.375 C-95.71344482 135.38628906 -95.48938965 134.39757812 -95.25854492 133.37890625 C-74.89298247 45.47596958 -74.89298247 45.47596958 -54 30 C-50.1688935 27.77836217 -46.21002227 25.91012736 -42.1875 24.0625 C-41.09107178 23.54381348 -39.99464355 23.02512695 -38.86499023 22.49072266 C-32.96873697 19.72847529 -27.03250105 17.18164049 -20.96777344 14.81616211 C-12.85624809 11.64219436 -7.47886414 8.63262881 -1.71484375 1.90625 C-1.14894531 1.2771875 -0.58304688 0.648125 0 0 Z " fill="#2D3845" transform="translate(530,269)" data-index="5" style="opacity: 1;"></path>
<path d="M0 0 C2.80674641 0.96231305 4.85383655 1.87533117 7.125 3.8125 C12.9864017 8.27226216 20.24706577 10.72443645 27.04296875 13.46484375 C28.05423828 13.87283203 29.06550781 14.28082031 30.10742188 14.70117188 C32.16956289 15.52890508 34.23471851 16.34916521 36.30273438 17.16210938 C52.325095 23.67151372 57.93854193 33.62414246 65.8125 48.5 C66.45680301 49.70963227 67.10125668 50.91918431 67.74584961 52.12866211 C74.02141804 63.93371223 80.13229617 75.82470405 86.21626282 87.72937012 C87.19764289 89.6426409 88.18795662 91.55106306 89.1796875 93.45898438 C90.34736718 95.7304471 91.4856699 98.01739471 92.5859375 100.32226562 C95.32394272 106.04069792 95.32394272 106.04069792 100.2421875 109.7734375 C101.44101562 109.97195313 102.63984375 110.17046875 103.875 110.375 C104.5462793 110.50181152 105.21755859 110.62862305 105.90917969 110.75927734 C107.41697555 111.04303848 108.9284337 111.30778958 110.44238281 111.55664062 C113.30072033 112.05212945 116.12606303 112.65009352 118.9609375 113.265625 C128.93967034 115.42724537 138.91683041 117.38624769 149 119 C149 120.32 149 121.64 149 123 C148 124 147 125 146 126 C143.83451798 131.04247957 143.75657604 135.50037426 143.875 140.875 C143.88402344 141.65875 143.89304687 142.4425 143.90234375 143.25 C143.92571937 145.16680055 143.96158347 147.08344191 144 149 C145.32 149.66 146.64 150.32 148 151 C146.83959961 153.46508789 146.83959961 153.46508789 145 156 C142.53344727 156.59936523 142.53344727 156.59936523 139.56640625 156.55859375 C138.45587891 156.55303467 137.34535156 156.54747559 136.20117188 156.54174805 C135.00041016 156.50734619 133.79964844 156.47294434 132.5625 156.4375 C131.32435547 156.41792236 130.08621094 156.39834473 128.81054688 156.37817383 C119.86434337 156.19019517 110.9291974 155.76312911 102 155.1875 C100.87537354 155.11781006 99.75074707 155.04812012 98.59204102 154.97631836 C85.60057982 154.00241816 75.37785151 152.07558257 66.46484375 142.1875 C62.01534573 137.01307456 57.84504971 131.63940624 54 126 C53.75104199 133.45490934 54.0709413 140.73625217 54.8125 148.1484375 C54.89990448 149.04438126 54.98730896 149.94032501 55.07736206 150.86341858 C55.84699314 158.66188878 56.67699864 166.45394814 57.5078125 174.24609375 C57.63920624 175.48233994 57.77059998 176.71858612 57.90597534 177.99229431 C58.72037601 185.65533919 58.72037601 185.65533919 59.54638672 193.31713867 C59.95698872 197.10526553 60.3581673 200.89429727 60.7578125 204.68359375 C60.88278107 205.81413681 61.00774963 206.94467987 61.13650513 208.10948181 C61.96748502 216.09523029 62.13509984 223.97411596 62 232 C52.75213981 236.68448156 43.42773646 238.45162615 33 237 C24.67337979 229.99806937 25.99715892 210.61024207 25.0625 200.3125 C24.88713838 198.41662781 24.71135138 196.52079491 24.53515625 194.625 C24.18294802 190.83043191 23.8331327 187.03565413 23.48486328 183.24072266 C23.07486779 178.78800893 22.64918143 174.33712273 22.21484375 169.88671875 C21.07190151 158.11727292 20.01198846 146.34818193 19.1015625 134.55859375 C16.50086421 65.92456228 16.50086421 65.92456228 0 0 Z " fill="#2E3946" transform="translate(579,274)" data-index="6" style="opacity: 1;"></path>
<path d="M0 0 C1.79158489 -0.02696365 3.58328473 -0.04637917 5.375 -0.0625 C6.37273437 -0.07410156 7.37046875 -0.08570313 8.3984375 -0.09765625 C11 0 11 0 13 1 C12.67 6.61 12.34 12.22 12 18 C13.299375 18.37125 14.59875 18.7425 15.9375 19.125 C25.41328981 22.32326501 33.78176861 28.50484608 38.28515625 37.59375 C40.57554427 43.17605772 42.14290804 48.12562751 42.125 54.1875 C42.12886719 55.50814453 42.12886719 55.50814453 42.1328125 56.85546875 C42 59 42 59 41 60 C34.66603732 60.33967623 28.21436909 60.3509498 22 59 C19.59608072 56.59608072 19.60963906 55.48601277 19.125 52.1875 C18.29135881 47.7647471 17.40398032 45.12798192 14 42 C11.71598433 40.51170592 9.42622723 39.25977183 7 38 C6.95174072 38.58483154 6.90348145 39.16966309 6.85375977 39.7722168 C6.14985431 47.56561955 4.79128887 55.18313268 3.37304688 62.87304688 C3.19708984 63.84951172 3.02113281 64.82597656 2.83984375 65.83203125 C2.67863037 66.70577393 2.51741699 67.5795166 2.35131836 68.47973633 C1.99706362 71.02106482 1.93821958 73.43769295 2 76 C3.05058594 76.54527344 4.10117187 77.09054687 5.18359375 77.65234375 C16.81908875 83.83603963 26.23978501 90.17203608 31.97265625 102.54296875 C35.75336413 115.26512263 32.65373736 127.65066579 26.68359375 139.1328125 C21.84227713 147.37765333 14.80725532 151.54207894 6 155 C1.66929286 155.97196482 -2.44519534 156.10770209 -6.875 156.0625 C-8.02742187 156.05347656 -9.17984375 156.04445313 -10.3671875 156.03515625 C-11.23601563 156.02355469 -12.10484375 156.01195312 -13 156 C-13.04898438 156.81984375 -13.09796875 157.6396875 -13.1484375 158.484375 C-13.22320313 159.56203125 -13.29796875 160.6396875 -13.375 161.75 C-13.47941406 163.35101562 -13.47941406 163.35101562 -13.5859375 164.984375 C-13.9728223 167.80206432 -14.55686166 169.5830366 -16 172 C-17.81293089 171.85962479 -19.6253443 171.71255111 -21.4375 171.5625 C-22.95150391 171.44068359 -22.95150391 171.44068359 -24.49609375 171.31640625 C-27 171 -27 171 -28 170 C-28.42564759 164.27879563 -27.82264831 158.65570712 -27 153 C-27.9075 152.979375 -28.815 152.95875 -29.75 152.9375 C-38.83493045 151.59226689 -46.73574699 145.17194912 -52.37890625 138.26171875 C-59.01268889 129.00639309 -59.92774455 119.24300595 -59 108 C-57 106 -57 106 -55.15234375 105.92480469 C-54.42144531 106.00633789 -53.69054687 106.08787109 -52.9375 106.171875 C-52.14085937 106.25953125 -51.34421875 106.3471875 -50.5234375 106.4375 C-49.69070313 106.540625 -48.85796875 106.64375 -48 106.75 C-47.16726563 106.83765625 -46.33453125 106.9253125 -45.4765625 107.015625 C-39.26013049 107.73986951 -39.26013049 107.73986951 -37 110 C-36.64064783 111.90513689 -36.3595769 113.82551196 -36.125 115.75 C-35.08716171 122.42409852 -33.428356 126.16634343 -27.9375 130.3125 C-25.07863885 132.08398678 -25.07863885 132.08398678 -22 133 C-20.51958922 125.03706369 -19.16092232 117.05903173 -17.875 109.0625 C-17.69324219 107.95326172 -17.51148438 106.84402344 -17.32421875 105.70117188 C-17.15277344 104.63576172 -16.98132813 103.57035156 -16.8046875 102.47265625 C-16.64983887 101.51625244 -16.49499023 100.55984863 -16.33544922 99.57446289 C-15.91386232 96.77162573 -15.91386232 96.77162573 -16 93 C-17.34191406 92.29037109 -17.34191406 92.29037109 -18.7109375 91.56640625 C-31.6154701 84.58159751 -41.20111292 77.39666124 -46 63 C-46.86545665 50.62822625 -45.91042963 39.88584605 -37.7578125 29.91015625 C-30.58756852 22.11849112 -22.90504796 15.890208 -12 15 C-8.66463302 14.93460065 -5.33536939 14.94067525 -2 15 C-1.90912109 13.75283203 -1.90912109 13.75283203 -1.81640625 12.48046875 C-1.73261719 11.39378906 -1.64882813 10.30710937 -1.5625 9.1875 C-1.48128906 8.10855469 -1.40007813 7.02960938 -1.31640625 5.91796875 C-1 3 -1 3 0 0 Z " fill="#7B8E77" transform="translate(982,490)" data-index="7" style="opacity: 1;"></path>
<path d="M0 0 C1.18493042 -0.02102783 1.18493042 -0.02102783 2.39379883 -0.04248047 C3.10342773 -0.05706299 3.81305664 -0.07164551 4.54418945 -0.08666992 C7.82625897 0.17099011 10.579792 1.72577882 13.55004883 3.07080078 C16.68877461 3.378519 18.67286531 3.52354066 21.48754883 2.07080078 C24.69347985 0.51640998 27.03728484 0.64684651 30.55004883 1.07080078 C33.52244124 2.85556319 35.9760891 4.92288133 37.55004883 8.07080078 C38.15486465 13.88633752 37.5883086 17.96652437 34.55004883 23.07080078 C33.28439612 26.86775889 33.91276972 29.59883646 34.49145508 33.50048828 C34.55004883 36.07080078 34.55004883 36.07080078 33.58911133 38.35986328 C32.14358452 42.13127533 32.29691136 45.57036979 32.36254883 49.57080078 C32.36319336 50.31716797 32.36383789 51.06353516 32.36450195 51.83251953 C32.38816586 54.80365488 32.44247145 57.56494074 33.06176758 60.47705078 C34.57019804 68.48983339 33.24480362 76.52121294 31.80004883 84.44580078 C31.6427832 85.41646484 31.48551758 86.38712891 31.32348633 87.38720703 C29.76055511 96.10355423 29.76055511 96.10355423 25.55004883 99.07080078 C23.02529421 100.33317809 21.23804417 100.16936482 18.42504883 100.13330078 C17.05993164 100.11976563 17.05993164 100.11976563 15.66723633 100.10595703 C14.61922852 100.08855469 14.61922852 100.08855469 13.55004883 100.07080078 C13.60225586 101.97152344 13.60225586 101.97152344 13.65551758 103.91064453 C13.6836812 105.60984989 13.71097857 107.30906976 13.73754883 109.00830078 C13.76268555 109.83910156 13.78782227 110.66990234 13.8137207 111.52587891 C13.9164574 120.32698958 10.97337902 127.08303034 7.55004883 135.07080078 C6.50090915 138.05533969 5.51345569 141.05759209 4.55004883 144.07080078 C2.46391139 141.41846874 0.85417638 138.81021171 -0.64526367 135.79345703 C-3.41660304 130.72855969 -7.0146989 127.28279273 -11.32495117 123.50830078 C-28.08491192 108.5700749 -28.08491192 108.5700749 -28.67700195 102.89428711 C-28.66652832 102.07210693 -28.65605469 101.24992676 -28.64526367 100.40283203 C-28.63881836 99.51015625 -28.63237305 98.61748047 -28.62573242 97.69775391 C-28.60897461 96.76898438 -28.5922168 95.84021484 -28.57495117 94.88330078 C-28.56592773 93.94292969 -28.5569043 93.00255859 -28.54760742 92.03369141 C-28.52404173 89.7124711 -28.49114233 87.39176435 -28.44995117 85.07080078 C-29.04686768 84.81878906 -29.64378418 84.56677734 -30.25878906 84.30712891 C-32.73857098 82.90795167 -33.84712097 81.58642517 -35.50854492 79.28955078 C-36.05728271 78.53440186 -36.60602051 77.77925293 -37.17138672 77.0012207 C-37.73768799 76.19918213 -38.30398926 75.39714355 -38.88745117 74.57080078 C-39.46857666 73.75651611 -40.04970215 72.94223145 -40.6484375 72.10327148 C-44.47195947 66.66670964 -47.93442516 61.247421 -50.44995117 55.07080078 C-50.81217773 54.30638672 -51.1744043 53.54197266 -51.54760742 52.75439453 C-52.67999567 49.38664247 -52.71501527 46.49339701 -52.69995117 42.94580078 C-52.70510742 41.72634766 -52.71026367 40.50689453 -52.71557617 39.25048828 C-52.44995117 36.07080078 -52.44995117 36.07080078 -50.44995117 33.07080078 C-50.15664346 31.62055711 -49.90989897 30.16043658 -49.69995117 28.69580078 C-48.99885234 25.30071591 -48.28883396 23.40494588 -45.63745117 21.13330078 C-42.44995117 19.07080078 -42.44995117 19.07080078 -39.88745117 18.25830078 C-36.53211442 16.62364954 -35.59657546 14.26591518 -33.76245117 11.10205078 C-30.58726597 6.18807369 -25.77465137 3.29974505 -20.44995117 1.07080078 C-17.51599163 0.58882093 -14.60654628 0.47055379 -11.63745117 0.38330078 C-10.88141602 0.34914062 -10.12538086 0.31498047 -9.34643555 0.27978516 C-6.23171689 0.14967329 -3.11602273 0.09004949 0 0 Z " fill="#EDAC74" transform="translate(563.449951171875,164.92919921875)" data-index="8"></path>

<path d="M0 0 C2.31 0 4.62 0 7 0 C7 0.33 7 0.66 7 1 C5.02 1 3.04 1 1 1 C1 3.31 1 5.62 1 8 C1.66 8.33 2.32 8.66 3 9 C3.91052477 11.24776412 4.70117999 13.44497365 5.4375 15.75 C5.65776855 16.43175293 5.87803711 17.11350586 6.10498047 17.81591797 C12.84355512 39.09119739 14.55374251 61.65296409 16.875 83.75 C17.0647641 85.54603668 17.0647641 85.54603668 17.25836182 87.37835693 C19.37551414 107.55830252 21.14420309 127.7576071 22.70926666 147.98719788 C22.87348556 150.10546518 23.03959781 152.22357752 23.20599365 154.3416748 C25.15539038 179.2774336 25.15539038 179.2774336 25.3828125 188.9921875 C25.41004395 190.04519043 25.43727539 191.09819336 25.46533203 192.18310547 C24.84573237 195.93386145 23.41036409 198.09053881 21 201 C18.24130799 201.97203079 15.69040217 202.12250124 12.78222656 202.11352539 C11.96167786 202.11344986 11.14112915 202.11337433 10.29571533 202.11329651 C9.41953552 202.10813522 8.54335571 202.10297394 7.640625 202.09765625 C6.28405792 202.09553383 6.28405792 202.09553383 4.90008545 202.09336853 C2.01668973 202.08777911 -0.86662782 202.07522853 -3.75 202.0625 C-5.70703013 202.05748363 -7.66406147 202.05292096 -9.62109375 202.04882812 C-14.41409253 202.03781313 -19.20703302 202.02055574 -24 202 C-24.11426599 195.48604497 -23.90540205 189.10453023 -23.2878418 182.61987305 C-20.68965109 155.02263627 -21.23518737 127.45624068 -25 100 C-25.11214844 99.17016602 -25.22429688 98.34033203 -25.33984375 97.48535156 C-26.06755191 92.29032387 -26.99831686 87.14843592 -28 82 C-28.19964355 80.9490918 -28.39928711 79.89818359 -28.60498047 78.81542969 C-32.16837389 60.20918515 -36.77639322 42.16674252 -42.5546875 24.1328125 C-42.78986084 23.39522705 -43.02503418 22.6576416 -43.26733398 21.89770508 C-43.88480639 19.97645487 -44.51785776 18.0602301 -45.15234375 16.14453125 C-46.81540947 9.9750939 -45.62920751 6.58706596 -43 1 C-42.5978125 1.86238281 -42.5978125 1.86238281 -42.1875 2.7421875 C-37.08429531 12.44499116 -28.2803592 20.61384111 -19.8125 27.375 C-14.80879512 31.60420066 -12.0096666 37.27222826 -9 43 C-8.61908203 41.69675781 -8.61908203 41.69675781 -8.23046875 40.3671875 C-7.88628906 39.21476562 -7.54210937 38.06234375 -7.1875 36.875 C-6.85105469 35.73804688 -6.51460937 34.60109375 -6.16796875 33.4296875 C-5 30 -5 30 -3.42578125 26.8828125 C-0.62981184 21.22959216 -0.71940306 15.38474597 -0.4375 9.1875 C-0.37272461 7.86202148 -0.37272461 7.86202148 -0.30664062 6.50976562 C-0.20108464 4.34000377 -0.10008929 2.1700209 0 0 Z " fill="#F4F3F1" transform="translate(577,265)" data-index="10" style="opacity: 1;"></path>
<path d="M0 0 C1.18493042 -0.02102783 1.18493042 -0.02102783 2.39379883 -0.04248047 C3.10342773 -0.05706299 3.81305664 -0.07164551 4.54418945 -0.08666992 C7.82625897 0.17099011 10.579792 1.72577882 13.55004883 3.07080078 C16.68877461 3.378519 18.67286531 3.52354066 21.48754883 2.07080078 C24.69347985 0.51640998 27.03728484 0.64684651 30.55004883 1.07080078 C33.52244124 2.85556319 35.9760891 4.92288133 37.55004883 8.07080078 C38.15486465 13.88633752 37.5883086 17.96652437 34.55004883 23.07080078 C33.47992563 26.28117037 33.66321783 27.61661472 34.17504883 30.88330078 C34.72032389 35.48111396 34.15335877 38.11376967 31.55004883 42.07080078 C29.61066064 39.1617185 28.58229925 36.66217699 27.42504883 33.38330078 C27.0718457 32.38943359 26.71864258 31.39556641 26.35473633 30.37158203 C25.95641602 29.23269531 25.95641602 29.23269531 25.55004883 28.07080078 C22.5379057 28.50110694 19.81818902 28.96623018 16.97583008 30.07470703 C12.42642898 31.39750895 8.07774423 31.49331308 3.36254883 31.63330078 C1.57725999 31.69327832 -0.20791048 31.75692186 -1.99291992 31.82470703 C-2.77691162 31.84863525 -3.56090332 31.87256348 -4.36865234 31.8972168 C-6.64494915 32.00453036 -6.64494915 32.00453036 -9.44995117 33.07080078 C-9.11995117 33.73080078 -8.78995117 34.39080078 -8.44995117 35.07080078 C-7.20621226 38.80201752 -6.81394779 42.2017802 -7.44995117 46.07080078 C-9.19630915 49.21424513 -10.91857843 51.53942804 -13.44995117 54.07080078 C-13.91001463 56.27331071 -13.91001463 56.27331071 -14.07495117 58.69580078 C-14.1497168 59.51306641 -14.22448242 60.33033203 -14.30151367 61.17236328 C-14.35049805 61.79884766 -14.39948242 62.42533203 -14.44995117 63.07080078 C-16.69995117 63.44580078 -16.69995117 63.44580078 -19.44995117 63.07080078 C-21.69995117 60.13330078 -21.69995117 60.13330078 -23.44995117 57.07080078 C-24.55523559 55.751119 -24.55523559 55.751119 -27.32495117 55.82080078 C-30.34196285 55.85316278 -30.34196285 55.85316278 -32.32495117 57.07080078 C-34.15422052 60.32283519 -34.040409 63.49525063 -33.44995117 67.07080078 C-31.6834266 71.86700996 -29.10967477 74.87037575 -24.44995117 77.07080078 C-25.10995117 80.04080078 -25.76995117 83.01080078 -26.44995117 86.07080078 C-31.18181701 84.70082897 -33.45110752 82.1079726 -36.26245117 78.25830078 C-36.69114502 77.68442627 -37.11983887 77.11055176 -37.56152344 76.51928711 C-47.12713621 63.51295938 -54.07870221 52.71790559 -52.44995117 36.07080078 C-51.78995117 35.08080078 -51.12995117 34.09080078 -50.44995117 33.07080078 C-50.15664346 31.62055711 -49.90989897 30.16043658 -49.69995117 28.69580078 C-48.99885234 25.30071591 -48.28883396 23.40494588 -45.63745117 21.13330078 C-42.44995117 19.07080078 -42.44995117 19.07080078 -39.88745117 18.25830078 C-36.53211442 16.62364954 -35.59657546 14.26591518 -33.76245117 11.10205078 C-30.58726597 6.18807369 -25.77465137 3.29974505 -20.44995117 1.07080078 C-17.51599163 0.58882093 -14.60654628 0.47055379 -11.63745117 0.38330078 C-10.88141602 0.34914062 -10.12538086 0.31498047 -9.34643555 0.27978516 C-6.23171689 0.14967329 -3.11602273 0.09004949 0 0 Z " fill="#282F38" transform="translate(563.449951171875,164.92919921875)" data-index="11"></path>
<path d="M0 0 C4.75873771 1.92885722 7.93112135 4.95719156 11.5625 8.5 C13.18580692 12.45239946 12.94856338 14.65297503 12.6875 18.875 C12.46890851 24.08698938 12.46890851 24.08698938 14.84765625 28.546875 C17.14618058 30.53519198 19.51058644 32.26070774 22 34 C22.65484375 34.66773438 23.3096875 35.33546875 23.984375 36.0234375 C26.90042806 38.8829779 29.04619082 40.867737 33.27929688 41.15429688 C36.11364732 41.10611501 38.9220889 40.94673426 41.75 40.75 C42.78785645 40.69207275 43.82571289 40.63414551 44.89501953 40.57446289 C49.31062134 40.32301037 53.72207144 40.02416195 58.1328125 39.69921875 C67.37546596 39.05281188 76.6077605 38.83661775 85.87017822 38.76882935 C87.36058564 38.7563834 88.85096068 38.73895395 90.34124756 38.71627808 C92.45947357 38.68609587 94.57689419 38.67646326 96.6953125 38.671875 C98.5518042 38.65785645 98.5518042 38.65785645 100.44580078 38.64355469 C104.58430388 39.05859896 107.28160844 40.19240712 111 42 C110.67 42.99 110.34 43.98 110 45 C99.06457655 47.2105297 88.08596472 48.90924911 77.04638672 50.50976562 C67.99582523 51.82982499 58.99133414 53.32601395 50 55 C52.39562274 56.83360902 54.79148089 58.66690902 57.1875 60.5 C57.939104 61.07516357 58.69070801 61.65032715 59.46508789 62.24291992 C63.78925428 65.55030976 68.11796298 68.85156436 72.453125 72.14453125 C73.82174683 73.18480469 73.82174683 73.18480469 75.21801758 74.24609375 C76.98268644 75.58698227 78.74810468 76.92688535 80.5144043 78.265625 C98.12779985 91.65406441 98.12779985 91.65406441 101 95 C101.14453125 97.5234375 101.14453125 97.5234375 100.8125 100.375 C100.71582031 101.31085938 100.61914062 102.24671875 100.51953125 103.2109375 C99.99680986 106.01712604 99.15096006 108.39494636 98 111 C97.67 111 97.34 111 97 111 C96.79325056 105.21101581 97.40837921 100.57067277 99 95 C98.44054687 95.00902344 97.88109375 95.01804687 97.3046875 95.02734375 C81.98233112 94.46076144 68.19078853 82.84481776 55.81152344 74.81640625 C51.37390198 71.94944692 46.90651321 69.13017806 42.4375 66.3125 C41.26924683 65.57350464 41.26924683 65.57350464 40.07739258 64.81958008 C38.65820531 63.92302811 37.23621446 63.0308907 35.81079102 62.14428711 C34.32509487 61.20543612 32.87214343 60.21495698 31.4296875 59.2109375 C28.15737997 57.58004468 25.32322457 57.48239367 21.6875 57.3125 C20.43324219 57.24675781 19.17898438 57.18101562 17.88671875 57.11328125 C16.93410156 57.07589844 15.98148438 57.03851563 15 57 C14.67 57.99 14.34 58.98 14 60 C12.01432292 60.22786458 10.02864583 60.45572917 8.04296875 60.68359375 C5.80603607 60.97170735 5.80603607 60.97170735 3 62 C2.31974363 63.99541868 1.65509503 65.99617991 1 68 C-1.54757708 71.77744188 -3.92939792 73.9761012 -8 76 C-14.32689435 76.90708163 -20.96841059 77.17734033 -26.625 73.875 C-30.4983332 70.89934918 -33.60904679 67.83190464 -34.3046875 62.79296875 C-34.43446838 58.44530915 -34.02729047 54.92787529 -32 51 C-29.625 51.3125 -29.625 51.3125 -27 52 C-26.34 52.99 -25.68 53.98 -25 55 C-25.66 55.99 -26.32 56.98 -27 58 C-26.92211578 61.66055823 -26.40248901 63.49018059 -24.125 66.375 C-19.56753033 68.74488423 -15.04383362 68.83437486 -10 68 C-7.47701862 66.60166964 -6.25222301 65.86277662 -5.43359375 63.0625 C-5.43763814 60.92706125 -5.47482565 59.07465571 -6 57 C-8.39056942 55.0645852 -8.39056942 55.0645852 -11 54 C-11 53.34 -11 52.68 -11 52 C-9.515 51.505 -9.515 51.505 -8 51 C-7.67 50.34 -7.34 49.68 -7 49 C-5.515 49.2475 -5.515 49.2475 -4 49.5 C4.41622305 50.64460633 10.92548011 49.49360173 19 47 C15.3453962 40.18914747 9.4224206 35.53797306 2.11328125 32.99609375 C0.23995085 32.50795445 -1.6404112 32.04586916 -3.52734375 31.61328125 C-6.61612156 30.84718628 -9.20242308 29.49637835 -12 28 C-13.03125 27.690625 -14.0625 27.38125 -15.125 27.0625 C-18.31381861 25.88402356 -19.86975885 24.62183526 -22 22 C-22 21.34 -22 20.68 -22 20 C-15.60527675 19.65877959 -11.75823534 20.05962451 -6 23 C-2.96465371 23.40333392 -0.01025289 23.61409159 3 23 C5.33984442 20.12351775 5.33984442 20.12351775 4.875 16.5625 C3.9146977 12.65269776 3.17641643 11.38231232 0 9 C-3.73649801 7.0334221 -6.80031486 6.63480999 -11 7 C-11.99 7.66 -12.98 8.32 -14 9 C-16.04296875 9.1953125 -16.04296875 9.1953125 -18.1875 9.125 C-20.0746875 9.063125 -20.0746875 9.063125 -22 9 C-21.66032174 5.82966958 -21.00130809 5.00117393 -18.5625 2.8125 C-12.86476594 -1.21760458 -6.79392189 -0.76788138 0 0 Z " fill="#686C74" transform="translate(777,381)" data-index="12"></path>
<path d="M0 0 C8.39865653 -0.6460505 8.39865653 -0.6460505 12.16796875 2.328125 C13.66578851 4.04676011 15.11011584 5.81315896 16.50390625 7.6171875 C23.8952703 16.85316771 33.62878193 20.98597585 44.4453125 24.80859375 C57.39984587 29.45380965 57.39984587 29.45380965 59.7421875 34.4140625 C60.25772867 37.0948766 60.51469929 39.68420403 60.7421875 42.4140625 C53.13842201 47.48323949 43.54040232 46.76366409 34.7421875 46.7265625 C33.44490723 46.72454834 32.14762695 46.72253418 30.81103516 46.72045898 C22.63605929 46.63510066 15.25912797 45.87826673 7.27734375 44.140625 C-0.02987098 42.75905918 -7.58385695 42.91500866 -14.99658203 42.79321289 C-16.10759277 42.7699292 -17.21860352 42.74664551 -18.36328125 42.72265625 C-19.35481201 42.71032959 -20.34634277 42.69800293 -21.36791992 42.68530273 C-24.62365875 42.37972481 -27.25701029 41.71527125 -30.2578125 40.4140625 C-34.22177175 28.52218476 -30.55415604 14.06379067 -27.2578125 2.4140625 C-25.68108442 0.83733442 -24.02906221 1.19465639 -21.83984375 1.09765625 C-20.46252075 1.03348511 -20.46252075 1.03348511 -19.05737305 0.96801758 C-15.0468422 0.81166096 -11.03571863 0.67492785 -7.02441406 0.54003906 C-4.66662318 0.4326776 -2.34612213 0.24738414 0 0 Z " fill="#4B392C" transform="translate(613.2578125,834.5859375)" data-index="13"></path>
<path d="M0 0 C9.54587154 4.47406124 14.88365612 12.66588631 18.640625 22.1796875 C23.49879703 35.79286918 23.24549645 51.55210158 18.74609375 65.27734375 C15.79778609 66.75149758 13.58211122 66.00885039 10.33203125 65.5703125 C9.68912643 65.48540054 9.04622162 65.40048859 8.38383484 65.31300354 C6.29545338 65.03595106 4.20832548 64.75041689 2.12109375 64.46484375 C0.70117617 64.27507403 -0.7188273 64.08594577 -2.13891602 63.89746094 C-4.92156099 63.52769221 -7.70383164 63.1552897 -10.48583984 62.78076172 C-15.0513354 62.17080631 -19.61992871 61.59043333 -24.19140625 61.02734375 C-25.39667969 60.8778125 -26.60195313 60.72828125 -27.84375 60.57421875 C-28.63910156 60.47625 -29.43445313 60.37828125 -30.25390625 60.27734375 C-32.22533546 53.69808991 -32.5574281 47.68618098 -32.50390625 40.83984375 C-32.51164063 39.85435547 -32.519375 38.86886719 -32.52734375 37.85351562 C-32.49673517 26.30643018 -30.21781606 14.88352078 -22.22265625 6.02734375 C-15.51673096 0.02203752 -9.02867412 -2.89480886 0 0 Z " fill="#FBFBFB" transform="translate(1016.25390625,312.72265625)" data-index="14"></path>
<path d="M0 0 C4.1387204 0.88166403 6.41598693 2.50934056 9.09375 5.72265625 C10.58403237 9.3655687 10.14572349 11.69345664 9.21875 15.47265625 C6.83504091 17.85636534 6.2250901 17.76854227 2.96875 17.78515625 C-1.35766594 17.70261731 -3.92429987 16.44048795 -7.78125 14.47265625 C-11.1040912 13.93137895 -14.42160598 13.66520502 -17.78125 13.47265625 C-13.81879248 19.22461071 -10.40358364 20.6930389 -3.78125 22.47265625 C-0.76475645 23.42602963 2.22885545 24.43918069 5.21875 25.47265625 C6.353125 25.86453125 7.4875 26.25640625 8.65625 26.66015625 C13.74372226 29.24851933 21.03184861 33.0823488 23.0078125 38.7265625 C23.11222656 39.59087891 23.11222656 39.59087891 23.21875 40.47265625 C13.73134238 44.37923586 7.08964283 45.76295386 -2.78125 42.47265625 C-3.11125 43.46265625 -3.44125 44.45265625 -3.78125 45.47265625 C-4.77125 45.47265625 -5.76125 45.47265625 -6.78125 45.47265625 C-6.78125 46.13265625 -6.78125 46.79265625 -6.78125 47.47265625 C-5.976875 47.78203125 -5.1725 48.09140625 -4.34375 48.41015625 C-1.78125 49.47265625 -1.78125 49.47265625 -0.78125 50.47265625 C-0.08836797 57.5169569 -0.08836797 57.5169569 -2.59375 60.97265625 C-7.34003106 63.20620028 -11.63189529 63.33967791 -16.78125 62.47265625 C-19.70547126 61.13830286 -20.64860235 60.05428235 -22.78125 57.47265625 C-23.88273933 54.09934518 -24.14852764 52.40309294 -22.84375 49.09765625 C-22.493125 48.56140625 -22.1425 48.02515625 -21.78125 47.47265625 C-23.76125 46.48265625 -25.74125 45.49265625 -27.78125 44.47265625 C-28.11125 46.12265625 -28.44125 47.77265625 -28.78125 49.47265625 C-33.36694153 46.11378609 -37.75560736 42.72340706 -41.84765625 38.76953125 C-44.62245064 36.90845703 -47.56622961 36.28310134 -50.78125 35.47265625 C-51.519291 17.61616422 -51.519291 17.61616422 -46.78125 9.47265625 C-46.12125 9.47265625 -45.46125 9.47265625 -44.78125 9.47265625 C-44.45125 8.48265625 -44.12125 7.49265625 -43.78125 6.47265625 C-43.78125 7.46265625 -43.78125 8.45265625 -43.78125 9.47265625 C-40.76796925 8.65825605 -38.15174856 7.71450948 -35.53125 6.00390625 C-28.68737778 1.58042787 -23.46526894 0.91787981 -15.53198242 1.34326172 C-9.57180871 1.66225115 -6.05202592 -0.85475041 0 0 Z " fill="#E8A770" transform="translate(772.78125,387.52734375)" data-index="15"></path>
<path d="M0 0 C10.89 0 21.78 0 33 0 C33.99 4.29 34.98 8.58 36 13 C36.78566945 15.63965773 37.61027852 18.26857234 38.5 20.875 C38.9021875 22.06867187 39.304375 23.26234375 39.71875 24.4921875 C40.96130079 28.04693216 40.96130079 28.04693216 42.64453125 31.54296875 C44.05782878 35.1474884 44.31691826 37.59809174 44.1875 41.4375 C44.14689453 43.01337891 44.14689453 43.01337891 44.10546875 44.62109375 C44.07066406 45.40613281 44.03585937 46.19117188 44 47 C37.02099084 51.1874055 28.08176065 50.18304 20.25 50.1875 C19.13367188 50.19974609 18.01734375 50.21199219 16.8671875 50.22460938 C-0.61723518 50.25517655 -0.61723518 50.25517655 -7 46 C-7.36328125 43.05859375 -7.36328125 43.05859375 -7.3125 39.4375 C-7.30863281 38.26058594 -7.30476563 37.08367188 -7.30078125 35.87109375 C-7.01612699 32.20755651 -6.37675534 28.91714368 -5.52807617 25.3581543 C-4.44348503 20.51485062 -3.83701671 15.57809655 -3.14453125 10.66601562 C-3.02464844 9.86228516 -2.90476562 9.05855469 -2.78125 8.23046875 C-2.67876953 7.51270264 -2.57628906 6.79493652 -2.47070312 6.05541992 C-2 4 -2 4 0 0 Z " fill="#503B2C" transform="translate(475,838)" data-index="16"></path>
<path d="M0 0 C3 0.25 3 0.25 5 2.25 C5.2784729 5.22390747 5.2784729 5.22390747 5.31884766 9.08642578 C5.32889328 9.78897491 5.3389389 10.49152405 5.34928894 11.21536255 C5.38022731 13.54200406 5.39718527 15.86852996 5.4140625 18.1953125 C5.43276562 19.80672203 5.45233839 21.41812168 5.4727478 23.0295105 C5.52416562 27.2742125 5.56373948 31.5189463 5.60089111 35.76379395 C5.64087047 40.093912 5.6919904 44.42389673 5.7421875 48.75390625 C5.83906096 57.25251323 5.92342895 65.75118597 6 74.25 C7.74534993 72.35077077 9.49004375 70.45094572 11.234375 68.55078125 C11.72341309 68.01876099 12.21245117 67.48674072 12.71630859 66.93859863 C14.95471439 64.49933422 17.17610113 62.05050589 19.3671875 59.56835938 C21.15670429 57.54308674 22.77995494 55.79377083 25 54.25 C29 54.25 29 54.25 32 55.25 C32.47848689 59.23148347 32.308658 60.82810992 29.90234375 64.1171875 C28.92879275 65.13410117 27.93931358 66.13591734 26.9375 67.125 C25.84479642 68.25365878 24.75236177 69.38257798 23.66015625 70.51171875 C23.07250488 71.10903809 22.48485352 71.70635742 21.87939453 72.32177734 C18.48515648 75.80420033 15.18974583 79.37964334 11.875 82.9375 C10.60249931 84.29645074 9.3291263 85.65458543 8.0546875 87.01171875 C7.51312012 87.58881592 6.97155273 88.16591309 6.41357422 88.76049805 C3.1268668 92.22374537 3.1268668 92.22374537 0.30078125 92.80859375 C-4.64426731 91.97173938 -6.64394653 89.01440909 -9.8125 85.3125 C-11.04688415 83.92723223 -12.2825596 82.54311401 -13.51953125 81.16015625 C-14.11459473 80.4861377 -14.7096582 79.81211914 -15.32275391 79.11767578 C-17.46139967 76.73621434 -19.71003125 74.48553826 -22 72.25 C-31.8455821 62.44122382 -31.8455821 62.44122382 -32.4375 57.875 C-32 55.25 -32 55.25 -31 54.25 C-27.35518129 53.82536093 -25.59691645 53.82072971 -22.57470703 55.99414062 C-21.42784424 57.18813477 -21.42784424 57.18813477 -20.2578125 58.40625 C-19.41992188 59.26347656 -18.58203125 60.12070312 -17.71875 61.00390625 C-16.8628125 61.91011719 -16.006875 62.81632813 -15.125 63.75 C-14.24585938 64.65621094 -13.36671875 65.56242188 -12.4609375 66.49609375 C-10.29319755 68.73452087 -8.14066925 70.98572089 -6 73.25 C-5.99191315 72.36494781 -5.98382629 71.47989563 -5.97549438 70.56802368 C-5.8976485 62.23918189 -5.81038849 53.91050394 -5.71247292 45.58187294 C-5.66246419 41.29973229 -5.61613478 37.01761686 -5.578125 32.73535156 C-5.5413297 28.60499783 -5.4949859 24.47485282 -5.44193649 20.34467697 C-5.42336181 18.766612 -5.40826528 17.18850223 -5.39665604 15.61037064 C-5.37984573 13.40490457 -5.35082465 11.19991977 -5.31884766 8.99462891 C-5.30552399 7.73776276 -5.29220032 6.48089661 -5.2784729 5.1859436 C-4.8909794 1.10059432 -4.08555116 0.3404626 0 0 Z " fill="#F2F2EF" transform="translate(1073,750.75)" data-index="17"></path>
<path d="M0 0 C9.18297356 6.30733651 15.24141171 19.0716367 17.66455078 29.76318359 C18.36402321 34.42735128 18.28540498 39.10658796 18.25 43.8125 C18.26160156 45.33713867 18.26160156 45.33713867 18.2734375 46.89257812 C18.25228628 55.18914452 17.06520961 62.97700875 15 71 C12.03 70.01 12.03 70.01 9 69 C9.14183696 67.24967156 9.28863429 65.49974466 9.4375 63.75 C9.51871094 62.77546875 9.59992188 61.8009375 9.68359375 60.796875 C10 58 10 58 10.515625 56.09375 C13.42462816 43.51934923 10.5414126 27.93005371 4.375 16.75 C3.58810869 15.49698836 2.79681824 14.24672242 2 13 C1.55527344 11.95585937 1.55527344 11.95585937 1.1015625 10.890625 C-0.28223256 8.51560086 -1.49700836 8.05144259 -4 7 C-4.59039063 6.64679688 -5.18078125 6.29359375 -5.7890625 5.9296875 C-11.11688417 2.86902399 -15.90992169 1.78198434 -22 3 C-29.90395624 6.37286378 -34.45897436 12.52932127 -37.99609375 20.14453125 C-45.66301247 39.33016996 -41.07256304 62.86638711 -33.6015625 81.33984375 C-30.32133196 89.37780824 -30.32133196 89.37780824 -24.06640625 94.98046875 C-21.95577246 95.66669224 -21.95577246 95.66669224 -19 96 C-18.875 98.375 -18.875 98.375 -19 101 C-21 103 -21 103 -24.1875 103.0625 C-30.03317481 101.43337751 -32.93179698 98.46095526 -36.03759766 93.26367188 C-40.33976072 85.52251237 -43.97683092 77.64567585 -46 69 C-46.27585937 68.03964844 -46.55171875 67.07929688 -46.8359375 66.08984375 C-51.59720565 47.76551358 -50.72416288 27.65795995 -41.79296875 10.83203125 C-31.58786676 -5.28713856 -16.56589538 -9.29250364 0 0 Z " fill="#353E49" transform="translate(1026,310)" data-index="18"></path>
<path d="M0 0 C4.1387204 0.88166403 6.41598693 2.50934056 9.09375 5.72265625 C10.58403237 9.3655687 10.14572349 11.69345664 9.21875 15.47265625 C6.83504091 17.85636534 6.2250901 17.76854227 2.96875 17.78515625 C-0.27982035 17.72843518 -1.70824292 17.5107469 -4.65625 15.97265625 C-9.29075967 13.74809161 -13.73843519 13.49339405 -18.78125 14.47265625 C-21.10101186 16.23675422 -22.1388411 17.98415791 -23.78125 20.47265625 C-27.33297504 23.04459507 -31.52302085 23.04683333 -35.78125 23.47265625 C-32.72277152 24.01638576 -29.89352195 24.47265625 -26.78125 24.47265625 C-28.65625 29.22265625 -28.65625 29.22265625 -29.78125 31.47265625 C-30.16475035 37.54098531 -29.67002447 43.47342859 -28.78125 49.47265625 C-33.36694153 46.11378609 -37.75560736 42.72340706 -41.84765625 38.76953125 C-44.62245064 36.90845703 -47.56622961 36.28310134 -50.78125 35.47265625 C-51.519291 17.61616422 -51.519291 17.61616422 -46.78125 9.47265625 C-46.12125 9.47265625 -45.46125 9.47265625 -44.78125 9.47265625 C-44.45125 8.48265625 -44.12125 7.49265625 -43.78125 6.47265625 C-43.78125 7.46265625 -43.78125 8.45265625 -43.78125 9.47265625 C-40.76796925 8.65825605 -38.15174856 7.71450948 -35.53125 6.00390625 C-28.68737778 1.58042787 -23.46526894 0.91787981 -15.53198242 1.34326172 C-9.57180871 1.66225115 -6.05202592 -0.85475041 0 0 Z " fill="#EDAD76" transform="translate(772.78125,387.52734375)" data-index="19"></path>
<path d="M0 0 C5.30916306 1.03593426 8.30005217 3.50906388 11.6328125 7.58984375 C14.13160305 11.99485451 14.00671977 16.12946139 13 21 C10.7453476 26.67452432 7.38477173 30.07349363 2 33 C-3.06162836 34.68720945 -6.73429904 34.51486141 -11.6875 32.5 C-15.75125622 29.88235522 -17.65938559 26.58963288 -19 22 C-20.09782179 15.47521013 -19.0288677 10.93397239 -15.484375 5.3984375 C-14 4 -14 4 -10 4 C-9.01 4.66 -8.02 5.32 -7 6 C-4.37468476 6.16713569 -4.37468476 6.16713569 -2 6 C-1.34 4.02 -0.68 2.04 0 0 Z " fill="#FBFAFA" transform="translate(1007,406)" data-index="20"></path>
<path d="M0 0 C1.0893972 0.79466881 2.16692064 1.60577855 3.234375 2.4296875 C3.82718262 2.86982178 4.41999023 3.30995605 5.03076172 3.76342773 C7.03009228 5.25868434 9.0088019 6.77819273 10.984375 8.3046875 C11.71366211 8.86655762 12.44294922 9.42842773 13.19433594 10.00732422 C17.044328 12.98007162 20.88014293 15.97024178 24.70703125 18.97265625 C28.27871021 21.76853589 31.89664582 24.48735286 35.546875 27.1796875 C36.46984375 27.8809375 37.3928125 28.5821875 38.34375 29.3046875 C40.12092921 30.65071672 41.92410084 31.96302651 43.75 33.2421875 C49.77117093 37.82271017 49.77117093 37.82271017 50.3828125 42.07421875 C50.03652577 46.86451856 48.866752 50.89658946 46.984375 55.3046875 C46.654375 55.3046875 46.324375 55.3046875 45.984375 55.3046875 C45.77762556 49.51570331 46.39275421 44.87536027 47.984375 39.3046875 C47.14519531 39.31822266 47.14519531 39.31822266 46.2890625 39.33203125 C30.96348246 38.76532974 17.17966396 27.14869255 4.80029297 19.11669922 C2.04439468 17.3433095 -0.72852288 15.60126964 -3.51171875 13.87109375 C-4.37643799 13.33250732 -5.24115723 12.7939209 -6.13208008 12.23901367 C-7.76114372 11.2263782 -9.39237568 10.21721965 -11.02612305 9.2121582 C-14.77432224 6.87123706 -18.05371478 4.6427133 -21.015625 1.3046875 C-19.14306083 0.79564093 -17.26743159 0.29786295 -15.390625 -0.1953125 C-14.34648438 -0.47375 -13.30234375 -0.7521875 -12.2265625 -1.0390625 C-7.36830105 -2.03199185 -4.42760258 -2.48909264 0 0 Z " fill="#343C48" transform="translate(828.015625,436.6953125)" data-index="21"></path>
<path d="M0 0 C4.75873771 1.92885722 7.93112135 4.95719156 11.5625 8.5 C13.18580692 12.45239946 12.94856338 14.65297503 12.6875 18.875 C12.46890851 24.08698938 12.46890851 24.08698938 14.84765625 28.546875 C17.14618058 30.53519198 19.51058644 32.26070774 22 34 C23.36016249 35.30595312 24.69737021 36.63665441 26 38 C26.7425 38.7425 27.485 39.485 28.25 40.25 C28.8275 40.8275 29.405 41.405 30 42 C28.906875 42.28875 27.81375 42.5775 26.6875 42.875 C22.95986155 43.81893204 22.95986155 43.81893204 20 46 C19.50371094 45.55269531 19.00742187 45.10539062 18.49609375 44.64453125 C16.35225753 42.73663905 14.18358384 40.86224083 12 39 C11.43796875 38.51402344 10.8759375 38.02804687 10.296875 37.52734375 C6.04526007 34.15288239 1.81821354 32.95066434 -3.421875 31.68359375 C-6.53282116 30.85872166 -9.16890349 29.51430744 -12 28 C-13.03125 27.690625 -14.0625 27.38125 -15.125 27.0625 C-18.31381861 25.88402356 -19.86975885 24.62183526 -22 22 C-22 21.34 -22 20.68 -22 20 C-15.60527675 19.65877959 -11.75823534 20.05962451 -6 23 C-2.96465371 23.40333392 -0.01025289 23.61409159 3 23 C5.33984442 20.12351775 5.33984442 20.12351775 4.875 16.5625 C3.9146977 12.65269776 3.17641643 11.38231232 0 9 C-3.73649801 7.0334221 -6.80031486 6.63480999 -11 7 C-11.99 7.66 -12.98 8.32 -14 9 C-16.04296875 9.1953125 -16.04296875 9.1953125 -18.1875 9.125 C-20.0746875 9.063125 -20.0746875 9.063125 -22 9 C-21.66032174 5.82966958 -21.00130809 5.00117393 -18.5625 2.8125 C-12.86476594 -1.21760458 -6.79392189 -0.76788138 0 0 Z " fill="#313943" transform="translate(777,381)" data-index="22"></path>
<path d="M0 0 C0.33 0.99 0.66 1.98 1 3 C0.36476913 3.26780273 -0.27046173 3.53560547 -0.92494202 3.81152344 C-3.77411175 5.29231523 -5.7904397 6.65592842 -8 9 C-9.38440825 13.69866846 -9.28077612 18.39024861 -9.24609375 23.25 C-9.26918236 24.66852964 -9.2964494 26.08699673 -9.32765198 27.50537109 C-9.3998353 31.24546016 -9.420425 34.98402217 -9.42852783 38.72473145 C-9.45184329 44.63734145 -9.5607458 50.54951328 -9.65181351 56.46139526 C-9.68346507 58.61623933 -9.70962936 60.77110445 -9.73544312 62.92602539 C-9.92225313 76.7138066 -10.9630873 90.36124337 -13 104 C-13.33 104 -13.66 104 -14 104 C-15.31984773 88.61213805 -16.58959238 73.2207873 -17.78143311 57.82244873 C-17.91555578 56.09046468 -18.05062879 54.3585535 -18.18731689 52.62677002 C-20.89814267 18.15137366 -20.89814267 18.15137366 -12.68359375 8.19140625 C-10.10563065 6.08625735 -7.57254924 4.3415949 -4.6875 2.6875 C-3.80449219 2.17574219 -2.92148437 1.66398438 -2.01171875 1.13671875 C-1.34785156 0.76160156 -0.68398438 0.38648438 0 0 Z " fill="#B79E81" transform="translate(584,541)" data-index="23"></path>
<path d="M0 0 C1.299375 0.2475 1.299375 0.2475 2.625 0.5 C8.69761822 1.39266231 14.87966132 1.07639812 21 1 C22.49106457 3.98212913 22.11941467 6.71609658 22 10 C20.13872594 11.86127406 17.50070864 11.46118139 15.0078125 11.71875 C12.79861215 11.9662595 12.79861215 11.9662595 10 13 C9.31974363 14.99541868 8.65509503 16.99617991 8 19 C5.45242292 22.77744188 3.07060208 24.9761012 -1 27 C-7.32689435 27.90708163 -13.96841059 28.17734033 -19.625 24.875 C-23.4983332 21.89934918 -26.60904679 18.83190464 -27.3046875 13.79296875 C-27.43446838 9.44530915 -27.02729047 5.92787529 -25 2 C-22.625 2.3125 -22.625 2.3125 -20 3 C-19.01 4.485 -19.01 4.485 -18 6 C-18.99 7.485 -18.99 7.485 -20 9 C-19.92211578 12.66055823 -19.40248901 14.49018059 -17.125 17.375 C-12.56753033 19.74488423 -8.04383362 19.83437486 -3 19 C-0.47701862 17.60166964 0.74777699 16.86277662 1.56640625 14.0625 C1.56236186 11.92706125 1.52517435 10.07465571 1 8 C-1.39056942 6.0645852 -1.39056942 6.0645852 -4 5 C-4 4.34 -4 3.68 -4 3 C-3.01 2.67 -2.02 2.34 -1 2 C-0.67 1.34 -0.34 0.68 0 0 Z " fill="#313943" transform="translate(770,430)" data-index="24"></path>
<path d="M0 0 C6.45748188 2.41472673 11.14719556 5.95089131 14.30078125 12.125 C16.35398917 17.63080894 15.28463978 21.98707566 13.0625 27.1875 C10.25508966 32.34899947 6.64567534 35.30807837 1 37 C-1.33221818 37.07213046 -3.6682191 37.08510149 -6 37 C-4.52816099 24.5668336 -2.31610331 12.30029536 0 0 Z " fill="#D2C6B0" transform="translate(978,589)" data-index="25"></path>
<path d="M0 0 C1.25390625 1.390625 1.25390625 1.390625 2.5625 3.25 C3.21412109 4.15492188 3.21412109 4.15492188 3.87890625 5.078125 C5.06216377 7.10656647 5.65930356 8.67958097 6 11 C5.0625 14.25 5.0625 14.25 4 17 C3.34 17 2.68 17 2 17 C1.75507813 17.70511719 1.51015625 18.41023438 1.2578125 19.13671875 C-0.17467528 22.39763037 -1.99521869 24.96134115 -4.125 27.8125 C-4.84945313 28.78832031 -5.57390625 29.76414062 -6.3203125 30.76953125 C-6.87460937 31.50558594 -7.42890625 32.24164062 -8 33 C-12.54958898 31.48347034 -13.68198249 28.02283852 -16 24 C-16.4846875 23.19949219 -16.969375 22.39898438 -17.46875 21.57421875 C-18.16484375 20.39279297 -18.16484375 20.39279297 -18.875 19.1875 C-19.30554688 18.45917969 -19.73609375 17.73085938 -20.1796875 16.98046875 C-21 15 -21 15 -20 12 C-18.55712891 10.77319336 -18.55712891 10.77319336 -16.7265625 9.58984375 C-16.0665625 9.15736328 -15.4065625 8.72488281 -14.7265625 8.27929688 C-13.68628906 7.61510742 -13.68628906 7.61510742 -12.625 6.9375 C-11.93921875 6.49083984 -11.2534375 6.04417969 -10.546875 5.58398438 C-9.26754058 4.75142141 -7.98602322 3.92219642 -6.70166016 3.09741211 C-1.89877642 0 -1.89877642 0 0 0 Z " fill="#E8A871" transform="translate(505,492)" data-index="26"></path>
<path d="M0 0 C-0.45242692 3.62576203 -0.91304633 7.25044045 -1.375 10.875 C-1.56449219 12.39480469 -1.56449219 12.39480469 -1.7578125 13.9453125 C-2.58043506 20.36176848 -3.6343247 26.67652015 -5 33 C-9.43817144 32.24298748 -11.7594567 31.2405433 -15 28 C-18.18482551 22.50892153 -18.93709821 17.29938241 -18 11 C-13.94437244 2.88874487 -8.75420172 -0.16211485 0 0 Z " fill="#D3C7B1" transform="translate(977,526)" data-index="27"></path>
<path d="M0 0 C0.66 0 1.32 0 2 0 C2 3.96 2 7.92 2 12 C-5.54540941 15.7727047 -13.46259789 15.18278052 -21.75 15.1875 C-22.86632812 15.19974609 -23.98265625 15.21199219 -25.1328125 15.22460938 C-42.61723518 15.25517655 -42.61723518 15.25517655 -49 11 C-49.1875 7.375 -49.1875 7.375 -49 4 C-48.42894531 4.13277344 -47.85789062 4.26554688 -47.26953125 4.40234375 C-32.70601824 7.57436487 -15.5012449 9.14321283 -1 5 C-0.67 3.35 -0.34 1.7 0 0 Z " fill="#43372D" transform="translate(517,873)" data-index="28"></path>
<path d="M0 0 C0.495 1.98 0.495 1.98 1 4 C12.55 4 24.1 4 36 4 C36.495 5.98 36.495 5.98 37 8 C10.93 8 -15.14 8 -42 8 C-42 7.01 -42 6.02 -42 5 C-32.45279399 4.02502579 -23.06285567 3.94514412 -13.4765625 4.12695312 C-11.87554687 4.14338867 -11.87554687 4.14338867 -10.2421875 4.16015625 C-9.2816748 4.17699463 -8.32116211 4.19383301 -7.33154297 4.21118164 C-4.80641716 4.23337598 -4.80641716 4.23337598 -3 2 C-3 2.66 -3 3.32 -3 4 C-2.01 4 -1.02 4 0 4 C0 2.68 0 1.36 0 0 Z " fill="#E6E6E3" transform="translate(412,869)" data-index="29"></path>
<path d="M0 0 C2.31 0 4.62 0 7 0 C7 0.33 7 0.66 7 1 C5.02 1 3.04 1 1 1 C1 3.31 1 5.62 1 8 C1.66 8.33 2.32 8.66 3 9 C3.92742413 11.33045039 4.74178992 13.61464249 5.5 16 C5.71994629 16.68263916 5.93989258 17.36527832 6.16650391 18.06860352 C8.72670354 26.13638721 10.53880676 32.53656281 9 41 C6 40 6 40 4 37 C3.01 36.67 2.02 36.34 1 36 C1 36.66 1 37.32 1 38 C0.34 38 -0.32 38 -1 38 C-1.66 36.02 -2.32 34.04 -3 32 C-3.66 32 -4.32 32 -5 32 C-3.13924051 25.35443038 -3.13924051 25.35443038 -1.96875 22.375 C-0.69769058 17.94679298 -0.540735 13.71033508 -0.375 9.125 C-0.31699219 7.80628906 -0.31699219 7.80628906 -0.2578125 6.4609375 C-0.16418966 4.30761207 -0.08103541 2.15383586 0 0 Z " fill="#F0EBE7" transform="translate(577,265)" data-index="30"></path>
<path d="M0 0 C0.33 0 0.66 0 1 0 C3.09463773 15.35444262 3.22568003 30.52008576 3 46 C-0.75674132 44.12162934 -1.66893135 39.17694217 -3.1875 35.4375 C-3.56841797 34.55513672 -3.94933594 33.67277344 -4.34179688 32.76367188 C-8.16696211 23.37084327 -6.38046932 17.21853038 -2.9375 8 C-2.65583984 7.22527344 -2.37417969 6.45054687 -2.08398438 5.65234375 C-1.39679702 3.76549033 -0.69945987 1.88233849 0 0 Z " fill="#ECEDEE" transform="translate(485,398)" data-index="31" style="visibility: visible; fill: rgb(121, 40, 202); opacity: 1;"></path>
<path d="M0 0 C5.84034773 1.31407824 10.08483442 4.57091053 14 9 C14.73046875 11.2265625 14.73046875 11.2265625 15 13 C2.92523364 17.97196262 2.92523364 17.97196262 -4 17 C-6.5 15 -6.5 15 -8 13 C-7.25 10.0625 -7.25 10.0625 -6 7 C-4.66666667 6.66666667 -3.33333333 6.33333333 -2 6 C-0.6954344 3.00384054 -0.6954344 3.00384054 0 0 Z " fill="#F3F3F2" transform="translate(781,415)" data-index="32"></path>
<path d="M0 0 C2.125 0.375 2.125 0.375 4 1 C4.22222755 9.18641024 3.55515163 17.07423947 2.5 25.1875 C2.35691406 26.33025391 2.21382812 27.47300781 2.06640625 28.65039062 C1.71694735 31.43441319 1.36138792 34.21750525 1 37 C-0.65614657 37.38218767 -2.32457024 37.71395102 -4 38 C-4.33 37.67 -4.66 37.34 -5 37 C-4.96019605 34.5045983 -4.85217438 32.05069968 -4.6875 29.5625 C-4.63972412 28.81347412 -4.59194824 28.06444824 -4.54272461 27.29272461 C-4.15208974 21.53935887 -3.65260879 15.79873024 -3.0625 10.0625 C-2.98797607 9.287854 -2.91345215 8.51320801 -2.83666992 7.71508789 C-2.23591883 2.23591883 -2.23591883 2.23591883 0 0 Z " fill="#819580" transform="translate(890,342)" data-index="33"></path>
<path d="M0 0 C2.2578125 0.05078125 2.2578125 0.05078125 5 1 C6.55268583 3.42036321 7.71600024 5.58716083 8.875 8.1875 C9.5577382 9.64623407 10.24134984 11.10455961 10.92578125 12.5625 C11.26689941 13.30242187 11.60801758 14.04234375 11.95947266 14.8046875 C12.95424368 16.90346296 14.00955896 18.95252725 15.10546875 21 C15.59974365 21.93356323 15.59974365 21.93356323 16.10400391 22.88598633 C17.01426986 24.59685044 17.93079055 26.3043824 18.84765625 28.01171875 C20.10162481 31.26353551 20.06059286 32.733374 19 36 C16.67211914 35.80297852 16.67211914 35.80297852 14 35 C12.48608398 32.90209961 12.48608398 32.90209961 11.24609375 30.15234375 C10.55290039 28.65477539 10.55290039 28.65477539 9.84570312 27.12695312 C9.38099609 26.07443359 8.91628906 25.02191406 8.4375 23.9375 C7.49912579 21.88391902 6.56033124 19.83053004 5.62109375 17.77734375 C5.18007324 16.78976074 4.73905273 15.80217773 4.28466797 14.78466797 C3.13870037 12.30064925 1.89682561 9.90979609 0.59765625 7.50390625 C-1.046933 3.89706871 -1.16769267 3.46695889 0 0 Z " fill="#7F9580" transform="translate(842,349)" data-index="34"></path>
<path d="M0 0 C2.0625 0.8125 2.0625 0.8125 3.0625 1.8125 C3.75538203 8.85680065 3.75538203 8.85680065 1.25 12.3125 C-3.49344347 14.54470869 -7.79119611 14.68526499 -12.9375 13.8125 C-15.8398618 12.46101855 -16.83062833 11.37491149 -18.9375 8.8125 C-19.3125 6 -19.3125 6 -18.9375 3.8125 C-17.205 3.93625 -17.205 3.93625 -15.4375 4.0625 C-11.1155612 4.10074725 -8.47063099 2.71192756 -4.765625 0.640625 C-2.9375 -0.1875 -2.9375 -0.1875 0 0 Z " fill="#F5F5F4" transform="translate(768.9375,436.1875)" data-index="35"></path>
<path d="M0 0 C2.50876195 1.22978527 4.89522463 2.52362195 7.3125 3.9375 C13.40001371 7.03343554 20.32867879 7.85336667 27 9 C27.04241723 11.33294775 27.04092937 13.66702567 27 16 C25.30529665 17.69470335 23.25978877 17.33208662 20.9375 17.4375 C13.58722407 17.36133134 10.16826186 14.21668508 5.2109375 9.18359375 C2.47973976 6.18704268 0.76893813 4.04797316 0 0 Z " fill="#D6945D" transform="translate(550,256)" data-index="36"></path>
<path d="M0 0 C4.13867907 1.74744227 6.29378166 3.82924405 8 8 C7.67857143 14.32142857 7.67857143 14.32142857 5 17 C1.375 17.125 1.375 17.125 -2 17 C-2.06316406 16.24074219 -2.12632812 15.48148437 -2.19140625 14.69921875 C-2.6292193 9.02977801 -2.6292193 9.02977801 -5.69140625 4.6015625 C-7.82228542 3.67536402 -7.82228542 3.67536402 -11 3 C-8.32432425 -1.01351362 -4.34651655 -0.62093094 0 0 Z " fill="#F5F3F0" transform="translate(775,388)" data-index="37"></path>
<path d="M0 0 C0.33 0 0.66 0 1 0 C1.04966889 5.83494851 1.08584653 11.66977222 1.10986328 17.50488281 C1.11988215 19.48732651 1.133501 21.46975559 1.15087891 23.45214844 C1.17530882 26.31188584 1.1865245 29.17142679 1.1953125 32.03125 C1.20563507 32.90865845 1.21595764 33.78606689 1.22659302 34.69006348 C1.22757161 40.13340372 0.52953835 44.77099001 -1 50 C-1.33 50 -1.66 50 -2 50 C-2.02503974 45.11108762 -2.0430178 40.22221397 -2.05493164 35.33325195 C-2.05990735 33.67601876 -2.06669032 32.01878983 -2.07543945 30.36157227 C-2.18227423 9.57906682 -2.18227423 9.57906682 -1 1 C-0.67 0.67 -0.34 0.34 0 0 Z " fill="#CACBBD" transform="translate(393,672)" data-index="38"></path>
<path d="M0 0 C0.99 0.99 1.98 1.98 3 3 C2.38125 3.7425 1.7625 4.485 1.125 5.25 C-3.159954 10.79523459 -3.71143997 15.09181479 -3 22 C-2.2125521 24.83117107 -1.19863212 27.30307774 0 30 C-2.3125 29.4375 -2.3125 29.4375 -5 28 C-8.24527235 22.62851474 -9.05638599 17.20263334 -8 11 C-6.08232128 6.65032259 -3.41361027 3.27346204 0 0 Z " fill="#C9BAA4" transform="translate(992,406)" data-index="39"></path>
<path d="M0 0 C1.15628906 0.74056641 1.15628906 0.74056641 2.3359375 1.49609375 C3.33882812 2.13675781 4.34171875 2.77742188 5.375 3.4375 C6.37273438 4.07558594 7.37046875 4.71367187 8.3984375 5.37109375 C12.27683798 7.79946162 14.2917835 8.13620591 18.875 8.125 C19.92429687 8.12757813 20.97359375 8.13015625 22.0546875 8.1328125 C25.62067662 7.98443384 25.62067662 7.98443384 29 7 C29.33 6.01 29.66 5.02 30 4 C30.33 4.99 30.66 5.98 31 7 C28.7213664 10.25519086 27.33172981 11.72371576 23.3828125 12.54296875 C15.32459479 12.93018181 9.48608075 10.71815414 3 6 C0.3125 3.125 0.3125 3.125 -1 1 C-0.67 0.67 -0.34 0.34 0 0 Z " fill="#B69E80" transform="translate(515,504)" data-index="40"></path>
<path d="M0 0 C-0.66 2.97 -1.32 5.94 -2 9 C-2.845625 8.835 -3.69125 8.67 -4.5625 8.5 C-9.24422494 9.18097817 -10.59877769 11.38902917 -13.484375 14.95703125 C-14.70528944 16.6027484 -15.86333592 18.29500388 -17 20 C-17.33 17.69 -17.66 15.38 -18 13 C-16.9790625 12.505 -16.9790625 12.505 -15.9375 12 C-12.52786885 9.678549 -10.2555099 7.00725977 -7.6484375 3.83984375 C-5.19148625 1.09760669 -3.73105209 0 0 0 Z " fill="#E1E0DE" transform="translate(559,296)" data-index="41"></path>
<path d="M0 0 C0 0.99 0 1.98 0 3 C-2.125 4.83203125 -2.125 4.83203125 -5 6.8125 C-6.49466797 7.85857422 -6.49466797 7.85857422 -8.01953125 8.92578125 C-9.00308594 9.61027344 -9.98664063 10.29476563 -11 11 C-12.56845117 12.15865366 -14.13186415 13.32419624 -15.6875 14.5 C-16.65236328 15.22703125 -16.65236328 15.22703125 -17.63671875 15.96875 C-18.31154297 16.47921875 -18.31154297 16.47921875 -19 17 C-19.66 15.68 -20.32 14.36 -21 13 C-18.3960739 11.20798351 -15.79181733 9.41644786 -13.1875 7.625 C-12.44951172 7.11710937 -11.71152344 6.60921875 -10.95117188 6.0859375 C-10.23896484 5.59609375 -9.52675781 5.10625 -8.79296875 4.6015625 C-8.1383667 4.15119629 -7.48376465 3.70083008 -6.80932617 3.23681641 C-2.07422029 0 -2.07422029 0 0 0 Z " fill="#EDE9E5" transform="translate(505,492)" data-index="42"></path>
<path d="M0 0 C1.31611677 0.95336021 2.62778961 1.91285774 3.9375 2.875 C4.66839844 3.40867187 5.39929688 3.94234375 6.15234375 4.4921875 C8 6 8 6 9 8 C7.906875 8.28875 6.81375 8.5775 5.6875 8.875 C1.95986155 9.81893204 1.95986155 9.81893204 -1 12 C-2.65 10.35 -4.3 8.7 -6 7 C-4.02 4.69 -2.04 2.38 0 0 Z " fill="#484F59" transform="translate(798,415)" data-index="43"></path>
<path d="M0 0 C0.66 0 1.32 0 2 0 C4.01670288 7.43659188 4.2137731 14.31604457 4 22 C3.34 22.33 2.68 22.66 2 23 C1.49311395 20.45953542 0.99433126 17.91791124 0.5 15.375 C0.35691406 14.66214844 0.21382813 13.94929687 0.06640625 13.21484375 C-0.72800768 9.09145718 -1.25984738 5.22251991 -1 1 C-0.67 0.67 -0.34 0.34 0 0 Z " fill="#CCCEC1" transform="translate(402,816)" data-index="44"></path>
<path d="M0 0 C3.43595166 1.52708963 6.11912454 3.59927045 9 6 C9.33 5.01 9.66 4.02 10 3 C9.67 5.64 9.34 8.28 9 11 C6 10 6 10 4 7 C3.01 6.67 2.02 6.34 1 6 C1 6.66 1 7.32 1 8 C0.34 8 -0.32 8 -1 8 C-1.625 5.125 -1.625 5.125 -2 2 C-1.34 1.34 -0.68 0.68 0 0 Z " fill="#E5E4E2" transform="translate(577,295)" data-index="45"></path>
<path d="M0 0 C0.33 0.66 0.66 1.32 1 2 C0.3190918 4.01538086 0.3190918 4.01538086 -0.80078125 6.46484375 C-1.20103516 7.34720703 -1.60128906 8.22957031 -2.01367188 9.13867188 C-2.44228516 10.06228516 -2.87089844 10.98589844 -3.3125 11.9375 C-3.72951172 12.85724609 -4.14652344 13.77699219 -4.57617188 14.72460938 C-6.22561481 18.33128604 -7.79550514 21.69325771 -10 25 C-10.66 25 -11.32 25 -12 25 C-11.57654297 23.95972656 -11.57654297 23.95972656 -11.14453125 22.8984375 C-10.36147307 20.91540278 -9.61023144 18.91958892 -8.88671875 16.9140625 C-6.56996856 10.55997892 -4.27746338 5.25516929 0 0 Z " fill="#CACBBD" transform="translate(415,749)" data-index="46" style="opacity: 1;"></path>
<path d="M0 0 C0.66 0 1.32 0 2 0 C1.58169634 7.22124213 1.04538889 14.04567778 -1 21 C-1.66 21 -2.32 21 -3 21 C-2.53752467 13.80729161 -1.74922933 6.9969173 0 0 Z " fill="#565758" transform="translate(858,583)" data-index="47"></path>
<path d="M0 0 C3.375 -0.125 3.375 -0.125 7 0 C9 2 9 2 9.046875 4.42578125 C8.94890625 5.37839844 8.8509375 6.33101563 8.75 7.3125 C8.61851562 8.72982422 8.61851562 8.72982422 8.484375 10.17578125 C7.99727323 13.01589884 7.1671978 15.37380495 6 18 C5.67 18 5.34 18 5 18 C4.79325056 12.21101581 5.40837921 7.57067277 7 2 C5.02 2 3.04 2 1 2 C0.67 1.34 0.34 0.68 0 0 Z " fill="#41484F" transform="translate(869,474)" data-index="48"></path>
<path d="M0 0 C0.66 0 1.32 0 2 0 C1.85879286 1.93784265 1.71187127 3.87526955 1.5625 5.8125 C1.48128906 6.89144531 1.40007813 7.97039062 1.31640625 9.08203125 C1 12 1 12 0 15 C-0.66 15 -1.32 15 -2 15 C-2.3690205 4.44191344 -2.3690205 4.44191344 0 0 Z " fill="#43494E" transform="translate(872,502)" data-index="49"></path>
<path d="M0 0 C1.2065625 0.0309375 1.2065625 0.0309375 2.4375 0.0625 C2.81968767 1.71864657 3.15145102 3.38707024 3.4375 5.0625 C2.4375 6.0625 2.4375 6.0625 -0.125 6.125 C-1.3315625 6.0940625 -1.3315625 6.0940625 -2.5625 6.0625 C-2.94468767 4.40635343 -3.27645102 2.73792976 -3.5625 1.0625 C-2.5625 0.0625 -2.5625 0.0625 0 0 Z " fill="#3A434E" transform="translate(808.5625,426.9375)" data-index="50"></path>
<path d="M0 0 C0.66 0 1.32 0 2 0 C1.67 4.29 1.34 8.58 1 13 C0.01 13 -0.98 13 -2 13 C-1.85851011 11.3954444 -1.71164314 9.79136233 -1.5625 8.1875 C-1.48128906 7.29417969 -1.40007813 6.40085937 -1.31640625 5.48046875 C-1 3 -1 3 0 0 Z " fill="#3E4449" transform="translate(867,529)" data-index="51"></path>
<path d="M0 0 C0.99 0 1.98 0 3 0 C4.1577506 3.47325181 4.06866652 6.36067448 4 10 C3.01 10 2.02 10 1 10 C-0.60725635 6.78548731 -0.05748185 3.56387464 0 0 Z " fill="#C8CBBD" transform="translate(408,863)" data-index="52"></path>
<path d="M0 0 C0.66 0 1.32 0 2 0 C2.10251672 5.12583611 2.03590199 9.94997778 1 15 C-1 13 -1 13 -1.23046875 10.72265625 C-1.21628906 9.84480469 -1.20210937 8.96695312 -1.1875 8.0625 C-1.18105469 7.18722656 -1.17460938 6.31195313 -1.16796875 5.41015625 C-1 3 -1 3 0 0 Z " fill="#B09B80" transform="translate(553,467)" data-index="53"></path>
<path d="M0 0 C1.65 1.65 3.3 3.3 5 5 C4.54625 5.7425 4.0925 6.485 3.625 7.25 C2.32573985 9.44874794 1.14215318 11.71569364 0 14 C0 9.38 0 4.76 0 0 Z " fill="#F1F2F3" transform="translate(632,399)" data-index="54"></path>
<path d="M0 0 C0.66 0 1.32 0 2 0 C1.85795259 1.58367747 1.71119847 3.16693318 1.5625 4.75 C1.48128906 5.63171875 1.40007813 6.5134375 1.31640625 7.421875 C1.03761535 9.69350452 0.61209423 11.79851823 0 14 C-0.66 14 -1.32 14 -2 14 C-1.85866501 12.22880197 -1.71176792 10.45804713 -1.5625 8.6875 C-1.48128906 7.70136719 -1.40007813 6.71523438 -1.31640625 5.69921875 C-1 3 -1 3 0 0 Z " fill="#424446" transform="translate(852,618)" data-index="55"></path>
<path d="M0 0 C0.66 0 1.32 0 2 0 C1.03644647 10.55808656 1.03644647 10.55808656 0 15 C-0.66 15 -1.32 15 -2 15 C-1.03644647 4.44191344 -1.03644647 4.44191344 0 0 Z " fill="#3D4446" transform="translate(863,554)" data-index="56"></path>
<path d="M0 0 C0.66 0.33 1.32 0.66 2 1 C1.91253716 2.43861294 1.80434652 3.87597508 1.6875 5.3125 C1.62949219 6.11300781 1.57148437 6.91351563 1.51171875 7.73828125 C0.91793306 10.36272334 0.04219706 11.30820672 -2 13 C-2.33 11.35 -2.66 9.7 -3 8 C-2.34 7.67 -1.68 7.34 -1 7 C-0.59270772 4.67843403 -0.25561323 2.3431213 0 0 Z " fill="#383F44" transform="translate(596,194)" data-index="57"></path>
<path d="M0 0 C0.33 0.99 0.66 1.98 1 3 C-0.3125 5.0625 -0.3125 5.0625 -3 7 C-6.72702755 7.05898893 -10.32357303 6.58315738 -14 6 C-14 5.67 -14 5.34 -14 5 C-13.39671875 4.93941406 -12.7934375 4.87882813 -12.171875 4.81640625 C-10.97304688 4.69072266 -10.97304688 4.69072266 -9.75 4.5625 C-8.96109375 4.48128906 -8.1721875 4.40007813 -7.359375 4.31640625 C-4.12109403 3.89878137 -4.12109403 3.89878137 -1 3 C-0.67 2.01 -0.34 1.02 0 0 Z " fill="#978772" transform="translate(545,508)" data-index="58"></path>
<path d="M0 0 C0.33 0 0.66 0 1 0 C1 4.29 1 8.58 1 13 C-0.65 13.33 -2.3 13.66 -4 14 C-3.525625 13.175 -3.05125 12.35 -2.5625 11.5 C-0.76430401 7.47204099 -0.3765745 4.36826421 0 0 Z " fill="#CACACA" transform="translate(602,452)" data-index="59"></path>
<path d="M0 0 C0 3.94405202 -1.49401172 5.0517785 -4 8 C-4.66 8.99 -5.32 9.98 -6 11 C-6.33 8.69 -6.66 6.38 -7 4 C-6.030625 3.525625 -5.06125 3.05125 -4.0625 2.5625 C-1.19522563 1.29806053 -1.19522563 1.29806053 0 0 Z " fill="#D7D7D7" transform="translate(548,305)" data-index="60"></path>
<path d="M0 0 C0 2.31 0 4.62 0 7 C-0.33 7 -0.66 7 -1 7 C-1 5.35 -1 3.7 -1 2 C-2.423125 2.309375 -2.423125 2.309375 -3.875 2.625 C-4.90625 2.74875 -5.9375 2.8725 -7 3 C-7.66 2.34 -8.32 1.68 -9 1 C-5.8035914 -0.06546953 -3.34252724 -0.07427838 0 0 Z " fill="#AB9577" transform="translate(635,509)" data-index="61"></path>
<path d="M0 0 C0.33 0 0.66 0 1 0 C1.99 3.3 2.98 6.6 4 10 C2.68 10 1.36 10 0 10 C-1.125 3.375 -1.125 3.375 0 0 Z " fill="#AC9579" transform="translate(607,500)" data-index="62"></path>
<path d="M0 0 C2 0 2 0 3.76171875 1.64453125 C4.39722656 2.35996094 5.03273438 3.07539062 5.6875 3.8125 C6.65236328 4.87404297 6.65236328 4.87404297 7.63671875 5.95703125 C8.08660156 6.63121094 8.53648437 7.30539062 9 8 C8.67 8.99 8.34 9.98 8 11 C6.66375099 9.35653302 5.33107149 7.71016314 4 6.0625 C3.2575 5.14597656 2.515 4.22945312 1.75 3.28515625 C0 1 0 1 0 0 Z " fill="#CBCCBE" transform="translate(390,827)" data-index="63"></path>
<path d="M0 0 C0 2.97 0 5.94 0 9 C-2.62386487 5.93882432 -3 5.26826873 -3 1 C-1 0 -1 0 0 0 Z " fill="#FAFAFA" transform="translate(487,433)" data-index="64"></path>
<path d="M0 0 C2.64 0 5.28 0 8 0 C7.67 0.99 7.34 1.98 7 3 C4.0625 2.625 4.0625 2.625 1 2 C0.67 1.34 0.34 0.68 0 0 Z " fill="#E49E66" transform="translate(736,410)" data-index="65"></path>
<path d="M0 0 C0.33 0 0.66 0 1 0 C1 2.31 1 4.62 1 7 C1.99 7.33 2.98 7.66 4 8 C2.68 8.99 1.36 9.98 0 11 C0 7.37 0 3.74 0 0 Z " fill="#8EA08C" transform="translate(1078,815)" data-index="66"></path>
<path d="M0 0 C2.97 1.98 2.97 1.98 6 4 C5.67 4.66 5.34 5.32 5 6 C1.83884224 4.63016497 1.0072908 4.0109362 -1 1 C-0.67 0.67 -0.34 0.34 0 0 Z " fill="#AC9575" transform="translate(515,504)" data-index="67"></path>
<path d="M0 0 C2.31 0.33 4.62 0.66 7 1 C4.68143083 2.54571278 2.49361571 3.79618552 0 5 C0 3.35 0 1.7 0 0 Z " fill="#F4EEE8" transform="translate(750,440)" data-index="68"></path>
<path d="M0 0 C0.66 1.32 1.32 2.64 2 4 C0.71034824 5.37562854 -0.62689293 6.70766393 -2 8 C-2.66 8 -3.32 8 -4 8 C-3.34 6.35 -2.68 4.7 -2 3 C-1.34 3 -0.68 3 0 3 C0 2.01 0 1.02 0 0 Z " fill="#C9A07A" transform="translate(728,394)" data-index="69"></path>
</svg>