<svg version="1.1" xmlns="http://www.w3.org/2000/svg" width="1254" height="1254" viewBox="0 0 1254 1254">

<path d="M0 0 C1.69287785 0.95495674 3.35857037 1.9590934 5 3 C12.22362111 5.85935002 20.83227379 6.25977865 28.26953125 4.01171875 C39.10511223 1.0730638 52.39151224 1.50266008 62.46484375 6.50390625 C64.93734149 7.96302279 67.34034282 9.502376 69.75 11.0625 C74.66675123 14.18335995 79.64260793 15.40688572 85.29199219 16.53149414 C92.82278942 18.11050222 97.59779753 21.7635465 102 28 C102.4640625 29.794375 102.4640625 29.794375 102.9375 31.625 C104.32014707 36.01693777 106.20453103 36.51834721 110 39 C115.97545609 46.42446969 117.22192468 52.1346954 117.375 61.4375 C117.41238281 62.26443359 117.44976563 63.09136719 117.48828125 63.94335938 C117.66557421 76.81679845 110.85699974 87.55239773 104.3125 98.1875 C102.88595876 100.54146313 101.46669219 102.8997894 100.046875 105.2578125 C99.52475182 106.12162285 99.52475182 106.12162285 98.99208069 107.00288391 C95.90136651 112.12747564 92.94952321 117.32103239 90.0625 122.5625 C89.65620361 123.29944092 89.24990723 124.03638184 88.83129883 124.7956543 C84.98485468 131.8066691 83.67931807 136.83211419 85.71875 144.8125 C87.05496918 148.55846291 87.05496918 148.55846291 89 152 C90.66121581 152.68013546 92.32924994 153.3436339 94 154 C97.43415012 156.51903817 100.62179847 159.35407314 103.85351562 162.125 C104.52705078 162.68960938 105.20058594 163.25421875 105.89453125 163.8359375 C106.49112549 164.34688965 107.08771973 164.8578418 107.70239258 165.38427734 C114.32329356 170.04022492 121.95463688 172.57306544 129.5234375 175.265625 C131.78518177 176.08196054 134.04689965 176.8983692 136.30859375 177.71484375 C139.82655787 178.97819026 143.34528381 180.23936836 146.86474609 181.49853516 C169.69472584 189.67994921 169.69472584 189.67994921 180.2890625 194.359375 C180.994935 194.6698175 181.7008075 194.98026001 182.42807007 195.30010986 C193.85698235 200.49495815 198.26885342 207.16542048 202.66821289 218.65991211 C209.13750211 236.04027662 213.77379197 254.08702384 218.75 271.9375 C219.06626343 273.071875 219.38252686 274.20625 219.70837402 275.375 C225.24967067 295.30024914 230.52986575 315.28838668 235.68745422 335.31599808 C236.24567503 337.48320892 236.80485413 339.65017086 237.36413574 341.81710815 C238.25264772 345.26200903 239.13740472 348.70785436 240.01914978 352.15449333 C240.49507714 354.01348906 240.97313754 355.8719383 241.45129395 357.73036194 C247.57049014 381.76591936 247.57049014 381.76591936 247.4375 392.375 C247.42847656 393.27436279 247.41945313 394.17372559 247.41015625 395.1003418 C247.19517511 403.50028203 245.55706585 411.02279871 243 419 C242.75282227 419.81082031 242.50564453 420.62164062 242.25097656 421.45703125 C236.56446746 440.06742467 229.17823596 458.02885285 221.80981445 476.01971436 C220.63298388 478.89748552 219.46608044 481.77928018 218.296875 484.66015625 C196.15650043 538.84349957 196.15650043 538.84349957 190 545 C188.31391034 545.07205511 186.62499341 545.08386068 184.9375 545.0625 C184.01839844 545.05347656 183.09929687 545.04445313 182.15234375 545.03515625 C181.44207031 545.02355469 180.73179687 545.01195312 180 545 C180.03480469 545.72445312 180.06960938 546.44890625 180.10546875 547.1953125 C180.38950409 557.33943187 180.38950409 557.33943187 177 562 C170.52024922 568.49325026 170.52024922 568.49325026 166 570 C165.75041499 610.74319634 166.00255797 651.45331894 166.9375 692.1875 C166.95938133 693.14925266 166.98126266 694.11100533 167.00380707 695.10190201 C167.30699573 708.40205596 167.63788959 721.70132051 168 735 C168.02025112 735.74999268 168.04050224 736.49998535 168.06136703 737.27270508 C168.53543452 754.74823365 169.2629934 772.18196991 170.4375 789.625 C170.70718025 793.74331278 170.97302339 797.86186901 171.23828125 801.98046875 C171.30380188 802.99220657 171.36932251 804.0039444 171.43682861 805.04634094 C172.17377329 816.52315006 172.77830158 828.00674005 173.35327148 839.49267578 C173.39007523 840.20844284 173.42687897 840.9242099 173.46479797 841.66166687 C173.56212403 843.55550665 173.65644427 845.44950026 173.75048828 847.34350586 C173.92658354 849.92411122 174.16463507 852.4307515 174.48193359 854.99169922 C175.26256921 861.77496659 175.44290921 868.59974008 175.71875 875.41796875 C175.78190542 876.92183086 175.84534714 878.42568096 175.90905762 879.92951965 C176.07576054 883.88122841 176.23884204 887.83307814 176.40106201 891.78497314 C176.5635659 895.73108083 176.72906573 899.67706244 176.89453125 903.62304688 C177.08770255 908.23015521 177.28065942 912.83727074 177.47157288 917.44447327 C177.76541929 924.52176447 178.06878074 931.59831749 178.40589905 938.67370605 C179.12734143 953.83895241 179.60432266 969.01245144 180.0625 984.1875 C180.0960471 985.28763176 180.0960471 985.28763176 180.13027191 986.4099884 C180.98803347 1014.61174437 181.24857837 1042.78444308 181 1071 C178.36 1071.33 175.72 1071.66 173 1072 C176.11904639 1087.98511273 182.81230814 1103.87455351 191.6328125 1117.52734375 C194.92819393 1122.69329194 196.7917649 1126.97334735 197.67578125 1133.06640625 C197.80792022 1135.00139966 197.80792022 1135.00139966 199 1136 C199.48942434 1139.4011894 199.53267456 1142.60284085 199 1146 C196.80135041 1148.38710527 195.92411167 1148.91315611 193 1150 C191.65711914 1150.50297607 191.65711914 1150.50297607 190.28710938 1151.01611328 C181.94279653 1153.825747 174.4617427 1154.63314658 165.6875 1154.5 C164.42091553 1154.48936523 163.15433105 1154.47873047 161.84936523 1154.46777344 C149.3301841 1154.21429351 136.35395457 1153.35395457 127 1144 C126.875 1140.875 126.875 1140.875 127 1138 C126.38125 1137.855625 125.7625 1137.71125 125.125 1137.5625 C123 1137 123 1137 121 1136 C120.94998919 1130.68385131 120.91399602 1125.36784418 120.89013672 1120.05151367 C120.88017406 1118.24875498 120.86659904 1116.44601204 120.84912109 1114.64331055 C120.75984046 1105.18744064 120.77447028 1096.03417484 122.50585938 1086.69726562 C123.27592353 1082.49387198 123.63502828 1078.25480188 124 1074 C121.69 1074 119.38 1074 117 1074 C115.297029 1070.59405801 115.44378139 1066.692523 115.125 1062.9375 C114.43736138 1055.26580224 113.64358918 1047.6149227 112.71484375 1039.96875 C112.58755386 1038.91465439 112.46026398 1037.86055878 112.32911682 1036.77452087 C110.26289452 1019.80120467 108.03206599 1002.84811881 105.83129883 985.8918457 C105.23879296 981.32523929 104.64807515 976.75840401 104.05859375 972.19140625 C103.91716005 971.09697142 103.91716005 971.09697142 103.77286911 969.98042679 C102.63396071 961.15348832 101.56028158 952.324175 100.62367249 943.47319031 C100.11394373 938.75162895 99.3770385 934.10386333 98.55371094 929.42871094 C97.33663543 921.89228746 96.46442147 914.30278749 95.51498413 906.72885132 C95.11684084 903.56006193 94.71400566 900.39190027 94.30981445 897.22387695 C93.19571513 888.48650647 92.08414643 879.74935477 91.03515625 871.00390625 C84.37995839 816.54284493 71.80685098 762.71440276 60.83770657 709.00545979 C59.60723877 702.97972085 58.38033627 696.95327066 57.15645123 690.92619133 C51.29375331 662.0353714 51.29375331 662.0353714 44.9375 633.25 C44.54448279 631.5235374 44.15190888 629.79697382 43.75976562 628.0703125 C42.84481091 624.04572372 41.92436784 620.02243668 41 616 C40.07994398 618.76016805 39.67573465 621.0736984 39.33879089 623.94818115 C39.22026166 624.94695408 39.10173243 625.94572701 38.9796114 626.97476578 C38.85509696 628.05269268 38.73058252 629.13061958 38.60229492 630.24121094 C38.47048167 631.36192867 38.33866842 632.48264641 38.20286083 633.63732529 C37.79800236 637.09110914 37.39814227 640.54543599 37 644 C36.88538548 644.99171707 36.77077095 645.98343414 36.65268326 647.00520325 C35.87877486 653.71580146 35.11932844 660.42799418 34.36328125 667.140625 C34.1201697 669.29444961 33.87705121 671.44827344 33.63392639 673.60209656 C29.29020882 712.11840562 24.94758581 750.63629976 20.87826538 789.18273926 C20.5508493 792.28382493 20.21967836 795.38446631 19.88467407 798.48474121 C17.98715581 816.08038694 16.57817981 833.63295272 15.67829895 851.30857849 C15.12165188 862.21499482 14.28697062 873.07024039 13.27471924 883.94335938 C12.71913413 890.12503063 12.23708703 896.31292478 11.74609375 902.5 C11.69261402 903.17227631 11.63913429 903.84455261 11.58403397 904.53720093 C11.31118406 907.96728474 11.03912513 911.3974302 10.76782227 914.82763672 C10.49122632 918.3242482 10.21297404 921.82072565 9.93426418 925.31716919 C9.7147855 928.07304487 9.49622104 930.82899252 9.27791023 933.58496094 C9.12723407 935.48506725 8.975796 937.38511309 8.82432556 939.28515625 C8.43590916 944.207926 8.04882209 949.1294285 7.74319458 954.05810547 C7.70096551 954.73179672 7.65873644 955.40548798 7.6152277 956.09959412 C7.49927797 957.97888013 7.38798901 959.85845202 7.2769928 961.73803711 C7.03579707 964.57844136 6.58510847 967.21682655 6 970 C5.82919364 971.55779331 5.68566284 973.11877404 5.56689453 974.68139648 C5.49646439 975.58626297 5.42603424 976.49112946 5.35346985 977.42341614 C5.28065292 978.39614975 5.207836 979.36888336 5.1328125 980.37109375 C4.96921091 982.47998466 4.80555311 984.58887121 4.6418457 986.69775391 C4.55746246 987.79903625 4.47307922 988.9003186 4.38613892 990.03497314 C3.08856356 1006.94181747 1.70721935 1023.82691546 -0.06152344 1040.69116211 C-0.83443412 1048.11337797 -1.43651161 1055.5148169 -1.7890625 1062.96875 C-2.004224 1066.06070041 -2.28288041 1068.98193841 -3 1072 C-5.5625 1073.375 -5.5625 1073.375 -8 1074 C-7.51008188 1078.89918118 -6.65095576 1083.52340115 -5.5 1088.3125 C-2.37331365 1102.58849232 -2.83238067 1117.45436671 -3 1132 C-6.66325876 1134.23552714 -10.44064557 1134.6690246 -14.625 1135.125 C-15.77645508 1135.25781372 -15.77645508 1135.25781372 -16.95117188 1135.39331055 C-21.86012758 1135.88776194 -26.68375124 1136.03089816 -31.6171875 1135.94921875 C-32.75591309 1135.93036621 -33.89463867 1135.91151367 -35.06787109 1135.89208984 C-37.30848346 1135.84013084 -39.54870906 1135.76468273 -41.78759766 1135.66259766 C-48.51966925 1135.49210006 -52.93211451 1136.42135515 -58.79785156 1139.75073242 C-61.63075617 1141.35782476 -64.51081917 1142.31968775 -67.625 1143.25 C-68.64851562 1143.56453125 -69.67203125 1143.8790625 -70.7265625 1144.203125 C-77.09752906 1145.75405242 -83.40798754 1146.15727625 -89.9453125 1146.16796875 C-90.67765106 1146.17129715 -91.40998962 1146.17462555 -92.16452026 1146.17805481 C-93.70570251 1146.18308292 -95.24689549 1146.18546442 -96.78808594 1146.18530273 C-99.09849884 1146.18747508 -101.4084221 1146.20563591 -103.71875 1146.22460938 C-116.8096018 1146.27467687 -131.04751437 1145.97624282 -143 1140 C-143.6440379 1132.27154518 -142.26585737 1125.58541731 -138 1119 C-132.65163732 1113.76192956 -126.75405322 1111.5999462 -119.6875 1109.5625 C-100.16961068 1103.42010542 -88.37035866 1090.73941684 -76 1075 C-74.98418585 1073.76668212 -73.96431733 1072.53667219 -72.9375 1071.3125 C-71.9784375 1070.1678125 -71.9784375 1070.1678125 -71 1069 C-71.66 1069 -72.32 1069 -73 1069 C-73.15606945 1051.36895463 -72.91466826 1033.75233592 -72.5625 1016.125 C-72.5330278 1014.58236984 -72.5330278 1014.58236984 -72.50296021 1013.00857544 C-72.44408594 1009.96657699 -72.38090984 1006.92469635 -72.31640625 1003.8828125 C-72.29968872 1003.01326431 -72.28297119 1002.14371613 -72.26574707 1001.24781799 C-72.11876694 994.68860715 -71.82604574 988.14037914 -71.51489258 981.58740234 C-71.0014754 970.63334034 -70.67080603 959.6822711 -70.4453125 948.71875 C-70.42437656 947.72100052 -70.40344063 946.72325104 -70.38187027 945.69526672 C-69.8197562 918.10330643 -69.84813922 890.50793169 -69.87143064 862.91165066 C-69.87520282 857.92563133 -69.87383714 852.93963188 -69.86962891 847.95361328 C-69.84665135 819.95585923 -69.86518801 791.96192803 -70.4453125 763.96875 C-70.46472775 763.0034285 -70.48414299 762.03810699 -70.50414658 761.04353333 C-70.68783271 752.20740854 -70.9330617 743.38865063 -71.49975586 734.56811523 C-72.15389291 724.36694674 -72.35991016 714.16013025 -72.55859375 703.94140625 C-72.57965117 702.8974576 -72.60070858 701.85350895 -72.6224041 700.77792549 C-73.12483909 675.35192167 -73.11764371 649.92775524 -73.06866455 624.49786377 C-73.05815429 618.4276161 -73.05380975 612.35736366 -73.04882812 606.28710938 C-73.03832564 594.52472792 -73.02142419 582.76236631 -73 571 C-73.61488281 570.95101562 -74.22976563 570.90203125 -74.86328125 570.8515625 C-75.67152344 570.77679687 -76.47976563 570.70203125 -77.3125 570.625 C-78.51326172 570.52058594 -78.51326172 570.52058594 -79.73828125 570.4140625 C-82 570 -82 570 -85 568 C-85.41998659 561.52094346 -84.69072986 555.2392621 -83.86328125 548.81640625 C-83.7435495 547.85528931 -83.62381775 546.89417236 -83.50045776 545.90393066 C-83.11033738 542.78934914 -82.71167038 539.67593348 -82.3125 536.5625 C-82.03998255 534.40227976 -81.76760413 532.24204198 -81.49536133 530.08178711 C-79.71668343 516.07359249 -77.79110282 502.09268213 -75.56176758 488.14868164 C-74.41021807 480.74268516 -73.71986958 473.4446678 -73.34831238 465.96878052 C-73.07679302 460.70082525 -72.49099193 455.61322517 -71.5 450.4375 C-71.23798084 448.99898888 -70.97755155 447.56018723 -70.71875 446.12109375 C-70.53505859 445.10764893 -70.53505859 445.10764893 -70.34765625 444.07373047 C-69.7867668 440.72808792 -69.39412559 437.36901589 -69 434 C-75.13234801 434.7665435 -79.72396166 436.80609412 -85 439.9375 C-92.08963304 444.12212962 -99.39870048 447.57262997 -106.9375 450.875 C-107.99130859 451.33898193 -109.04511719 451.80296387 -110.13085938 452.28100586 C-130.41027958 461.06736327 -130.41027958 461.06736327 -140.1875 458 C-147.01071846 453.14793354 -150.61777036 445.88938404 -153 438 C-153 437.01 -153 436.02 -153 435 C-149.91138451 435.93376747 -147.34138401 436.76010854 -144.6875 438.625 C-140.77917471 440.62460829 -137.30737915 440.55456557 -133 440 C-128.23617773 438.32384031 -126.20512414 436.53275518 -124 432 C-125.0725 432.0825 -126.145 432.165 -127.25 432.25 C-131 432 -131 432 -133.4375 430 C-133.953125 429.34 -134.46875 428.68 -135 428 C-133.59339538 423.78018613 -130.5597765 422.7064768 -126.875 420.625 C-121.70726041 417.66325201 -116.70148371 414.67284506 -112 411 C-111.41649495 408.45709375 -111.41649495 408.45709375 -112 406 C-112 404.68 -112 403.36 -112 402 C-111.01 401.34 -110.02 400.68 -109 400 C-108.66659529 396.95804573 -108.66659529 396.95804573 -109 394 C-110.15836186 392.62694322 -110.15836186 392.62694322 -113.32421875 392.71484375 C-119.12151838 392.78596833 -124.36096609 394.74762663 -129.8125 396.5625 C-131.85806824 397.23841583 -133.90615606 397.90676803 -135.95703125 398.56640625 C-136.85397705 398.86490479 -137.75092285 399.16340332 -138.67504883 399.47094727 C-141 400 -141 400 -144 399 C-137.22165431 396.08335606 -130.3318524 393.7793714 -123.27148438 391.66333008 C-119.86201775 390.84302515 -119.86201775 390.84302515 -117 389 C-116.83333333 386 -116.83333333 386 -117 383 C-118.74062809 381.25937191 -120.99778704 381.74438545 -123.375 381.6875 C-135.56627775 381.76823694 -147.5608324 384.9677444 -159 389 C-159 387.35 -159 385.7 -159 384 C-153.53003104 381.11020508 -148.07094635 378.85117955 -142.22265625 376.83203125 C-140.0589515 376.19706117 -140.0589515 376.19706117 -139 375 C-138.83333333 372 -138.83333333 372 -139 369 C-140.70256721 367.29743279 -142.79111162 367.74662517 -145.125 367.6875 C-151.78013472 367.70345956 -157.45007524 369.27361703 -163.75 371.22265625 C-166.95358803 371.98889906 -168.05514646 372.23387308 -171 371 C-172.36523438 369.12426758 -172.36523438 369.12426758 -173.59375 366.64453125 C-174.06055176 365.72317383 -174.52735352 364.80181641 -175.00830078 363.85253906 C-175.50056152 362.84932617 -175.99282227 361.84611328 -176.5 360.8125 C-177.56835126 358.69822659 -178.63871535 356.58496923 -179.7109375 354.47265625 C-180.52836426 352.85254639 -180.52836426 352.85254639 -181.36230469 351.19970703 C-183.85460753 346.33027932 -186.4854199 341.54069851 -189.125 336.75 C-190.1111204 334.94295018 -191.09680111 333.13566035 -192.08203125 331.328125 C-194.03890426 327.74391613 -196.01968347 324.17413804 -198.01171875 320.609375 C-198.94597465 318.90661314 -199.87959729 317.20350362 -200.8125 315.5 C-201.47113037 314.34322754 -201.47113037 314.34322754 -202.14306641 313.16308594 C-204.01455538 309.70909356 -205.00983302 307.64746661 -204.94921875 303.65625 C-203.95431299 300.87215158 -203.27163313 299.81976155 -201 298 C-199.11597157 297.63085651 -199.11597157 297.63085651 -196.95674133 297.63923645 C-195.72629593 297.63305046 -195.72629593 297.63305046 -194.47099304 297.6267395 C-193.12663933 297.64291824 -193.12663933 297.64291824 -191.75512695 297.65942383 C-190.80859253 297.65898575 -189.86205811 297.65854767 -188.88684082 297.65809631 C-185.75377883 297.66018871 -182.62124992 297.68354127 -179.48828125 297.70703125 C-177.31780795 297.71262559 -175.14733086 297.71689645 -172.97685242 297.71989441 C-167.26062586 297.73135587 -161.54462752 297.76083439 -155.82849121 297.79400635 C-149.99702034 297.82467912 -144.16551264 297.83839378 -138.33398438 297.85351562 C-126.88922258 297.88570272 -115.44463026 297.93691489 -104 298 C-103.35834221 294.64614648 -102.71777439 291.29208565 -102.07739258 287.93798828 C-101.89698677 286.99510452 -101.71658096 286.05222076 -101.53070831 285.08076477 C-100.57208814 280.05688118 -99.63629119 275.03138817 -98.76171875 269.9921875 C-96.74111738 258.40783649 -94.41115907 246.95853582 -91.5 235.5625 C-91.22760498 234.4801709 -90.95520996 233.3978418 -90.67456055 232.28271484 C-87.7859188 221.31725083 -84.5213299 208.98524851 -75 202 C-71.94337684 200.41323784 -68.79631613 199.09236795 -65.61328125 197.78125 C-64.6929158 197.39475784 -63.77255035 197.00826569 -62.82429504 196.61006165 C-52.36332131 192.25322208 -41.7795809 188.21214822 -31.1875 184.1875 C-27.34583745 182.72736822 -23.50632611 181.26176381 -19.66796875 179.79296875 C-18.81269089 179.46999313 -17.95741302 179.14701752 -17.07621765 178.81425476 C-7.13171311 175.04379473 -7.13171311 175.04379473 1.703125 169.23828125 C2.2909375 168.75939453 2.87875 168.28050781 3.484375 167.78710938 C4.06703125 167.30048828 4.6496875 166.81386719 5.25 166.3125 C11.4681146 161.13297135 11.4681146 161.13297135 16 160 C16.33 157.03 16.66 154.06 17 151 C16.0821875 151.04640625 15.164375 151.0928125 14.21875 151.140625 C0.17980918 151.55353502 0.17980918 151.55353502 -5 147 C-8.66083216 142.40583687 -9.1410331 137.00997867 -10.0625 131.375 C-10.30323242 129.97314453 -10.30323242 129.97314453 -10.54882812 128.54296875 C-10.87257852 126.6576753 -11.19371304 124.77193075 -11.51220703 122.88574219 C-12.02143581 119.87318755 -12.5326525 116.86125038 -13.05859375 113.8515625 C-13.21513428 112.94486816 -13.3716748 112.03817383 -13.53295898 111.10400391 C-13.79708254 109.02389332 -13.79708254 109.02389332 -15 108 C-15.12769026 106.33705706 -15.17591807 104.66779792 -15.1875 103 C-15.20167969 102.0925 -15.21585938 101.185 -15.23046875 100.25 C-15.04149147 97.58510009 -14.65606344 95.43183003 -14.015625 92.8671875 C-12.47628062 86.33812631 -12.61079416 79.73556318 -12.52148438 73.05859375 C-12.35733376 66.80485568 -11.4135408 61.48512759 -9.62524414 55.50048828 C-7.95705823 48.8290474 -9.37303013 41.20996759 -12.4453125 35.1484375 C-14.00267182 32.77240292 -14.00267182 32.77240292 -15.66015625 30.734375 C-18.42996363 27.14896836 -18.10557701 23.66327814 -18.0625 19.3125 C-18.05347656 18.13300781 -18.04445313 16.95351563 -18.03515625 15.73828125 C-18.01775391 14.38283203 -18.01775391 14.38283203 -18 13 C-17.01 12.67 -16.02 12.34 -15 12 C-14.67 12.66 -14.34 13.32 -14 14 C-13.9175 12.948125 -13.835 11.89625 -13.75 10.8125 C-12.93504195 6.66979658 -11.90309057 4.98847559 -9 2 C-5.4913604 -0.33909307 -4.12910567 -0.41291057 0 0 Z " fill="#B79D7D" transform="translate(578,45)" data-index="1" style="opacity: 1;"></path>
<path d="M0 0 C4.78049347 1.53626444 8.11333048 4.24650825 11.9375 7.375 C13.13235968 8.34331532 14.32895771 9.30948982 15.52734375 10.2734375 C16.05062256 10.70060059 16.57390137 11.12776367 17.11303711 11.56787109 C17.73573486 12.04047363 18.35843262 12.51307617 19 13 C19.8144458 13.62374512 20.6288916 14.24749023 21.46801758 14.89013672 C26.21140345 18.00603435 31.66443919 19.61636092 36.984375 21.484375 C38.15397766 21.90366272 39.32358032 22.32295044 40.52862549 22.75494385 C44.26635679 24.09437163 48.00768434 25.42345677 51.75 26.75 C79.78155601 36.69798565 79.78155601 36.69798565 90.390625 41.390625 C91.0903241 41.69917419 91.79002319 42.00772339 92.51092529 42.32562256 C104.0612155 47.59780656 108.2581492 54.13745285 112.66821289 65.65991211 C119.13750211 83.04027662 123.77379197 101.08702384 128.75 118.9375 C129.06626343 120.071875 129.38252686 121.20625 129.70837402 122.375 C135.24967067 142.30024914 140.52986575 162.28838668 145.68745422 182.31599808 C146.24567503 184.48320892 146.80485413 186.65017086 147.36413574 188.81710815 C148.25264772 192.26200903 149.13740472 195.70785436 150.01914978 199.15449333 C150.49507714 201.01348906 150.97313754 202.8719383 151.45129395 204.73036194 C157.57049014 228.76591936 157.57049014 228.76591936 157.4375 239.375 C157.42847656 240.27436279 157.41945313 241.17372559 157.41015625 242.1003418 C157.19517511 250.50028203 155.55706585 258.02279871 153 266 C152.75282227 266.81082031 152.50564453 267.62164062 152.25097656 268.45703125 C146.56446746 287.06742467 139.17823596 305.02885285 131.80981445 323.01971436 C130.63298388 325.89748552 129.46608044 328.77928018 128.296875 331.66015625 C106.15650043 385.84349957 106.15650043 385.84349957 100 392 C98.31391034 392.07205511 96.62499341 392.08386068 94.9375 392.0625 C94.01839844 392.05347656 93.09929687 392.04445313 92.15234375 392.03515625 C91.44207031 392.02355469 90.73179687 392.01195312 90 392 C90.03480469 392.72445313 90.06960938 393.44890625 90.10546875 394.1953125 C90.38950409 404.33943187 90.38950409 404.33943187 87 409 C82.98744449 413.17757402 79.89024706 416.20984491 74 417 C74.58011303 411.38015502 76.6630314 406.81615571 79 401.75 C79.36867188 400.9353125 79.73734375 400.120625 80.1171875 399.28125 C82.64006696 393.71986607 82.64006696 393.71986607 84 391 C84.928125 390.7525 85.85625 390.505 86.8125 390.25 C90.92302217 388.63803052 92.07652678 386.92388536 94 383 C93.74884479 376.92204387 89.25550376 373.65502276 85.11328125 369.7265625 C78.58141951 363.84115726 71.35271491 359.67917271 63 357 C62.90589844 357.6703125 62.81179688 358.340625 62.71484375 359.03125 C59.33741088 373.05774718 49.22816581 387.25158 38 396 C33.47178985 398.438267 29.03462089 398.90794882 24.0546875 397.41796875 C10.04379903 391.40152841 4.35677851 375.04637524 -0.95092773 361.89624023 C-1.25587158 361.12610596 -1.56081543 360.35597168 -1.875 359.5625 C-2.16125244 358.84199463 -2.44750488 358.12148926 -2.74243164 357.37915039 C-4.66914702 352.33795492 -5.96018437 347.29283202 -7 342 C-15.31262781 341.86574491 -23.47337607 342.24386399 -31.75 343 C-33.38582031 343.14308594 -33.38582031 343.14308594 -35.0546875 343.2890625 C-37.70357074 343.52142068 -40.35194196 343.75844982 -43 344 C-43 343.34 -43 342.68 -43 342 C-43.78238037 342.00523682 -44.56476074 342.01047363 -45.37084961 342.01586914 C-48.89305833 342.03657106 -52.4152543 342.04963838 -55.9375 342.0625 C-57.16919922 342.07087891 -58.40089844 342.07925781 -59.66992188 342.08789062 C-60.83974609 342.09111328 -62.00957031 342.09433594 -63.21484375 342.09765625 C-64.84087524 342.10551147 -64.84087524 342.10551147 -66.49975586 342.11352539 C-69 342 -69 342 -70 341 C-70.07179964 339.48071962 -70.08392007 337.95832518 -70.0625 336.4375 C-70.05347656 335.61121094 -70.04445313 334.78492188 -70.03515625 333.93359375 C-70.02355469 333.29550781 -70.01195312 332.65742187 -70 332 C-68.35 332 -66.7 332 -65 332 C-65 331.34 -65 330.68 -65 330 C-66.65 330 -68.3 330 -70 330 C-70 327.03 -70 324.06 -70 321 C-61.09 321 -52.18 321 -43 321 C-43 320.34 -43 319.68 -43 319 C-32.77 318.67 -22.54 318.34 -12 318 C-12.66 315.69 -13.32 313.38 -14 311 C-15.74952725 302.75130896 -16.80503581 294.34246312 -18 286 C-18.18916992 284.72946777 -18.37833984 283.45893555 -18.57324219 282.14990234 C-24.59776087 241.01237594 -24.11641495 198.22072198 -19 157 C-18.85546387 155.77200684 -18.71092773 154.54401367 -18.56201172 153.27880859 C-17.57316556 144.90044539 -16.46231218 136.54162384 -15.30145264 128.18566895 C-14.98424667 125.88578121 -14.6733322 123.58510822 -14.36376953 121.28417969 C-11.36431811 99.0222468 -7.90044104 76.88825387 -3.80371094 54.80029297 C-2.10496374 45.59415357 -0.55821014 36.38840646 0.71875 27.11328125 C0.84456955 26.20519714 0.9703891 25.29711304 1.10002136 24.36151123 C2.86198072 11.9554739 2.86198072 11.9554739 0 0 Z " fill="#2B3340" transform="translate(668,198)" data-index="2" style="opacity: 1;"></path>
<path d="M0 0 C-0.36351562 1.26650391 -0.36351562 1.26650391 -0.734375 2.55859375 C-6.71996794 24.80630394 -8.08355669 48.35011877 -9.58203125 71.2578125 C-9.67999308 72.75184223 -9.67999308 72.75184223 -9.77993393 74.27605438 C-11.34590865 98.77089677 -11.52066172 123.25952513 -11.61126709 147.79650879 C-11.6480676 157.05093734 -11.7085346 166.30523878 -11.76975632 175.55953217 C-11.78854574 178.74063593 -11.80046143 181.92170439 -11.81118774 185.10284424 C-11.8213978 187.05196209 -11.83175554 189.00107917 -11.84228516 190.95019531 C-11.84332748 191.80928497 -11.84436981 192.66837463 -11.84544373 193.55349731 C-11.8810383 198.92055427 -12.2447725 204.19568912 -12.76938248 209.5366478 C-13.03079989 212.32899047 -13.15587252 215.10452022 -13.21313477 217.90820312 C-13.62797104 233.90945733 -14.84258398 249.72465831 -16.52905273 265.64013672 C-16.9430099 269.55206901 -17.3425564 273.46528858 -17.74023438 277.37890625 C-18.00177896 279.90893961 -18.26411884 282.43889091 -18.52734375 284.96875 C-18.6451268 286.11782837 -18.76290985 287.26690674 -18.88426208 288.45080566 C-19.62312516 295.36976365 -20.64843857 302.17391706 -22 309 C-21.18917969 309.06058594 -20.37835937 309.12117188 -19.54296875 309.18359375 C-18.43566406 309.26738281 -17.32835937 309.35117187 -16.1875 309.4375 C-15.10855469 309.51871094 -14.02960938 309.59992188 -12.91796875 309.68359375 C-7.94218862 310.08542644 -2.97147828 310.54804743 2 311 C2 318.59 2 326.18 2 334 C-2.29191547 333.85972182 -6.58344302 333.71304153 -10.875 333.5625 C-12.70998047 333.50352539 -12.70998047 333.50352539 -14.58203125 333.44335938 C-15.74863281 333.40146484 -16.91523437 333.35957031 -18.1171875 333.31640625 C-19.19597168 333.27974854 -20.27475586 333.24309082 -21.38623047 333.20532227 C-24 333 -24 333 -26 332 C-26.03955811 332.55002686 -26.07911621 333.10005371 -26.11987305 333.66674805 C-26.78458368 341.49794466 -28.2606163 349.11469477 -29.8125 356.8125 C-30.1847168 358.72772461 -30.1847168 358.72772461 -30.56445312 360.68164062 C-32.82831095 372.00092975 -35.53662118 383.07851407 -40.875 393.375 C-41.22087158 394.05199951 -41.56674316 394.72899902 -41.9230957 395.42651367 C-45.36241153 401.98035194 -49.06831546 407.71657048 -56 411 C-68.92744461 414.89690426 -85.56255448 412.70657133 -98 408 C-99 407 -99 407 -99.13354492 403.07397461 C-99.07344469 397.93404357 -98.51947241 392.90992046 -97.86328125 387.81640625 C-97.7435495 386.85528931 -97.62381775 385.89417236 -97.50045776 384.90393066 C-97.11033738 381.78934914 -96.71167038 378.67593348 -96.3125 375.5625 C-96.03998255 373.40227976 -95.76760413 371.24204198 -95.49536133 369.08178711 C-93.71668343 355.07359249 -91.79110282 341.09268213 -89.56176758 327.14868164 C-88.41021807 319.74268516 -87.71986958 312.4446678 -87.34831238 304.96878052 C-87.07679302 299.70082525 -86.49099193 294.61322517 -85.5 289.4375 C-85.23798084 287.99898888 -84.97755155 286.56018723 -84.71875 285.12109375 C-84.53505859 284.10764893 -84.53505859 284.10764893 -84.34765625 283.07373047 C-83.7867668 279.72808792 -83.39412559 276.36901589 -83 273 C-89.13234801 273.7665435 -93.72396166 275.80609412 -99 278.9375 C-106.08963304 283.12212962 -113.39870048 286.57262997 -120.9375 289.875 C-121.99130859 290.33898193 -123.04511719 290.80296387 -124.13085938 291.28100586 C-144.41027958 300.06736327 -144.41027958 300.06736327 -154.1875 297 C-161.01071846 292.14793354 -164.61777036 284.88938404 -167 277 C-167 276.01 -167 275.02 -167 274 C-163.91138451 274.93376747 -161.34138401 275.76010854 -158.6875 277.625 C-154.77917471 279.62460829 -151.30737915 279.55456557 -147 279 C-142.23617773 277.32384031 -140.20512414 275.53275518 -138 271 C-139.0725 271.0825 -140.145 271.165 -141.25 271.25 C-145 271 -145 271 -147.4375 269 C-147.953125 268.34 -148.46875 267.68 -149 267 C-147.59339538 262.78018613 -144.5597765 261.7064768 -140.875 259.625 C-135.70726041 256.66325201 -130.70148371 253.67284506 -126 250 C-125.41649495 247.45709375 -125.41649495 247.45709375 -126 245 C-126 243.68 -126 242.36 -126 241 C-125.01 240.34 -124.02 239.68 -123 239 C-122.66659529 235.95804573 -122.66659529 235.95804573 -123 233 C-124.15836186 231.62694322 -124.15836186 231.62694322 -127.32421875 231.71484375 C-133.12151838 231.78596833 -138.36096609 233.74762663 -143.8125 235.5625 C-145.85806824 236.23841583 -147.90615606 236.90676803 -149.95703125 237.56640625 C-150.85397705 237.86490479 -151.75092285 238.16340332 -152.67504883 238.47094727 C-155 239 -155 239 -158 238 C-151.22165431 235.08335606 -144.3318524 232.7793714 -137.27148438 230.66333008 C-133.86201775 229.84302515 -133.86201775 229.84302515 -131 228 C-130.83333333 225 -130.83333333 225 -131 222 C-132.74062809 220.25937191 -134.99778704 220.74438545 -137.375 220.6875 C-149.56627775 220.76823694 -161.5608324 223.9677444 -173 228 C-173 226.35 -173 224.7 -173 223 C-167.53003104 220.11020508 -162.07094635 217.85117955 -156.22265625 215.83203125 C-154.0589515 215.19706117 -154.0589515 215.19706117 -153 214 C-152.83333333 211 -152.83333333 211 -153 208 C-154.70256721 206.29743279 -156.79111162 206.74662517 -159.125 206.6875 C-165.78013472 206.70345956 -171.45007524 208.27361703 -177.75 210.22265625 C-180.95358803 210.98889906 -182.05514646 211.23387308 -185 210 C-186.36523438 208.12426758 -186.36523438 208.12426758 -187.59375 205.64453125 C-188.06055176 204.72317383 -188.52735352 203.80181641 -189.00830078 202.85253906 C-189.50056152 201.84932617 -189.99282227 200.84611328 -190.5 199.8125 C-191.56835126 197.69822659 -192.63871535 195.58496923 -193.7109375 193.47265625 C-194.52836426 191.85254639 -194.52836426 191.85254639 -195.36230469 190.19970703 C-197.85460753 185.33027932 -200.4854199 180.54069851 -203.125 175.75 C-204.1111204 173.94295018 -205.09680111 172.13566035 -206.08203125 170.328125 C-208.03890426 166.74391613 -210.01968347 163.17413804 -212.01171875 159.609375 C-212.94597465 157.90661314 -213.87959729 156.20350362 -214.8125 154.5 C-215.47113037 153.34322754 -215.47113037 153.34322754 -216.14306641 152.16308594 C-218.01455538 148.70909356 -219.00983302 146.64746661 -218.94921875 142.65625 C-217.95431299 139.87215158 -217.27163313 138.81976155 -215 137 C-213.11597157 136.63085651 -213.11597157 136.63085651 -210.95674133 136.63923645 C-209.72629593 136.63305046 -209.72629593 136.63305046 -208.47099304 136.6267395 C-207.57475723 136.63752533 -206.67852142 136.64831116 -205.75512695 136.65942383 C-204.80859253 136.65898575 -203.86205811 136.65854767 -202.88684082 136.65809631 C-199.75377883 136.66018871 -196.62124992 136.68354127 -193.48828125 136.70703125 C-191.31780795 136.71262559 -189.14733086 136.71689645 -186.97685242 136.71989441 C-181.26062586 136.73135587 -175.54462752 136.76083439 -169.82849121 136.79400635 C-163.99702034 136.82467912 -158.16551264 136.83839378 -152.33398438 136.85351562 C-140.88922258 136.88570272 -129.44463026 136.93691489 -118 137 C-117.35834221 133.64614648 -116.71777439 130.29208565 -116.07739258 126.93798828 C-115.80678387 125.52366264 -115.80678387 125.52366264 -115.53070831 124.08076477 C-114.57208814 119.05688118 -113.63629119 114.03138817 -112.76171875 108.9921875 C-110.74111738 97.40783649 -108.41115907 85.95853582 -105.5 74.5625 C-105.22760498 73.4801709 -104.95520996 72.3978418 -104.67456055 71.28271484 C-101.7859188 60.31725083 -98.5213299 47.98524851 -89 41 C-85.94337684 39.41323784 -82.79631613 38.09236795 -79.61328125 36.78125 C-78.23273308 36.20151176 -78.23273308 36.20151176 -76.82429504 35.61006165 C-66.36332131 31.25322208 -55.7795809 27.21214822 -45.1875 23.1875 C-41.34583745 21.72736822 -37.50632611 20.26176381 -33.66796875 18.79296875 C-32.38505196 18.30850533 -32.38505196 18.30850533 -31.07621765 17.81425476 C-21.10291742 14.01756609 -21.10291742 14.01756609 -12.2265625 8.203125 C-11.33130859 7.47802734 -11.33130859 7.47802734 -10.41796875 6.73828125 C-9.53044922 6.00158203 -9.53044922 6.00158203 -8.625 5.25 C-2.2528626 0 -2.2528626 0 0 0 Z " fill="#2B3441" transform="translate(592,206)" data-index="3" style="opacity: 1;"></path>
<path d="M0 0 C1.69287785 0.95495674 3.35857037 1.9590934 5 3 C12.22362111 5.85935002 20.83227379 6.25977865 28.26953125 4.01171875 C39.10511223 1.0730638 52.39151224 1.50266008 62.46484375 6.50390625 C64.93734149 7.96302279 67.34034282 9.502376 69.75 11.0625 C74.66675123 14.18335995 79.64260793 15.40688572 85.29199219 16.53149414 C92.82278942 18.11050222 97.59779753 21.7635465 102 28 C102.309375 29.19625 102.61875 30.3925 102.9375 31.625 C104.32014707 36.01693777 106.20453103 36.51834721 110 39 C115.97545609 46.42446969 117.22192468 52.1346954 117.375 61.4375 C117.43107422 62.67790039 117.43107422 62.67790039 117.48828125 63.94335938 C117.66557421 76.81679845 110.85699974 87.55239773 104.3125 98.1875 C102.88595876 100.54146313 101.46669219 102.8997894 100.046875 105.2578125 C99.52475182 106.12162285 99.52475182 106.12162285 98.99208069 107.00288391 C95.90136651 112.12747564 92.94952321 117.32103239 90.0625 122.5625 C89.65620361 123.29944092 89.24990723 124.03638184 88.83129883 124.7956543 C85.00777655 131.76488881 83.53311224 136.93193756 85.82421875 144.84765625 C87.40581138 149.76031908 87.40581138 149.76031908 91 153 C95.41061518 161.79977517 92.82561884 172.85400727 91.26953125 182.15625 C91.08936966 183.27825806 90.90920807 184.40026611 90.72358704 185.55627441 C90.16051275 189.03951421 89.58277669 192.5200065 89 196 C88.82273376 197.06331543 88.64546753 198.12663086 88.46282959 199.22216797 C87.58615906 204.46564441 86.69787926 209.70707445 85.80322266 214.94750977 C79.35545117 252.74608171 73.13885271 290.75693036 70 329 C69.8618689 330.54494141 69.8618689 330.54494141 69.72094727 332.12109375 C65.99087624 379.09384802 70.68133809 424.73124754 78 471 C67.52526983 471.02317523 57.05054577 471.04094155 46.57579517 471.05181217 C41.71189785 471.05702964 36.84801808 471.06410672 31.98413086 471.07543945 C27.28979508 471.08630863 22.59547617 471.0922854 17.90112877 471.09487724 C16.11058982 471.09672421 14.32005179 471.10033086 12.52952003 471.10573006 C10.0207177 471.11299393 7.511985 471.11398868 5.00317383 471.11352539 C4.26374039 471.11712067 3.52430695 471.12071594 2.76246643 471.12442017 C-0.95251263 471.11700195 -4.38789284 470.89030053 -8 470 C-7.885354 468.91847656 -7.77070801 467.83695313 -7.65258789 466.72265625 C-7.09821582 461.48213782 -6.54820772 456.24116664 -6 451 C-5.89870789 450.0315918 -5.79741577 449.06318359 -5.6930542 448.06542969 C-1.84882808 411.97631423 -1.84882808 411.97631423 -0.09845924 375.74419022 C-0.00275201 373.07670231 0.22508187 370.4584665 0.49893188 367.80389404 C0.99491104 362.50606431 1.15126217 357.26850657 1.15771484 351.95019531 C1.16279556 351.00971344 1.16787628 350.06923157 1.17311096 349.10025024 C1.18373957 347.07122956 1.19238859 345.0421977 1.19923019 343.01316071 C1.21123189 339.7480359 1.23074977 336.48303129 1.25234985 333.21795654 C1.31314518 323.93701528 1.36709583 314.65608013 1.40136719 305.375 C1.49647679 280.96196041 1.82023768 256.62503607 3.41796875 232.2578125 C3.48037624 231.30376778 3.54278374 230.34972305 3.60708237 229.36676788 C7.17243649 176.06746458 7.17243649 176.06746458 13 161 C13.99 160.67 14.98 160.34 16 160 C16.33 157.03 16.66 154.06 17 151 C16.0821875 151.04640625 15.164375 151.0928125 14.21875 151.140625 C0.17980918 151.55353502 0.17980918 151.55353502 -5 147 C-8.66083216 142.40583687 -9.1410331 137.00997867 -10.0625 131.375 C-10.22298828 130.44042969 -10.38347656 129.50585938 -10.54882812 128.54296875 C-10.87257852 126.6576753 -11.19371304 124.77193075 -11.51220703 122.88574219 C-12.02143581 119.87318755 -12.5326525 116.86125038 -13.05859375 113.8515625 C-13.29340454 112.491521 -13.29340454 112.491521 -13.53295898 111.10400391 C-13.79708254 109.02389332 -13.79708254 109.02389332 -15 108 C-15.12769026 106.33705706 -15.17591807 104.66779792 -15.1875 103 C-15.20167969 102.0925 -15.21585938 101.185 -15.23046875 100.25 C-15.04149147 97.58510009 -14.65606344 95.43183003 -14.015625 92.8671875 C-12.47628062 86.33812631 -12.61079416 79.73556318 -12.52148438 73.05859375 C-12.35733376 66.80485568 -11.4135408 61.48512759 -9.62524414 55.50048828 C-7.95705823 48.8290474 -9.37303013 41.20996759 -12.4453125 35.1484375 C-14.00267182 32.77240292 -14.00267182 32.77240292 -15.66015625 30.734375 C-18.42996363 27.14896836 -18.10557701 23.66327814 -18.0625 19.3125 C-18.05347656 18.13300781 -18.04445313 16.95351563 -18.03515625 15.73828125 C-18.02355469 14.83464844 -18.01195312 13.93101563 -18 13 C-17.01 12.67 -16.02 12.34 -15 12 C-14.67 12.66 -14.34 13.32 -14 14 C-13.9175 12.948125 -13.835 11.89625 -13.75 10.8125 C-12.93504195 6.66979658 -11.90309057 4.98847559 -9 2 C-5.4913604 -0.33909307 -4.12910567 -0.41291057 0 0 Z " fill="#F4F4F2" transform="translate(578,45)" data-index="4" style="opacity: 1;"></path>
<path d="M0 0 C1.69287785 0.95495674 3.35857037 1.9590934 5 3 C12.22362111 5.85935002 20.83227379 6.25977865 28.26953125 4.01171875 C39.10511223 1.0730638 52.39151224 1.50266008 62.46484375 6.50390625 C64.93734149 7.96302279 67.34034282 9.502376 69.75 11.0625 C74.66675123 14.18335995 79.64260793 15.40688572 85.29199219 16.53149414 C92.82278942 18.11050222 97.59779753 21.7635465 102 28 C102.309375 29.19625 102.61875 30.3925 102.9375 31.625 C104.32014707 36.01693777 106.20453103 36.51834721 110 39 C115.97545609 46.42446969 117.22192468 52.1346954 117.375 61.4375 C117.43107422 62.67790039 117.43107422 62.67790039 117.48828125 63.94335938 C117.66557421 76.81679845 110.85699974 87.55239773 104.3125 98.1875 C102.88595876 100.54146313 101.46669219 102.8997894 100.046875 105.2578125 C99.52475182 106.12162285 99.52475182 106.12162285 98.99208069 107.00288391 C95.90136651 112.12747564 92.94952321 117.32103239 90.0625 122.5625 C89.65620361 123.29944092 89.24990723 124.03638184 88.83129883 124.7956543 C85.56254439 130.72998778 85.56254439 130.72998778 85.11328125 137.3125 C85.14357422 138.38886719 85.17386719 139.46523437 85.20507812 140.57421875 C85.27573587 142.82755862 85.36632886 145.08037692 85.47851562 147.33203125 C85.65882306 155.54820265 83.95674799 160.47654345 79 167 C78.53924072 167.61520508 78.07848145 168.23041016 77.60375977 168.86425781 C76.32226717 170.49676278 74.99408716 172.06551987 73.625 173.625 C73.15022217 174.17494629 72.67544434 174.72489258 72.1862793 175.29150391 C63.18567007 185.61997236 63.18567007 185.61997236 57.9765625 189.51171875 C50.93856487 194.86437212 48.29076995 202.05404509 45 210 C44.43539323 211.32368567 43.86906328 212.64663802 43.30078125 213.96875 C42.87152344 214.9690625 42.44226563 215.969375 42 217 C38.72783533 213.30656862 37.48975161 209.12970945 35.875 204.5625 C33.64075301 198.49228837 31.2047994 193.40879318 27.375 188.1875 C18.51882609 176.04621542 17.26512871 165.55045146 18 151 C17.01 151.04640625 16.02 151.0928125 15 151.140625 C7.45084518 151.39003379 1.37873087 151.53871235 -5 147 C-8.65702936 142.39922113 -9.14046678 137.01344183 -10.0625 131.375 C-10.22298828 130.44042969 -10.38347656 129.50585938 -10.54882812 128.54296875 C-10.87257852 126.6576753 -11.19371304 124.77193075 -11.51220703 122.88574219 C-12.02143581 119.87318755 -12.5326525 116.86125038 -13.05859375 113.8515625 C-13.29340454 112.491521 -13.29340454 112.491521 -13.53295898 111.10400391 C-13.79708254 109.02389332 -13.79708254 109.02389332 -15 108 C-15.12769026 106.33705706 -15.17591807 104.66779792 -15.1875 103 C-15.20167969 102.0925 -15.21585938 101.185 -15.23046875 100.25 C-15.04149147 97.58510009 -14.65606344 95.43183003 -14.015625 92.8671875 C-12.47628062 86.33812631 -12.61079416 79.73556318 -12.52148438 73.05859375 C-12.35733376 66.80485568 -11.4135408 61.48512759 -9.62524414 55.50048828 C-7.95705823 48.8290474 -9.37303013 41.20996759 -12.4453125 35.1484375 C-14.00267182 32.77240292 -14.00267182 32.77240292 -15.66015625 30.734375 C-18.42996363 27.14896836 -18.10557701 23.66327814 -18.0625 19.3125 C-18.05347656 18.13300781 -18.04445313 16.95351563 -18.03515625 15.73828125 C-18.02355469 14.83464844 -18.01195312 13.93101563 -18 13 C-17.01 12.67 -16.02 12.34 -15 12 C-14.67 12.66 -14.34 13.32 -14 14 C-13.9175 12.948125 -13.835 11.89625 -13.75 10.8125 C-12.93504195 6.66979658 -11.90309057 4.98847559 -9 2 C-5.4913604 -0.33909307 -4.12910567 -0.41291057 0 0 Z " fill="#EAAE7B" transform="translate(578,45)" data-index="5" style="opacity: 1;"></path>
<path d="M0 0 C0.82871109 -0.00412399 1.65742218 -0.00824799 2.51124573 -0.01249695 C3.41683228 -0.00171112 4.32241882 0.00907471 5.25544739 0.02018738 C6.21173538 0.0197493 7.16802338 0.01931122 8.15328979 0.01885986 C11.31881523 0.02095235 14.48381313 0.04430539 17.64924622 0.0677948 C19.8421398 0.07338911 22.03503712 0.07765998 24.22793579 0.08065796 C30.00334501 0.09211968 35.77852837 0.12159844 41.55384827 0.1547699 C47.44564254 0.18544209 53.33747326 0.1991572 59.22932434 0.21427917 C70.79257469 0.24646674 82.35565731 0.29767924 93.91877747 0.36076355 C93.91877747 1.02076355 93.91877747 1.68076355 93.91877747 2.36076355 C94.49885559 2.30275574 95.07893372 2.24474792 95.67658997 2.1849823 C96.45776184 2.13986511 97.23893372 2.09474792 98.04377747 2.04826355 C98.80948059 1.99025574 99.57518372 1.93224792 100.36408997 1.8724823 C104.072259 2.5812302 106.38537246 4.68731785 108.91877747 7.36076355 C110.56695236 9.88272247 111.79207697 12.53592609 113.02033997 15.28263855 C113.5578186 16.43493958 113.5578186 16.43493958 114.1061554 17.61051941 C115.26588644 20.10444875 116.40467755 22.60735332 117.54377747 25.11076355 C118.34931206 26.8514111 119.15645412 28.59131562 119.96516418 30.33049011 C121.56636734 33.77665483 123.16114112 37.22566974 124.75080872 40.6771698 C127.44813711 46.52118577 130.23639991 52.31882473 133.04377747 58.11076355 C138.47392795 69.37470823 143.80530549 80.6848246 149.1028595 92.01164246 C152.06629542 98.34210341 155.04342504 104.65884393 158.16096497 110.91545105 C158.87035217 112.35162781 158.87035217 112.35162781 159.59407043 113.81681824 C160.44174702 115.52466941 161.30164671 117.226542 162.17707825 118.92033386 C164.68383059 123.99521945 165.60220864 127.68584395 164.91877747 133.36076355 C163.84724426 135.05583191 163.84724426 135.05583191 161.91877747 136.36076355 C159.41149715 136.69146985 157.1374036 136.84903535 154.62580872 136.8724823 C153.91978012 136.8904335 153.21375153 136.9083847 152.48632812 136.92687988 C150.23470505 136.98099533 147.98329404 137.01488077 145.73127747 137.04826355 C144.20325315 137.08143574 142.67525683 137.11592532 141.14729309 137.15177917 C137.40460757 137.2367218 133.66198506 137.30352603 129.91877747 137.36076355 C130.24877747 140.33076355 130.57877747 143.30076355 130.91877747 146.36076355 C130.25877747 146.36076355 129.59877747 146.36076355 128.91877747 146.36076355 C128.25877747 147.02076355 127.59877747 147.68076355 126.91877747 148.36076355 C127.24877747 144.40076355 127.57877747 140.44076355 127.91877747 136.36076355 C121.78642945 137.12730705 117.1948158 139.16685767 111.91877747 142.29826355 C104.82914442 146.48289317 97.52007699 149.93339352 89.98127747 153.23576355 C88.92746887 153.69974548 87.87366028 154.16372742 86.78791809 154.64176941 C66.50849788 163.42812682 66.50849788 163.42812682 56.73127747 160.36076355 C49.908059 155.50869709 46.3010071 148.25014759 43.91877747 140.36076355 C43.91877747 139.37076355 43.91877747 138.38076355 43.91877747 137.36076355 C47.00739296 138.29453102 49.57739346 139.12087208 52.23127747 140.98576355 C56.13960276 142.98537184 59.61139832 142.91532912 63.91877747 142.36076355 C68.68259974 140.68460386 70.71365333 138.89351873 72.91877747 134.36076355 C71.84627747 134.44326355 70.77377747 134.52576355 69.66877747 134.61076355 C65.91877747 134.36076355 65.91877747 134.36076355 63.48127747 132.36076355 C62.96565247 131.70076355 62.45002747 131.04076355 61.91877747 130.36076355 C63.32538209 126.14094968 66.35900097 125.06724035 70.04377747 122.98576355 C75.21151706 120.02401556 80.21729375 117.03360861 84.91877747 113.36076355 C85.50228251 110.8178573 85.50228251 110.8178573 84.91877747 108.36076355 C84.91877747 107.04076355 84.91877747 105.72076355 84.91877747 104.36076355 C85.90877747 103.70076355 86.89877747 103.04076355 87.91877747 102.36076355 C88.25218217 99.31880928 88.25218217 99.31880928 87.91877747 96.36076355 C86.7604156 94.98770677 86.7604156 94.98770677 83.59455872 95.0756073 C77.79725908 95.14673188 72.55781137 97.10839018 67.10627747 98.92326355 C65.06070923 99.59917938 63.0126214 100.26753158 60.96174622 100.9271698 C60.06480042 101.22566833 59.16785461 101.52416687 58.24372864 101.83171082 C55.91877747 102.36076355 55.91877747 102.36076355 52.91877747 101.36076355 C59.69712316 98.44411961 66.58692507 96.14013495 73.64729309 94.02409363 C77.05675972 93.2037887 77.05675972 93.2037887 79.91877747 91.36076355 C80.08544413 88.36076355 80.08544413 88.36076355 79.91877747 85.36076355 C78.17814938 83.62013546 75.92099042 84.105149 73.54377747 84.04826355 C61.35249971 84.12900049 49.35794506 87.32850795 37.91877747 91.36076355 C37.91877747 89.71076355 37.91877747 88.06076355 37.91877747 86.36076355 C43.38874643 83.47096863 48.84783111 81.2119431 54.69612122 79.1927948 C56.85982596 78.55782472 56.85982596 78.55782472 57.91877747 77.36076355 C58.08544413 74.36076355 58.08544413 74.36076355 57.91877747 71.36076355 C56.21621025 69.65819634 54.12766585 70.10738872 51.79377747 70.04826355 C45.13864274 70.06422311 39.46870222 71.63438058 33.16877747 73.5834198 C29.96518944 74.34966261 28.86363101 74.59463663 25.91877747 73.36076355 C24.55354309 71.48503113 24.55354309 71.48503113 23.32502747 69.0052948 C22.85822571 68.08393738 22.39142395 67.16257996 21.91047668 66.21330261 C21.41821594 65.21008972 20.9259552 64.20687683 20.41877747 63.17326355 C19.3504262 61.05899014 18.28006212 58.94573278 17.20783997 56.8334198 C16.66288879 55.75334656 16.11793762 54.67327332 15.55647278 53.56047058 C13.06416993 48.69104287 10.43335757 43.90146206 7.79377747 39.11076355 C6.80765707 37.30371373 5.82197636 35.4964239 4.83674622 33.68888855 C2.87987321 30.10467968 0.899094 26.53490159 -1.09294128 22.97013855 C-2.02719719 21.26737669 -2.96081983 19.56426717 -3.89372253 17.86076355 C-4.33280945 17.08958191 -4.77189636 16.31840027 -5.22428894 15.52384949 C-7.09577791 12.06985711 -8.09105556 10.00823016 -8.03044128 6.01701355 C-6.47443219 1.66274943 -4.6518317 -0.01786875 0 0 Z " fill="#4A4E56" transform="translate(381.0812225341797,342.6392364501953)" data-index="6" style="opacity: 1;"></path>
<path d="M0 0 C1.69287785 0.95495674 3.35857037 1.9590934 5 3 C12.22362111 5.85935002 20.83227379 6.25977865 28.26953125 4.01171875 C39.10511223 1.0730638 52.39151224 1.50266008 62.46484375 6.50390625 C64.93734149 7.96302279 67.34034282 9.502376 69.75 11.0625 C74.66675123 14.18335995 79.64260793 15.40688572 85.29199219 16.53149414 C92.82278942 18.11050222 97.59779753 21.7635465 102 28 C102.309375 29.19625 102.61875 30.3925 102.9375 31.625 C104.32014707 36.01693777 106.20453103 36.51834721 110 39 C115.97545609 46.42446969 117.22192468 52.1346954 117.375 61.4375 C117.43107422 62.67790039 117.43107422 62.67790039 117.48828125 63.94335938 C117.66503642 76.7777483 110.89126558 87.51281821 104.375 98.125 C103.66615197 99.29657738 102.95848397 100.46886947 102.25195312 101.6418457 C101.18847902 103.4070578 100.12432852 105.17181094 99.05621338 106.93421936 C95.79852055 112.3107248 92.63597246 117.73936756 89.5 123.1875 C89.03770996 123.98881348 88.57541992 124.79012695 88.09912109 125.61572266 C87.06473417 127.40970604 86.0321252 129.20471444 85 131 C82.12655694 130.42411162 81.1143369 130.11087214 78.9375 128 C76.04419529 123.52004432 74.06884884 118.82280231 73.9375 113.4375 C75.3303786 110.24207262 77.32260021 107.74936191 79.52734375 105.0625 C82.42420202 101.00536163 83.27777873 97.44461333 83.25 92.5 C83.25515625 91.5821875 83.2603125 90.664375 83.265625 89.71875 C82.97989975 86.79426799 82.29436432 84.63063252 81 82 C79.32171592 81.03375833 79.32171592 81.03375833 77 81 C75.700625 80.896875 74.40125 80.79375 73.0625 80.6875 C70.19053765 80.75651203 68.99333163 81.00349296 66.375 82.375 C63.45714711 85.5999953 61.59158676 89.08699421 59.625 92.953125 C58 95 58 95 55.375 95.359375 C53 95 53 95 52 94 C51.94610913 92.04196493 51.90725783 90.08351091 51.875 88.125 C51.54387749 82.7921848 50.58989855 79.80045517 47.4375 75.5 C42.44114474 68.52145063 43.25033675 61.77910322 44.53125 53.61328125 C44.76328125 52.31970703 44.76328125 52.31970703 45 51 C39.73242954 46.65192435 36.45808995 45.26853375 29.6875 45.36328125 C28.91494873 45.35290329 28.14239746 45.34252533 27.34643555 45.33183289 C24.89716259 45.30234276 22.44941684 45.30549476 20 45.3125 C17.55101285 45.30356385 15.10242609 45.28745589 12.65356445 45.2610321 C11.13654242 45.24628943 9.61936422 45.24220995 8.10229492 45.25080872 C3.3279959 45.22527347 -0.51553455 44.48220987 -5 43 C-5.66 44.98 -6.32 46.96 -7 49 C-7.66 48.67 -8.32 48.34 -9 48 C-9.421875 46.03125 -9.421875 46.03125 -9.75 43.5 C-10.65112279 38.39363754 -12.59521981 35.03920265 -15.66015625 30.91015625 C-18.3054139 27.13892887 -18.10670788 23.77749573 -18.0625 19.3125 C-18.05347656 18.13300781 -18.04445313 16.95351563 -18.03515625 15.73828125 C-18.02355469 14.83464844 -18.01195312 13.93101563 -18 13 C-17.01 12.67 -16.02 12.34 -15 12 C-14.67 12.66 -14.34 13.32 -14 14 C-13.9175 12.948125 -13.835 11.89625 -13.75 10.8125 C-12.93504195 6.66979658 -11.90309057 4.98847559 -9 2 C-5.4913604 -0.33909307 -4.12910567 -0.41291057 0 0 Z " fill="#272B33" transform="translate(578,45)" data-index="7"></path>
<path d="M0 0 C2.05843336 0.48165903 4.11287397 0.98055388 6.1640625 1.4921875 C15.04300213 3.43496466 23.81662256 3.56141203 32.875 3.6875 C34.54559799 3.72076915 36.21617198 3.75526716 37.88671875 3.79101562 C41.92434355 3.87479937 45.96192435 3.94211217 50 4 C50.81694231 6.70706344 51.62866494 9.41551396 52.4375 12.125 C52.78264648 13.26582031 52.78264648 13.26582031 53.13476562 14.4296875 C55.25531766 21.55965957 56.19394425 28.40430239 56.5625 35.8125 C56.6049585 36.63403564 56.64741699 37.45557129 56.69116211 38.30200195 C57.08305692 46.53652407 57.09497226 54.75851812 57 63 C53.33674124 65.23552714 49.55935443 65.6690246 45.375 66.125 C44.60736328 66.21354248 43.83972656 66.30208496 43.04882812 66.39331055 C38.13987242 66.88776194 33.31624876 67.03089816 28.3828125 66.94921875 C27.24408691 66.93036621 26.10536133 66.91151367 24.93212891 66.89208984 C22.69151654 66.84013084 20.45129094 66.76468273 18.21240234 66.66259766 C11.48033075 66.49210006 7.06788549 67.42135515 1.20214844 70.75073242 C-1.63075617 72.35782476 -4.51081917 73.31968775 -7.625 74.25 C-8.64851563 74.56453125 -9.67203125 74.8790625 -10.7265625 75.203125 C-17.09752906 76.75405242 -23.40798754 77.15727625 -29.9453125 77.16796875 C-30.67765106 77.17129715 -31.40998962 77.17462555 -32.16452026 77.17805481 C-33.70570251 77.18308292 -35.24689549 77.18546442 -36.78808594 77.18530273 C-39.09849884 77.18747508 -41.4084221 77.20563591 -43.71875 77.22460938 C-56.8096018 77.27467687 -71.04751437 76.97624282 -83 71 C-83.6440379 63.27154518 -82.26585737 56.58541731 -78 50 C-72.65163732 44.76192956 -66.75405322 42.5999462 -59.6875 40.5625 C-39.45973399 34.19670305 -27.02981128 20.51883322 -14.46875 3.984375 C-10.16717459 -1.12972022 -6.13733473 -0.78304099 0 0 Z " fill="#47372B" transform="translate(518,1114)" data-index="8" style="opacity: 1;"></path>
<path d="M0 0 C1.25361328 0.00322266 2.50722656 0.00644531 3.79882812 0.00976562 C5.76432617 0.02233398 5.76432617 0.02233398 7.76953125 0.03515625 C9.10481606 0.04017308 10.44010266 0.04473566 11.77539062 0.04882812 C15.04431598 0.0606293 18.31315116 0.07709328 21.58203125 0.09765625 C21.94554687 1.07863281 22.3090625 2.05960938 22.68359375 3.0703125 C24.30025701 7.41889764 25.93683163 11.75979427 27.58203125 16.09765625 C27.96633301 17.11375977 27.96633301 17.11375977 28.35839844 18.15039062 C31.88956255 27.42835124 35.82804288 36.2700362 41.22265625 44.64453125 C44.52077582 49.79984436 46.37504153 54.07958733 47.2578125 60.1640625 C47.38995147 62.09905591 47.38995147 62.09905591 48.58203125 63.09765625 C49.07145559 66.49884565 49.11470581 69.7004971 48.58203125 73.09765625 C46.38338166 75.48476152 45.50614292 76.01081236 42.58203125 77.09765625 C41.68677734 77.43297363 40.79152344 77.76829102 39.86914062 78.11376953 C31.52482778 80.92340325 24.04377395 81.73080283 15.26953125 81.59765625 C14.00294678 81.58702148 12.7363623 81.57638672 11.43139648 81.56542969 C-1.08778465 81.31194976 -14.06401418 80.45161082 -23.41796875 71.09765625 C-23.54296875 67.97265625 -23.54296875 67.97265625 -23.41796875 65.09765625 C-24.03671875 64.95328125 -24.65546875 64.80890625 -25.29296875 64.66015625 C-27.41796875 64.09765625 -27.41796875 64.09765625 -29.41796875 63.09765625 C-29.46797956 57.78150756 -29.50397273 52.46550043 -29.52783203 47.14916992 C-29.53779469 45.34641123 -29.55136971 43.54366829 -29.56884766 41.7409668 C-29.69835102 28.02503687 -28.59451541 15.48453148 -25.41796875 2.09765625 C-24.29777344 2.03707031 -23.17757812 1.97648437 -22.0234375 1.9140625 C-20.55076891 1.82964201 -19.07811331 1.74499476 -17.60546875 1.66015625 C-16.86748047 1.62083984 -16.12949219 1.58152344 -15.36914062 1.54101562 C-10.07029667 1.22931892 -5.32971374 -0.02411635 0 0 Z " fill="#48382C" transform="translate(728.41796875,1117.90234375)" data-index="9"></path>
<path d="M0 0 C2 2 2 2 2.375 4.9375 C2 8 2 8 0.48828125 9.51171875 C-3.53027608 11.91528287 -7.96619379 13.1792628 -12.41992188 14.57421875 C-14.81380443 15.34870993 -14.81380443 15.34870993 -18 17 C-19.11808335 19.57749518 -19.11808335 19.57749518 -19 22 C-17.85337891 21.51080078 -17.85337891 21.51080078 -16.68359375 21.01171875 C-4.4566435 16.0238293 8.66648178 12.40329564 22 14 C24 16 24 16 24.375 18.9375 C24 22 24 22 22.31542969 23.57739258 C19.76594704 25.14380289 17.44700066 25.97949425 14.578125 26.82421875 C13.04091797 27.28344727 13.04091797 27.28344727 11.47265625 27.75195312 C10.40917969 28.06068359 9.34570312 28.36941406 8.25 28.6875 C7.17105469 29.00783203 6.09210938 29.32816406 4.98046875 29.65820312 C2.32240309 30.44621374 -0.33768098 31.22650555 -3 32 C-0.51963076 31.40045063 1.95946579 30.79658281 4.4375 30.1875 C5.17162109 30.00735352 5.90574219 29.82720703 6.66210938 29.64160156 C10.51957787 28.67808711 14.26501381 27.62674094 18 26.25 C22.16335838 24.78763036 25.59980265 24.61401778 30 25 C32 27 32 27 32.375 29.9375 C32 33 32 33 30 34.875 C29.34 35.24625 28.68 35.6175 28 36 C28.495 39.96 28.495 39.96 29 44 C21.77126388 49.75348385 13.95427781 54.33929034 6 59 C7.22007944 61.6905528 7.22007944 61.6905528 9 64 C11.32817964 64.36760731 13.6618385 64.70241581 16 65 C14.73090537 68.91304179 13.53743024 70.85610288 10 73 C3.29560469 75.23479844 -1.35977101 74.60160612 -7.68896484 71.59277344 C-13.99082552 68.34407419 -18.39091893 65.40948253 -21.87109375 59.02734375 C-23.02794376 56.72319799 -23.02794376 56.72319799 -25.6875 54.375 C-28.47133379 51.51592745 -29.47044987 48.65761987 -31 45 C-32.051875 44.13375 -32.051875 44.13375 -33.125 43.25 C-35.85233469 39.97719837 -35.57793494 36.8178218 -35.7265625 32.65625 C-36.00718673 29.93018603 -36.70421695 28.37560227 -38 26 C-39.32033796 17.91293 -34.30309804 11.45464706 -30 5 C-27.19158256 3.95053875 -24.50926704 3.08536417 -21.625 2.3125 C-20.81804687 2.09263428 -20.01109375 1.87276855 -19.1796875 1.64624023 C-12.85749132 0.02101803 -6.52081203 -1.10620918 0 0 Z " fill="#E9AC79" transform="translate(438,412)" data-index="10"></path>
<path d="M0 0 C0.33 0 0.66 0 1 0 C1.06058594 1.14339844 1.12117187 2.28679687 1.18359375 3.46484375 C1.26798428 4.95574305 1.35263302 6.44662775 1.4375 7.9375 C1.47681641 8.69224609 1.51613281 9.44699219 1.55664062 10.22460938 C1.44038024 13.91944187 1.44038024 13.91944187 3 17 C3.07325168 19.86267567 3.09238205 22.700719 3.0625 25.5625 C3.05798828 26.36880859 3.05347656 27.17511719 3.04882812 28.00585938 C3.03700518 30.00393756 3.01906914 32.00197783 3 34 C-0.66325876 36.23552714 -4.44064557 36.6690246 -8.625 37.125 C-9.39263672 37.21354248 -10.16027344 37.30208496 -10.95117188 37.39331055 C-15.86012758 37.88776194 -20.68375124 38.03089816 -25.6171875 37.94921875 C-26.75591309 37.93036621 -27.89463867 37.91151367 -29.06787109 37.89208984 C-31.30848346 37.84013084 -33.54870906 37.76468273 -35.78759766 37.66259766 C-42.51966925 37.49210006 -46.93211451 38.42135515 -52.79785156 41.75073242 C-55.63075617 43.35782476 -58.51081917 44.31968775 -61.625 45.25 C-62.64851563 45.56453125 -63.67203125 45.8790625 -64.7265625 46.203125 C-71.09752906 47.75405242 -77.40798754 48.15727625 -83.9453125 48.16796875 C-84.67765106 48.17129715 -85.40998962 48.17462555 -86.16452026 48.17805481 C-87.70570251 48.18308292 -89.24689549 48.18546442 -90.78808594 48.18530273 C-93.09849884 48.18747508 -95.4084221 48.20563591 -97.71875 48.22460938 C-110.8096018 48.27467687 -125.04751437 47.97624282 -137 42 C-137 39.03 -137 36.06 -137 33 C-134 32 -134 32 -131.1875 33.3125 C-120.98258185 37.95446264 -108.44939454 37.32118464 -97.44189453 37.26074219 C-95.134171 37.25004252 -92.8272311 37.2606959 -90.51953125 37.2734375 C-70.80997693 37.5150951 -70.80997693 37.5150951 -52.5625 31.125 C-50.04724928 29.73963678 -47.52530271 28.36694542 -45 27 C-44.39921631 26.65839844 -43.79843262 26.31679687 -43.17944336 25.96484375 C-35.20340606 21.88248908 -26.18726328 21.09519822 -17.4375 19.75 C-15.74395909 19.48030414 -14.05059741 19.20948031 -12.35742188 18.9375 C-8.2404086 18.27652087 -4.12074262 17.63887482 0 17 C0 11.39 0 5.78 0 0 Z " fill="#342A22" transform="translate(572,1143)" data-index="11"></path>
<path d="M0 0 C1.65 7.26 3.3 14.52 5 22 C-6.90333349 24.31453707 -18.92254368 25.08877028 -31 26 C-31 25.34 -31 24.68 -31 24 C-32.17357056 24.00785522 -32.17357056 24.00785522 -33.37084961 24.01586914 C-36.89305833 24.03657106 -40.4152543 24.04963838 -43.9375 24.0625 C-45.16919922 24.07087891 -46.40089844 24.07925781 -47.66992188 24.08789062 C-48.83974609 24.09111328 -50.00957031 24.09433594 -51.21484375 24.09765625 C-52.84087524 24.10551147 -52.84087524 24.10551147 -54.49975586 24.11352539 C-57 24 -57 24 -58 23 C-58.07179964 21.48071962 -58.08392007 19.95832518 -58.0625 18.4375 C-58.05347656 17.61121094 -58.04445313 16.78492188 -58.03515625 15.93359375 C-58.02355469 15.29550781 -58.01195312 14.65742187 -58 14 C-56.35 14 -54.7 14 -53 14 C-53 13.34 -53 12.68 -53 12 C-54.65 12 -56.3 12 -58 12 C-58 9.03 -58 6.06 -58 3 C-49.09 3 -40.18 3 -31 3 C-31 2.34 -31 1.68 -31 1 C-27.52099567 0.82982885 -24.041776 0.66451529 -20.5625 0.5 C-19.58861328 0.45230469 -18.61472656 0.40460937 -17.61132812 0.35546875 C-16.64775391 0.31035156 -15.68417969 0.26523437 -14.69140625 0.21875 C-13.81685791 0.17685547 -12.94230957 0.13496094 -12.04125977 0.09179688 C-8.02921707 -0.02930195 -4.01386989 0 0 0 Z " fill="#382B22" transform="translate(656,516)" data-index="12"></path>
<path d="M0 0 C1.81563796 0.02258592 3.63106597 0.07386649 5.4453125 0.1484375 C6.4053418 0.16986816 7.36537109 0.19129883 8.35449219 0.21337891 C11.4277951 0.29078579 14.49828634 0.4064262 17.5703125 0.5234375 C19.66142989 0.5817581 21.75257597 0.63905946 23.84375 0.6953125 C25.83602599 0.7603651 27.82822004 0.82798827 29.8203125 0.8984375 C30.76632324 0.9288916 31.71233398 0.9593457 32.68701172 0.99072266 C33.56115723 1.02987793 34.43530273 1.0690332 35.3359375 1.109375 C36.10711914 1.1407959 36.87830078 1.1722168 37.67285156 1.20458984 C39.5703125 1.5234375 39.5703125 1.5234375 41.5703125 3.5234375 C26.89527006 13.5265426 -0.02865493 30.87600658 -18.4296875 27.5234375 C-24.34947401 25.66624957 -27.347259 21.68390768 -30.4296875 16.5234375 C-34.4296875 8.17775849 -34.4296875 8.17775849 -34.4296875 3.5234375 C-31.34107201 4.45720497 -28.77107151 5.28354604 -26.1171875 7.1484375 C-22.20939425 9.14777358 -18.73669504 9.07893494 -14.4296875 8.5234375 C-10.67367236 7.17694151 -8.9399964 6.37566622 -6.87890625 2.93359375 C-4.13990162 0.23827341 -3.64930414 0.15466611 0 0 Z " fill="#2B3340" transform="translate(459.4296875,476.4765625)" data-index="13"></path>
<path d="M0 0 C0.66 0 1.32 0 2 0 C3.99623529 6.02155951 5.96900424 12.0504583 7.92651367 18.0847168 C8.59347911 20.13167736 9.26557274 22.17697504 9.94311523 24.22045898 C16.75171662 44.7769079 16.75171662 44.7769079 16.93188477 54.37231445 C16.91329053 57.0502599 16.91329053 57.0502599 17.64746094 59.78881836 C18.13033542 64.18718962 17.02693451 67.63381091 15.76171875 71.828125 C15.52089066 72.65834167 15.28006256 73.48855835 15.03193665 74.34393311 C14.52248371 76.09042338 14.0069122 77.83513915 13.4855957 79.578125 C12.68717323 82.25109396 11.90953431 84.92946556 11.13476562 87.609375 C10.63662603 89.30764687 10.13731748 91.00557638 9.63671875 92.703125 C9.40329269 93.50518372 9.16986664 94.30724243 8.92936707 95.13360596 C7.23204207 100.76795793 7.23204207 100.76795793 5 103 C-4.14179705 70.05658721 -2.03759167 33.76580487 0 0 Z " fill="#F4F4F5" transform="translate(743,384)" data-index="14"></path>
<path d="M0 0 C1.36916565 0.00539291 1.36916565 0.00539291 2.76599121 0.01089478 C3.72198715 0.01074875 4.67798309 0.01060272 5.66294861 0.01045227 C8.83916452 0.01115181 12.01532259 0.01894614 15.19152832 0.02676392 C17.387283 0.02862795 19.58303809 0.03005192 21.77879333 0.03105164 C27.5705784 0.03487798 33.36233857 0.04470926 39.15411377 0.05575562 C45.05915998 0.06596724 50.9642102 0.07054872 56.8692627 0.07559204 C68.46497679 0.08633142 80.06067236 0.10340923 91.65637207 0.12442017 C91.65637207 0.78442017 91.65637207 1.44442017 91.65637207 2.12442017 C92.2364502 2.06641235 92.81652832 2.00840454 93.41418457 1.94863892 C94.19535645 1.90352173 94.97652832 1.85840454 95.78137207 1.81192017 C96.5470752 1.75391235 97.31277832 1.69590454 98.10168457 1.63613892 C101.80985361 2.34488682 104.12296706 4.45097446 106.65637207 7.12442017 C108.30454696 9.64637909 109.52967157 12.29958271 110.75793457 15.04629517 C111.29541321 16.19859619 111.29541321 16.19859619 111.84375 17.37417603 C113.00348104 19.86810537 114.14227216 22.37100994 115.28137207 24.87442017 C116.08690667 26.61506772 116.89404873 28.35497223 117.70275879 30.09414673 C119.30396194 33.54031144 120.89873573 36.98932636 122.48840332 40.44082642 C125.18573171 46.28484238 127.97399452 52.08248134 130.78137207 57.87442017 C136.21152255 69.13836485 141.54290009 80.44848121 146.8404541 91.77529907 C149.80389002 98.10576003 152.78101965 104.42250055 155.89855957 110.67910767 C156.60794678 112.11528442 156.60794678 112.11528442 157.33166504 113.58047485 C158.17934163 115.28832603 159.03924132 116.99019862 159.91467285 118.68399048 C162.41514153 123.74615488 163.35019301 127.4623457 162.65637207 133.12442017 C161.66637207 133.78442017 160.67637207 134.44442017 159.65637207 135.12442017 C159.55775879 133.97779907 159.55775879 133.97779907 159.45715332 132.80801392 C158.32164675 127.58468368 156.09343129 123.01751871 153.84387207 118.18692017 C153.40494629 117.22334595 152.96602051 116.25977173 152.51379395 115.26699829 C150.6563269 111.22914646 148.79547599 107.25349301 146.51965332 103.43301392 C144.78416985 100.35134829 143.59334802 97.4309063 142.41174316 94.12002563 C141.17480302 90.85216891 139.56983065 87.78840527 137.96887207 84.68692017 C134.98512872 78.8015935 132.05706753 72.89395475 129.21887207 66.93692017 C128.87702881 66.23059448 128.53518555 65.5242688 128.1829834 64.79653931 C126.5100727 61.26398823 125.19188995 58.00881041 124.65637207 54.12442017 C123.99637207 54.12442017 123.33637207 54.12442017 122.65637207 54.12442017 C122.46043457 53.58817017 122.26449707 53.05192017 122.06262207 52.49942017 C119.66087366 46.20518295 116.77960221 40.24065956 113.72961426 34.24404907 C111.51117217 29.87217042 109.41931534 25.46978909 107.40637207 20.99942017 C103.86061691 13.01740923 103.86061691 13.01740923 97.65637207 7.12442017 C95.02580226 6.75733306 95.02580226 6.75733306 92.01550293 6.71377563 C90.8485791 6.67389526 89.68165527 6.63401489 88.47937012 6.59292603 C87.2061792 6.55949097 85.93298828 6.52605591 84.62121582 6.49160767 C83.28118806 6.45021629 81.94118166 6.40812847 80.60119629 6.36538696 C77.00828678 6.25371635 73.41513124 6.15500937 69.82175827 6.05956268 C67.60045107 5.99959777 65.37927992 5.93595563 63.15811157 5.87106323 C38.98899052 5.16697966 14.83597909 4.85266873 -9.34362793 5.12442017 C-6.82078172 -0.08946199 -5.9453885 0.00989503 0 0 Z " fill="#5E6169" transform="translate(383.3436279296875,342.8755798339844)" data-index="15"></path>
<path d="M0 0 C11.98488039 0.63078318 22.01422148 11.55442196 29.6875 19.8125 C32 23 32 23 31.78515625 24.96484375 C30.45349908 28.41655214 28.61478215 31.37073152 26 34 C23.1875 34.4375 23.1875 34.4375 21 34 C20.74476563 34.81726563 20.48953125 35.63453125 20.2265625 36.4765625 C18.81018303 40.5452704 17.12494047 44.44119073 15.375 48.375 C15.05015625 49.11105469 14.7253125 49.84710937 14.390625 50.60546875 C13.59615497 52.40470969 12.79841229 54.20250496 12 56 C11.34 56 10.68 56 10 56 C9.76925781 54.93523438 9.53851562 53.87046875 9.30078125 52.7734375 C7.16909725 43.19638686 4.45974394 34.19068034 1 25 C-0.79912167 20.10976997 -1.16695745 17.15406206 0 12 C0.66 11.01 1.32 10.02 2 9 C1.01 8.34 0.02 7.68 -1 7 C-0.67 4.69 -0.34 2.38 0 0 Z " fill="#E7AA79" transform="translate(731,555)" data-index="16" style="opacity: 1;"></path>
<path d="M0 0 C5.25309735 2.62654867 5.25309735 2.62654867 7 5 C7.44140625 7.77734375 7.44140625 7.77734375 7.5625 10.9375 C7.62175864 16.36360436 7.62175864 16.36360436 10 21 C12.64071159 21.93253829 15.03328108 22.61056238 17.75 23.1875 C18.45382812 23.35185547 19.15765625 23.51621094 19.8828125 23.68554688 C21.91684598 24.1524672 23.95552453 24.58151573 26 25 C26.91007813 25.19722656 27.82015625 25.39445312 28.7578125 25.59765625 C33.87384637 26.23253756 38.97456161 26.22559034 44.125 26.25 C45.72214844 26.2809375 45.72214844 26.2809375 47.3515625 26.3125 C56.65727091 26.35767334 66.18626618 25.49273639 74 20 C74.60169446 17.72668201 74.60169446 17.72668201 74.3125 15.3125 C74.24482422 14.10013672 74.24482422 14.10013672 74.17578125 12.86328125 C74.11777344 12.24839844 74.05976562 11.63351562 74 11 C77.82107376 16.73161064 79.2486743 22.1264564 78 29 C75.80135041 31.38710527 74.92411167 31.91315611 72 33 C71.10474609 33.33531738 70.20949219 33.67063477 69.28710938 34.01611328 C60.94279653 36.825747 53.4617427 37.63314658 44.6875 37.5 C43.42091553 37.48936523 42.15433105 37.47873047 40.84936523 37.46777344 C28.3301841 37.21429351 15.35395457 36.35395457 6 27 C5.875 23.875 5.875 23.875 6 21 C5.071875 20.7834375 5.071875 20.7834375 4.125 20.5625 C2 20 2 20 0 19 C0 12.73 0 6.46 0 0 Z " fill="#392E27" transform="translate(699,1162)" data-index="17"></path>
<path d="M0 0 C0.495 0.99 0.495 0.99 1 2 C2.65 2 4.3 2 6 2 C5.88449154 4.02139807 5.75711059 6.04211906 5.625 8.0625 C5.55539062 9.18785156 5.48578125 10.31320312 5.4140625 11.47265625 C4.97933573 15.17603617 4.06571009 18.42873748 3 22 C2.62894269 23.58063636 2.27043601 25.16425095 1.921875 26.75 C-0.49908792 37.67183228 -3.32579137 47.79574173 -8 58 C-8.3084082 58.6796582 -8.61681641 59.35931641 -8.93457031 60.05957031 C-18.5651793 81.05871474 -18.5651793 81.05871474 -28.45703125 85.3828125 C-38.88429088 87.91354525 -50.62883535 85.81495381 -61 84 C-61 82.35 -61 80.7 -61 79 C-60.21874756 79.01571045 -59.43749512 79.0314209 -58.63256836 79.04760742 C-55.06762021 79.11025239 -51.50278823 79.14908489 -47.9375 79.1875 C-46.70837891 79.21263672 -45.47925781 79.23777344 -44.21289062 79.26367188 C-36.16469055 79.32875166 -31.30315675 78.62387607 -24.4375 74.4375 C-6.51922146 56.51922146 -4.25823053 23.59560683 0 0 Z " fill="#A0896B" transform="translate(566,538)" data-index="18"></path>
<path d="M0 0 C1.65 7.26 3.3 14.52 5 22 C-5.51476982 24.18488724 -15.29117732 24.15298318 -26 24 C-26 16.74 -26 9.48 -26 2 C-22.48925255 1.12231314 -19.40354546 0.70779374 -15.8125 0.4375 C-14.21341797 0.31181641 -14.21341797 0.31181641 -12.58203125 0.18359375 C-8.39307291 -0.0311075 -4.19445688 0 0 0 Z " fill="#372B22" transform="translate(656,516)" data-index="19"></path>
<path d="M0 0 C2.1040882 -0.02764495 4.20828968 -0.04667887 6.3125 -0.0625 C7.48425781 -0.07410156 8.65601563 -0.08570313 9.86328125 -0.09765625 C14.92069402 0.02173499 19.96195372 0.54199579 25 1 C25 8.59 25 16.18 25 24 C20.68724111 23.8599173 16.37488864 23.7132199 12.0625 23.5625 C10.21495117 23.50352539 10.21495117 23.50352539 8.33007812 23.44335938 C7.16025391 23.40146484 5.99042969 23.35957031 4.78515625 23.31640625 C3.70113525 23.27974854 2.61711426 23.24309082 1.50024414 23.20532227 C-1 23 -1 23 -2 22 C-1.93443118 19.99717057 -1.79600447 17.99659272 -1.625 16 C-1.52574219 14.83082031 -1.42648437 13.66164063 -1.32421875 12.45703125 C-0.93408265 8.29714633 -0.49225457 4.14900277 0 0 Z " fill="#3A2E25" transform="translate(569,516)" data-index="20"></path>
<path d="M0 0 C1.32 0.33 2.64 0.66 4 1 C4.83632398 9.36323976 2.19971006 14.83373574 -2 22 C-2.33 22.33 -2.66 22.66 -3 23 C-2.34 23.66 -1.68 24.32 -1 25 C-5.36452983 27.47849997 -9.08234237 27.52352027 -14 27 C-19.91978651 25.14281207 -22.9175715 21.16047018 -26 16 C-30 7.65432099 -30 7.65432099 -30 3 C-26.91138451 3.93376747 -24.34138401 4.76010854 -21.6875 6.625 C-17.77970675 8.62433608 -14.30700754 8.55549744 -10 8 C-5.26457533 6.30239493 -2.87540184 4.091918 0 0 Z " fill="#202731" transform="translate(455,477)" data-index="21"></path>
<path d="M0 0 C0.99 0.66 1.98 1.32 3 2 C3.39941986 4.73190988 3.60606637 7.25452342 3.6875 10 C3.73874023 11.04800781 3.73874023 11.04800781 3.79101562 12.1171875 C3.90239955 14.74493897 3.9541789 17.37024879 4 20 C4.02843994 21.23411621 4.05687988 22.46823242 4.08618164 23.73974609 C4.29916542 37.10051054 3.19007256 50.32139201 2.0625 63.625 C1.87762624 65.8840632 1.69337795 68.14317767 1.50976562 70.40234375 C1.33128886 72.57296276 1.15227213 74.74353745 0.97265625 76.9140625 C0.89032242 77.9099942 0.80798859 78.9059259 0.72315979 79.93203735 C0.26671176 85.30812131 -0.28967019 90.65140209 -1 96 C-4.465 96.495 -4.465 96.495 -8 97 C-7.885354 95.91847656 -7.77070801 94.83695313 -7.65258789 93.72265625 C-7.09821582 88.48213782 -6.54820772 83.24116664 -6 78 C-5.89870789 77.0315918 -5.79741577 76.06318359 -5.6930542 75.06542969 C-1.63784893 37.61378748 -1.63784893 37.61378748 0 0 Z " fill="#DDDDDC" transform="translate(578,418)" data-index="22"></path>
<path d="M0 0 C0.495 0.99 0.495 0.99 1 2 C-6.18863283 13.61240688 -15.39769762 23.25076352 -29 27 C-31.71061275 27.22663986 -34.27148292 27.0940868 -37 27 C-37 23.04 -37 19.08 -37 15 C-35.64648438 14.64808594 -34.29296875 14.29617187 -32.8984375 13.93359375 C-15.13919893 9.64387747 -15.13919893 9.64387747 0 0 Z " fill="#CE8E5D" transform="translate(633,180)" data-index="23"></path>
<path d="M0 0 C0.33 0 0.66 0 1 0 C2.34698054 5.75528049 2.57922751 9.87343141 -0.5 15.0625 C-1.63174196 16.7325415 -2.79950025 18.37867991 -4 20 C-4.58910156 20.80953125 -5.17820312 21.6190625 -5.78515625 22.453125 C-17.48542338 37.98490818 -17.48542338 37.98490818 -25.98046875 39.30859375 C-31.68057729 39.64152044 -34.8439806 38.47224987 -39.19921875 34.7890625 C-41.97802028 32.02834428 -44.01514717 29.39345807 -46 26 C-45.505 24.515 -45.505 24.515 -45 23 C-44.55269531 23.40992188 -44.10539063 23.81984375 -43.64453125 24.2421875 C-39.11685557 28.27751466 -35.84887356 30.67748601 -29.6875 31.375 C-21.84805439 30.57776824 -17.08215325 26.77633392 -12.09375 20.84765625 C-7.47079016 14.56008587 -2.47499747 7.4249924 0 0 Z " fill="#A18A6C" transform="translate(727,564)" data-index="24"></path>
<path d="M0 0 C11.98488039 0.63078318 22.01422148 11.55442196 29.6875 19.8125 C32 23 32 23 31.79296875 24.96484375 C30.94929093 27.13014497 29.96357011 28.85166421 28.625 30.75 C28.20476563 31.36359375 27.78453125 31.9771875 27.3515625 32.609375 C26.90554688 33.06828125 26.45953125 33.5271875 26 34 C25.01 34 24.02 34 23 34 C23.144375 33.195625 23.28875 32.39125 23.4375 31.5625 C22.5294102 24.16805452 16.52665037 19.22543769 11 14.6875 C7.15852132 11.74471587 3.28728449 9.23684408 -1 7 C-0.67 4.69 -0.34 2.38 0 0 Z " fill="#F2F1EF" transform="translate(731,555)" data-index="25"></path>
<path d="M0 0 C1.73841031 0.01496857 3.47677634 0.03565251 5.21507263 0.06056213 C6.63443619 0.07497345 6.63443619 0.07497345 8.08247375 0.0896759 C11.22627409 0.12279297 14.36994091 0.16307659 17.51365662 0.2033844 C19.68698651 0.22767311 21.86032141 0.25151728 24.03366089 0.27493286 C29.76630847 0.33789811 35.49886784 0.40692929 41.23143005 0.47718811 C47.0761156 0.54775949 52.9208639 0.61264335 58.76560974 0.67799377 C70.24289225 0.80716637 81.72008966 0.94274187 93.19725037 1.08229065 C93.19725037 1.41229065 93.19725037 1.74229065 93.19725037 2.08229065 C89.89725037 2.41229065 86.59725037 2.74229065 83.19725037 3.08229065 C83.19725037 3.41229065 83.19725037 3.74229065 83.19725037 4.08229065 C90.12725037 4.57729065 90.12725037 4.57729065 97.19725037 5.08229065 C97.19725037 5.41229065 97.19725037 5.74229065 97.19725037 6.08229065 C64.02627733 6.27134047 64.02627733 6.27134047 49.13475037 5.58229065 C30.5037821 4.72782071 11.84273874 4.9959505 -6.80274963 5.08229065 C-4.38953898 0.09498864 -4.38953898 0.09498864 0 0 Z " fill="#60646C" transform="translate(380.80274963378906,342.91770935058594)" data-index="26"></path>
<path d="M0 0 C12.87 0 25.74 0 39 0 C39 1.98 39 3.96 39 6 C37.66666667 6.66666667 36.33333333 7.33333333 35 8 C34.175 8.53625 33.35 9.0725 32.5 9.625 C26.63395632 11.92951716 20.35930636 12.27108889 14.3984375 10.015625 C10.25887303 7.77278405 6.58211245 5.05533121 3 2 C2.01 1.34 1.02 0.68 0 0 Z " fill="#372D26" transform="translate(529,1118)" data-index="27"></path>
<path d="M0 0 C21.12 0 42.24 0 64 0 C64 0.33 64 0.66 64 1 C56.74 1 49.48 1 42 1 C42 1.66 42 2.32 42 3 C33.09 3 24.18 3 15 3 C15 5.97 15 8.94 15 12 C16.65 12 18.3 12 20 12 C20 12.66 20 13.32 20 14 C18.35 14 16.7 14 15 14 C15.33 16.97 15.66 19.94 16 23 C28.87 23.495 28.87 23.495 42 24 C42 24.66 42 25.32 42 26 C37.81909587 26.02480683 33.63823128 26.04291049 29.45727539 26.05493164 C28.03636936 26.05994565 26.61546844 26.06675852 25.19458008 26.07543945 C23.14663424 26.08763388 21.0987569 26.09325772 19.05078125 26.09765625 C17.82012939 26.10289307 16.58947754 26.10812988 15.3215332 26.11352539 C12.40780381 26.01393817 9.82692674 25.67799322 7 25 C8.32 24.67 9.64 24.34 11 24 C11 16.41 11 8.82 11 1 C7.37 1 3.74 1 0 1 C0 0.67 0 0.34 0 0 Z " fill="#868689" transform="translate(583,516)" data-index="28"></path>
<path d="M0 0 C11.22 0 22.44 0 34 0 C34 0.33 34 0.66 34 1 C26.74 1 19.48 1 12 1 C12.24146356 8.86882983 12.48460818 16.73760376 12.73049068 24.60629654 C12.84467486 28.2624036 12.95820059 31.91852831 13.07006836 35.57470703 C13.56467569 51.72454609 14.09217635 67.86688625 15 84 C6.83215351 75.83215351 9.9139263 52.12427528 9.90234375 41.4296875 C9.90521445 36.57807959 9.92051404 31.72657587 9.9375 26.875 C9.94252803 24.35546965 9.94708862 21.83593831 9.95117188 19.31640625 C9.96206731 13.21091286 9.97925915 7.10546755 10 1 C6.7 1 3.4 1 0 1 C0 0.67 0 0.34 0 0 Z " fill="#9D886D" transform="translate(595,542)" data-index="29"></path>
<path d="M0 0 C4.71428678 0.68269515 8.74563896 2.45991224 13.0625 4.375 C14.12307617 4.83132813 14.12307617 4.83132813 15.20507812 5.296875 C24.31411117 9.29971769 24.31411117 9.29971769 25.7421875 12.83984375 C26.70817804 20.93367358 26.52220627 29.98687643 25 38 C24.34 38.66 23.68 39.32 23 40 C21.6097938 34.80989686 21.01827796 30.59029722 21.2644043 25.20019531 C21.4345018 18.79803541 21.4345018 18.79803541 18.56982422 13.26660156 C14.96940277 10.04770121 10.9600774 7.53738986 6.80273438 5.10351562 C4.36067743 3.6086487 2.18411161 1.84548965 0 0 Z " fill="#A58D6E" transform="translate(592,637)" data-index="30"></path>
<path d="M0 0 C4.91510886 0.42129505 6.70875799 2.47226155 10 6 C11.5436575 7.83520832 13.06473851 9.68964694 14.5625 11.5625 C17.2313191 14.89736755 19.92326459 18.03489218 23 21 C23.268125 20.0925 23.53625 19.185 23.8125 18.25 C24.89576294 15.28528037 25.98359457 13.3830246 28 11 C28.33 12.98 28.66 14.96 29 17 C28.38125 17.061875 27.7625 17.12375 27.125 17.1875 C24.72238859 17.828919 24.72238859 17.828919 23.75 20.5625 C23.5025 21.366875 23.255 22.17125 23 23 C18.29973303 23 15.96412324 19.68809189 12.5703125 16.65234375 C10.14782742 14.74254744 10.14782742 14.74254744 7.4296875 15.12890625 C5.17135111 15.93856704 3.09621921 16.83543377 1 18 C1.01160156 16.95199219 1.02320313 15.90398437 1.03515625 14.82421875 C1.04453655 13.44531428 1.0536365 12.06640789 1.0625 10.6875 C1.07087891 9.99720703 1.07925781 9.30691406 1.08789062 8.59570312 C1.10307906 5.4516975 1.00193327 3.00579981 0 0 Z " fill="#E3E2E1" transform="translate(636,237)" data-index="31"></path>
<path d="M0 0 C2.97 0 5.94 0 9 0 C7.68 0.33 6.36 0.66 5 1 C5 8.26 5 15.52 5 23 C7.97 23 10.94 23 14 23 C14 23.33 14 23.66 14 24 C9.38 24.33 4.76 24.66 0 25 C0 24.34 0 23.68 0 23 C-8.58 23 -17.16 23 -26 23 C-26 22.67 -26 22.34 -26 22 C-17.42 22 -8.84 22 0 22 C0 15.73 0 9.46 0 3 C-8.91 3 -17.82 3 -27 3 C-27 2.67 -27 2.34 -27 2 C-18.09 2 -9.18 2 0 2 C0 1.34 0 0.68 0 0 Z " fill="#4F453E" transform="translate(625,517)" data-index="32"></path>
<path d="M0 0 C1.98 0 3.96 0 6 0 C6 5.28 6 10.56 6 16 C4.68 15.01 3.36 14.02 2 13 C-1.61341471 13.17004304 -3.55081682 15.11178443 -6.125 17.5 C-9.83856502 20.91928251 -9.83856502 20.91928251 -12 22 C-10.57226543 17.15165137 -8.53186974 13.07986419 -6 8.75 C-5.64421875 8.12609375 -5.2884375 7.5021875 -4.921875 6.859375 C-3.44547141 4.30321356 -2.09638349 2.09638349 0 0 Z " fill="#E1E0DF" transform="translate(600,237)" data-index="33"></path>
<path d="M0 0 C19.8 0 39.6 0 60 0 C60 0.33 60 0.66 60 1 C59.28972656 1.04898437 58.57945312 1.09796875 57.84765625 1.1484375 C56.46900391 1.26058594 56.46900391 1.26058594 55.0625 1.375 C54.14597656 1.44460938 53.22945313 1.51421875 52.28515625 1.5859375 C51.53105469 1.72257812 50.77695312 1.85921875 50 2 C49.67 2.66 49.34 3.32 49 4 C42.82501142 3.9063415 36.65040916 3.80021904 30.47583008 3.68261719 C28.37595463 3.64436986 26.27601462 3.6095096 24.17602539 3.578125 C21.15487619 3.5323825 18.13416984 3.47440277 15.11328125 3.4140625 C14.17664139 3.40251129 13.24000153 3.39096008 12.27497864 3.37905884 C7.76869291 3.27737241 4.08853191 3.13217126 0 1 C0 0.67 0 0.34 0 0 Z " fill="#7B7E84" transform="translate(414,344)" data-index="34"></path>
<path d="M0 0 C1.3583919 4.42578766 0.27118592 8.03813968 -0.75 12.4375 C-3.66717344 25.81169658 -4.76960669 39.38629335 -6 53 C-6.99 52.67 -7.98 52.34 -9 52 C-5.01787568 5.01787568 -5.01787568 5.01787568 0 0 Z " fill="#222A35" transform="translate(751,277)" data-index="35" style="opacity: 1;"></path>
<path d="M0 0 C2.25382658 3.38073986 2.81676343 6.35438052 3.5078125 10.265625 C3.63815887 10.97724792 3.76850525 11.68887085 3.90280151 12.42205811 C4.17675191 13.92772425 4.44718653 15.43403372 4.71435547 16.94091797 C5.12134455 19.22944515 5.54222602 21.51509491 5.96484375 23.80078125 C6.23000879 25.26807723 6.49435772 26.73552098 6.7578125 28.203125 C6.88278107 28.87941956 7.00774963 29.55571411 7.13650513 30.25250244 C7.88709023 34.54773519 8.11224831 38.64420095 8 43 C7.34 42.67 6.68 42.34 6 42 C5.32123091 39.47795931 4.76631744 37.01679846 4.2734375 34.45703125 C4.12089508 33.69581467 3.96835266 32.93459808 3.81118774 32.15031433 C3.48944045 30.53454294 3.17196692 28.91791564 2.85839844 27.30053711 C2.37996418 24.83805046 1.88643311 22.37896218 1.390625 19.91992188 C1.07981751 18.34913845 0.76989367 16.77817986 0.4609375 15.20703125 C0.31409515 14.47555374 0.16725281 13.74407623 0.01596069 12.99043274 C-0.76043327 8.94239357 -1.24869431 5.12240425 -1 1 C-0.67 0.67 -0.34 0.34 0 0 Z " fill="#212A34" transform="translate(566,374)" data-index="36" style="opacity: 1;"></path>
<path d="M0 0 C0.99 0 1.98 0 3 0 C3.22786458 2.05078125 3.45572917 4.1015625 3.68359375 6.15234375 C3.81886614 8.01140229 3.81886614 8.01140229 5 9 C6.92478813 9.15806531 8.8549921 9.251135 10.78515625 9.31640625 C11.95498047 9.35830078 13.12480469 9.40019531 14.33007812 9.44335938 C16.17762695 9.50233398 16.17762695 9.50233398 18.0625 9.5625 C19.29806641 9.60568359 20.53363281 9.64886719 21.80664062 9.69335938 C24.87097335 9.79984198 27.93539073 9.90185424 31 10 C31 10.66 31 11.32 31 12 C26.81909587 12.02480683 22.63823128 12.04291049 18.45727539 12.05493164 C17.03636936 12.05994565 15.61546844 12.06675852 14.19458008 12.07543945 C12.14663424 12.08763388 10.0987569 12.09325772 8.05078125 12.09765625 C6.82012939 12.10289307 5.58947754 12.10812988 4.3215332 12.11352539 C1.40780381 12.01393817 -1.17307326 11.67799322 -4 11 C-2.68 10.67 -1.36 10.34 0 10 C0 6.7 0 3.4 0 0 Z " fill="#7A7E83" transform="translate(594,530)" data-index="37"></path>
<path d="M0 0 C0.99 0 1.98 0 3 0 C3.5757628 4.69491686 4.14518996 9.3905449 4.70898438 14.08691406 C4.90129233 15.68152134 5.09527257 17.27592793 5.29101562 18.87011719 C5.57350971 21.17330877 5.84980472 23.47717629 6.125 25.78125 C6.21249512 26.48366821 6.29999023 27.18608643 6.39013672 27.90979004 C6.94682879 32.63747226 7.07467796 37.23928017 7 42 C6.34 42 5.68 42 5 42 C4.4433308 38.10873141 3.89228737 34.21670716 3.34594727 30.32397461 C3.07003542 28.3659749 2.78995876 26.40856351 2.50976562 24.45117188 C1.37054965 16.31095589 0.52036161 8.20329657 0 0 Z " fill="#222A35" transform="translate(548,273)" data-index="38"></path>
<path d="M0 0 C0.33 0 0.66 0 1 0 C1.18175781 0.969375 1.36351562 1.93875 1.55078125 2.9375 C1.67090576 3.57743896 1.79103027 4.21737793 1.91479492 4.87670898 C2.18294318 6.30831453 2.45000966 7.74012306 2.71606445 9.17211914 C3.40831523 12.8896721 4.11624596 16.60241629 4.8671875 20.30859375 C6.26064603 27.27099709 7.38240215 33.86182657 7 41 C4.27663283 38.27663283 4.22271301 36.04114405 3.4921875 32.26953125 C3.29666794 31.26656258 3.29666794 31.26656258 3.09719849 30.24333191 C2.8229002 28.82595219 2.5524829 27.40781673 2.28564453 25.98901367 C1.87946632 23.83617254 1.45830421 21.6866714 1.03515625 19.53710938 C0.76992253 18.15642466 0.50557195 16.77556994 0.2421875 15.39453125 C0.0035498 14.14518799 -0.23508789 12.89584473 -0.48095703 11.60864258 C-0.99918107 8.00569362 -1.16427937 4.63446642 -1 1 C-0.67 0.67 -0.34 0.34 0 0 Z " fill="#222A34" transform="translate(556,319)" data-index="39"></path>
<path d="M0 0 C0.33 0 0.66 0 1 0 C1 17.49 1 34.98 1 53 C-2.2513004 48.6649328 -2.36557196 47.83375217 -2.29296875 42.703125 C-2.28330078 41.49785156 -2.27363281 40.29257812 -2.26367188 39.05078125 C-2.23853516 37.79652344 -2.21339844 36.54226563 -2.1875 35.25 C-2.17396484 33.98027344 -2.16042969 32.71054687 -2.14648438 31.40234375 C-2.1111324 28.26780156 -2.06178248 25.13411455 -2 22 C-1.67 22 -1.34 22 -1 22 C-0.67 14.74 -0.34 7.48 0 0 Z " fill="#EEEDEC" transform="translate(581,385)" data-index="40"></path>
<path d="M0 0 C0.33 0 0.66 0 1 0 C1.02505615 0.98581055 1.0501123 1.97162109 1.07592773 2.98730469 C1.74315463 29.50501827 1.74315463 29.50501827 3 56 C-1.09227885 51.90772115 -1.12862876 45.40051591 -1.13525391 39.84741211 C-1.093645 37.99043539 -1.04028963 36.13369304 -0.9765625 34.27734375 C-0.95153656 33.29125626 -0.92651062 32.30516876 -0.90072632 31.28919983 C-0.81923263 28.17157926 -0.72237362 25.05466085 -0.625 21.9375 C-0.56668813 19.8105746 -0.50938654 17.68362125 -0.453125 15.55664062 C-0.31375995 10.37069747 -0.16062291 5.1853265 0 0 Z " fill="#A88F71" transform="translate(607,570)" data-index="41" style="opacity: 1;"></path>
<path d="M0 0 C5.94 0 11.88 0 18 0 C16 2 16 2 13.25 2.8125 C10.29618682 3.89177789 9.11363868 4.60795246 6.875 6.625 C4 9 4 9 0 9 C0 6.03 0 3.06 0 0 Z " fill="#392E28" transform="translate(703,1120)" data-index="42"></path>
<path d="M0 0 C3.28330144 2.92348758 3.95866933 5.75457495 5 10 C2.03 10 -0.94 10 -4 10 C-4.33 9.01 -4.66 8.02 -5 7 C-4.00390625 5.17578125 -4.00390625 5.17578125 -2.5625 3.3125 C-2.08941406 2.68988281 -1.61632812 2.06726563 -1.12890625 1.42578125 C-0.75636719 0.95527344 -0.38382813 0.48476563 0 0 Z " fill="#202834" transform="translate(763,580)" data-index="43"></path>
<path d="M0 0 C0.66 0 1.32 0 2 0 C2 5.61 2 11.22 2 17 C-1.90775329 18.95387664 -3.99687587 19.34762234 -8.25 19.625 C-9.32765625 19.69976563 -10.4053125 19.77453125 -11.515625 19.8515625 C-12.33546875 19.90054687 -13.1553125 19.94953125 -14 20 C-13.01 19.67 -12.02 19.34 -11 19 C-10.67 18.01 -10.34 17.02 -10 16 C-8 16.66666667 -6 17.33333333 -4 18 C-4 17.34 -4 16.68 -4 16 C-2.68 16 -1.36 16 0 16 C0 10.72 0 5.44 0 0 Z " fill="#4E463F" transform="translate(573,1160)" data-index="44"></path>
<path d="M0 0 C0 0.66 0 1.32 0 2 C-3.8736343 2.67476789 -7.74910183 3.33837032 -11.625 4 C-12.71941406 4.19078125 -13.81382812 4.3815625 -14.94140625 4.578125 C-16.53662109 4.84882813 -16.53662109 4.84882813 -18.1640625 5.125 C-19.13811035 5.29257812 -20.1121582 5.46015625 -21.11572266 5.6328125 C-24.10804756 6.01375517 -26.98685417 6.06252962 -30 6 C-29.67 5.34 -29.34 4.68 -29 4 C-26.76269531 3.40576172 -26.76269531 3.40576172 -23.828125 2.9296875 C-22.24257813 2.66865234 -22.24257813 2.66865234 -20.625 2.40234375 C-19.51125 2.22832031 -18.3975 2.05429687 -17.25 1.875 C-16.15171875 1.69324219 -15.0534375 1.51148438 -13.921875 1.32421875 C-9.22943645 0.56682272 -4.76362953 -0.11176625 0 0 Z " fill="#232B37" transform="translate(737,484)" data-index="45"></path>
<path d="M0 0 C0.33 0 0.66 0 1 0 C1 10.89 1 21.78 1 33 C0.67 33 0.34 33 0 33 C-0.33 27.06 -0.66 21.12 -1 15 C-1.33 15 -1.66 15 -2 15 C-2.05429959 13.25034642 -2.09292823 11.50020213 -2.125 9.75 C-2.15980469 8.28820312 -2.15980469 8.28820312 -2.1953125 6.796875 C-1.99862781 3.9803502 -1.44568916 2.39050964 0 0 Z " fill="#4A525D" transform="translate(741,409)" data-index="46"></path>
<path d="M0 0 C0.66 0 1.32 0 2 0 C2.69640673 2.12209776 3.38188357 4.24778527 4.0625 6.375 C4.44535156 7.55835938 4.82820312 8.74171875 5.22265625 9.9609375 C6 13 6 13 5 15 C4.01 14.67 3.02 14.34 2 14 C1.34 14.66 0.68 15.32 0 16 C0 10.72 0 5.44 0 0 Z " fill="#BABDC0" transform="translate(743,384)" data-index="47"></path>
<path d="M0 0 C1.01416992 0.0009668 1.01416992 0.0009668 2.04882812 0.00195312 C7.0306326 0.0465663 7.0306326 0.0465663 9.3125 1.1875 C9.3125 1.8475 9.3125 2.5075 9.3125 3.1875 C8.14332031 3.17589844 6.97414063 3.16429687 5.76953125 3.15234375 C4.22135577 3.14296087 2.67317855 3.1338612 1.125 3.125 C0.35607422 3.11662109 -0.41285156 3.10824219 -1.20507812 3.09960938 C-5.17276789 3.08258066 -8.81321234 3.20145885 -12.6875 4.1875 C-12.6875 3.5275 -12.6875 2.8675 -12.6875 2.1875 C-8.37567743 0.07745917 -4.76595645 -0.05134723 0 0 Z " fill="#3C3026" transform="translate(735.6875,1135.8125)" data-index="48"></path>
<path d="M0 0 C0.66 0.33 1.32 0.66 2 1 C-0.27055081 4.08354148 -2.54149021 7.16679656 -4.8125 10.25 C-5.45509766 11.12269531 -6.09769531 11.99539062 -6.75976562 12.89453125 C-7.38173828 13.73886719 -8.00371094 14.58320313 -8.64453125 15.453125 C-9.21534424 16.22817383 -9.78615723 17.00322266 -10.37426758 17.80175781 C-11.90728679 19.87463737 -13.45047512 21.93943976 -15 24 C-15 19.95040146 -14.97721009 19.46931275 -12.734375 16.50390625 C-12.25613281 15.86259766 -11.77789063 15.22128906 -11.28515625 14.56054688 C-10.77855469 13.90119141 -10.27195312 13.24183594 -9.75 12.5625 C-9.01330078 11.57926758 -9.01330078 11.57926758 -8.26171875 10.57617188 C-5.57105193 6.99937878 -2.81576234 3.47947775 0 0 Z " fill="#222B37" transform="translate(570,221)" data-index="49"></path>
<path d="M0 0 C0.66 0 1.32 0 2 0 C2.39271781 3.12304165 2.76113726 6.24847572 3.125 9.375 C3.23714844 10.26445312 3.34929687 11.15390625 3.46484375 12.0703125 C3.56152344 12.92109375 3.65820312 13.771875 3.7578125 14.6484375 C3.8520752 15.43395996 3.94633789 16.21948242 4.04345703 17.02880859 C4 19 4 19 2 21 C0.09879901 13.87049629 -0.22424141 7.36259293 0 0 Z " fill="#232A35" transform="translate(508,317)" data-index="50"></path>
<path d="M0 0 C0.33 1.65 0.66 3.3 1 5 C-3.455 5.495 -3.455 5.495 -8 6 C-8.66 4.68 -9.32 3.36 -10 2 C-3.375 0 -3.375 0 0 0 Z " fill="#D59463" transform="translate(652,158)" data-index="51"></path>
<path d="M0 0 C0.66 0.66 1.32 1.32 2 2 C1.21496094 2.06058594 0.42992187 2.12117188 -0.37890625 2.18359375 C-5.95361148 2.62820214 -11.47640616 3.12124643 -17 4 C-17 3.34 -17 2.68 -17 2 C-11.51994831 -0.36975208 -5.88727255 -0.65414139 0 0 Z " fill="#3C2E25" transform="translate(738,1128)" data-index="52"></path>
<path d="M0 0 C0.99 0 1.98 0 3 0 C3.33 3.3 3.66 6.6 4 10 C1.36 10.33 -1.28 10.66 -4 11 C-2.68 10.67 -1.36 10.34 0 10 C0 6.7 0 3.4 0 0 Z " fill="#858585" transform="translate(594,530)" data-index="53"></path>
<path d="M0 0 C0.33 0.66 0.66 1.32 1 2 C3.01669827 3.13350534 3.01669827 3.13350534 5 4 C4.01 4.495 4.01 4.495 3 5 C2.26924352 7.3140622 1.59861742 9.64828869 1 12 C-1.44576827 8.33134759 -1.23607254 6.32799657 -1 2 C-0.67 1.34 -0.34 0.68 0 0 Z " fill="#CE976B" transform="translate(729,560)" data-index="54"></path>
<path d="M0 0 C2.32528287 2.32528287 2.29511025 2.84665898 2.3125 6 C2.32925781 6.70125 2.34601562 7.4025 2.36328125 8.125 C2.18345703 9.053125 2.18345703 9.053125 2 10 C1.01 10.66 0.02 11.32 -1 12 C-1.33 8.7 -1.66 5.4 -2 2 C-1.34 2 -0.68 2 0 2 C0 1.34 0 0.68 0 0 Z " fill="#575B62" transform="translate(544,466)" data-index="55"></path>
<path d="M0 0 C0.66 0.33 1.32 0.66 2 1 C0.90833564 2.6748823 -0.19873637 4.33973123 -1.3125 6 C-1.92738281 6.928125 -2.54226563 7.85625 -3.17578125 8.8125 C-3.77777344 9.534375 -4.37976563 10.25625 -5 11 C-5.99 11 -6.98 11 -8 11 C-6.52670958 5.99081256 -3.72484762 3.48192278 0 0 Z " fill="#37414E" transform="translate(503,247)" data-index="56"></path>
<path d="M0 0 C1.83590188 0.0377638 3.67051617 0.15454199 5.5 0.3125 C6.5003125 0.39113281 7.500625 0.46976563 8.53125 0.55078125 C9.75328125 0.77314453 9.75328125 0.77314453 11 1 C11.33 1.66 11.66 2.32 12 3 C10.75283203 2.96519531 10.75283203 2.96519531 9.48046875 2.9296875 C8.39378906 2.91164063 7.30710937 2.89359375 6.1875 2.875 C5.10855469 2.85179687 4.02960938 2.82859375 2.91796875 2.8046875 C-0.19402868 2.76976283 -0.19402868 2.76976283 -3 5 C-1.125 1.125 -1.125 1.125 0 0 Z " fill="#392B21" transform="translate(494,1130)" data-index="57"></path>
<path d="M0 0 C0.33 0 0.66 0 1 0 C1.10920422 7.74136601 0.97159933 15.31395526 0 23 C-0.33 23 -0.66 23 -1 23 C-1.19401633 21.18818595 -1.38004375 19.37551468 -1.5625 17.5625 C-1.66691406 16.55316406 -1.77132812 15.54382813 -1.87890625 14.50390625 C-1.93884766 13.26447266 -1.93884766 13.26447266 -2 12 C-1.67 11.67 -1.34 11.34 -1 11 C-0.76636119 9.15108054 -0.58696365 7.29511969 -0.4375 5.4375 C-0.35371094 4.42558594 -0.26992188 3.41367187 -0.18359375 2.37109375 C-0.12300781 1.58863281 -0.06242188 0.80617188 0 0 Z " fill="#485058" transform="translate(577,432)" data-index="58"></path>
<path d="M0 0 C-0.33 1.65 -0.66 3.3 -1 5 C-3.91517292 3.92598892 -5.77810176 3.22189824 -8 1 C-5.29120665 -0.35439668 -2.99066732 -0.06501451 0 0 Z " fill="#322A24" transform="translate(750,1118)" data-index="59"></path>
<path d="M0 0 C0.99 0.33 1.98 0.66 3 1 C2.34 1.66 1.68 2.32 1 3 C1 3.99 1 4.98 1 6 C-0.32 6.33 -1.64 6.66 -3 7 C-3.1875 4.625 -3.1875 4.625 -3 2 C-2.01 1.34 -1.02 0.68 0 0 Z " fill="#434850" transform="translate(422,427)" data-index="60"></path>
<path d="M0 0 C3.63 0.66 7.26 1.32 11 2 C10.67 2.66 10.34 3.32 10 4 C2.25 3.125 2.25 3.125 0 2 C0 1.34 0 0.68 0 0 Z " fill="#3D332C" transform="translate(437,1184)" data-index="61"></path>
<path d="M0 0 C-0.33 0.99 -0.66 1.98 -1 3 C-2.84765625 3.73046875 -2.84765625 3.73046875 -5.0625 4.1875 C-5.79597656 4.34605469 -6.52945312 4.50460937 -7.28515625 4.66796875 C-8.13400391 4.83232422 -8.13400391 4.83232422 -9 5 C-9.33 4.01 -9.66 3.02 -10 2 C-3.375 0 -3.375 0 0 0 Z " fill="#57473C" transform="translate(458,1156)" data-index="62"></path>
<path d="M0 0 C0.33 0 0.66 0 1 0 C1.33 1.98 1.66 3.96 2 6 C-0.64 6.66 -3.28 7.32 -6 8 C-5.02471263 6.66382648 -4.04466681 5.3311249 -3.0625 4 C-2.24458984 2.88625 -2.24458984 2.88625 -1.41015625 1.75 C-0.94480469 1.1725 -0.47945313 0.595 0 0 Z " fill="#C68456" transform="translate(418,429)" data-index="63"></path>
<path d="M0 0 C4.56454251 0.54339792 7.9728176 1.79463821 12 4 C8.30558125 5.23147292 7.48015214 4.44298991 4 3 C2.68 3 1.36 3 0 3 C0 2.01 0 1.02 0 0 Z " fill="#E2E4E6" transform="translate(731,555)" data-index="64"></path>
<path d="M0 0 C2.32590854 3.63423209 2.16265833 6.77088331 2 11 C1.01 10.67 0.02 10.34 -1 10 C-1.125 2.25 -1.125 2.25 0 0 Z " fill="#E9E9EA" transform="translate(499,540)" data-index="65"></path>
<path d="M0 0 C0.33 0 0.66 0 1 0 C0.67 5.28 0.34 10.56 0 16 C-0.33 16 -0.66 16 -1 16 C-2.0006709 10.03654233 -2.0662997 5.71271093 0 0 Z " fill="#4A525C" transform="translate(572,488)" data-index="66"></path>
<path d="M0 0 C0.66 0 1.32 0 2 0 C2 1.65 2 3.3 2 5 C2.66 5 3.32 5 4 5 C4.33 6.32 4.66 7.64 5 9 C4.01 9.495 4.01 9.495 3 10 C0.96564469 6.27034861 0 4.33094958 0 0 Z " fill="#51545C" transform="translate(373,348)" data-index="67"></path>
<path d="M0 0 C0.66 0 1.32 0 2 0 C5 5.75 5 5.75 5 8 C2 7 2 7 0.8125 5.125 C0 3 0 3 0 0 Z " fill="#594B42" transform="translate(758,1145)" data-index="68"></path>
<path d="M0 0 C0.99 0 1.98 0 3 0 C2.67 1.98 2.34 3.96 2 6 C1.01 6.33 0.02 6.66 -1 7 C-0.67 4.69 -0.34 2.38 0 0 Z " fill="#353E4B" transform="translate(753,471)" data-index="69"></path>
<path d="M0 0 C0.99 0 1.98 0 3 0 C3 1.65 3 3.3 3 5 C1.68 5.33 0.36 5.66 -1 6 C-0.67 4.02 -0.34 2.04 0 0 Z " fill="#2A2E34" transform="translate(743,609)" data-index="70"></path>
<path d="M0 0 C0.33 0 0.66 0 1 0 C2.12029814 5.48946087 1.79217969 8.83430559 0 14 C-0.33 14 -0.66 14 -1 14 C-1.08333357 9.1666528 -0.95261487 4.76307437 0 0 Z " fill="#5B616A" transform="translate(498,566)" data-index="71"></path>
<path d="M0 0 C1.32 0.33 2.64 0.66 4 1 C4 1.99 4 2.98 4 4 C5.32 4.33 6.64 4.66 8 5 C3.48279689 5.36625971 3.48279689 5.36625971 1.1875 3.625 C0 2 0 2 0 0 Z " fill="#393E48" transform="translate(443,471)" data-index="72"></path>
<path d="M0 0 C0.66 0.33 1.32 0.66 2 1 C1.67 1.99 1.34 2.98 1 4 C-0.65 4.33 -2.3 4.66 -4 5 C-2.68 3.35 -1.36 1.7 0 0 Z " fill="#4C3F36" transform="translate(498,1125)" data-index="73"></path>
<path d="M0 0 C0.66 0.33 1.32 0.66 2 1 C-0.97 3.475 -0.97 3.475 -4 6 C-4.33 5.01 -4.66 4.02 -5 3 C-2.625 1.4375 -2.625 1.4375 0 0 Z " fill="#524136" transform="translate(508,1116)" data-index="74"></path>
<path d="M0 0 C0.66 0.66 1.32 1.32 2 2 C1.9765625 4.6015625 1.9765625 4.6015625 1.625 7.625 C1.51414062 8.62789062 1.40328125 9.63078125 1.2890625 10.6640625 C1.19367187 11.43492187 1.09828125 12.20578125 1 13 C0.67 13 0.34 13 0 13 C0 9.37 0 5.74 0 2 C-0.99 1.67 -1.98 1.34 -3 1 C-2.01 0.67 -1.02 0.34 0 0 Z " fill="#8A8F95" transform="translate(757,588)" data-index="75"></path>
<path d="M0 0 C1.04005702 3.38018531 1.08004482 6.4780279 1 10 C0.34 10 -0.32 10 -1 10 C-1.33 10.66 -1.66 11.32 -2 12 C-1.85831863 10.56208484 -1.71148957 9.1246763 -1.5625 7.6875 C-1.48128906 6.88699219 -1.40007812 6.08648437 -1.31640625 5.26171875 C-1 3 -1 3 0 0 Z " fill="#5F666E" transform="translate(484,292)" data-index="76"></path>
</svg>